M48
; DRILL file {KiCad (6.0.5)} date Fri Jul 22 19:18:11 2022
; FORMAT={-:-/ absolute / metric / decimal}
; #@! TF.CreationDate,2022-07-22T19:18:11-04:00
; #@! TF.GenerationSoftware,Kicad,Pcbnew,(6.0.5)
; #@! TF.FileFunction,Plated,1,4,PTH
FMAT,2
METRIC
; #@! TA.AperFunction,Plated,PTH,ViaDrill
T1C0.305
; #@! TA.AperFunction,Plated,PTH,ViaDrill
T2C0.400
; #@! TA.AperFunction,Plated,PTH,ComponentDrill
T3C0.800
; #@! TA.AperFunction,Plated,PTH,ComponentDrill
T4C1.000
; #@! TA.AperFunction,Plated,PTH,ComponentDrill
T5C1.100
; #@! TA.AperFunction,Plated,PTH,ComponentDrill
T6C1.300
; #@! TA.AperFunction,Plated,PTH,ComponentDrill
T7C1.520
%
G90
G05
T1
X72.898Y-87.884
X73.66Y-71.628
X76.2Y-69.85
X80.772Y-79.756
X80.772Y-36.576
X81.026Y-76.685
X82.106Y-79.49
X82.804Y-83.82
X83.312Y-71.628
X83.82Y-27.432
X84.836Y-79.756
X86.36Y-85.402
X87.376Y-44.704
X87.376Y-74.32
X87.884Y-82.296
X88.138Y-86.208
X88.392Y-39.624
X88.392Y-78.994
X88.646Y-76.962
X89.154Y-80.772
X89.408Y-28.956
X89.408Y-72.136
X89.408Y-75.184
X90.211Y-82.591
X90.678Y-69.088
X90.678Y-73.66
X90.932Y-76.65
X91.186Y-66.802
X91.694Y-81.026
X92.456Y-83.82
X93.472Y-87.376
X94.234Y-78.232
X94.488Y-66.294
X94.488Y-75.692
X94.488Y-83.82
X95.25Y-88.392
X95.758Y-82.296
X96.266Y-77.978
X96.52Y-74.422
X96.774Y-65.278
X97.536Y-85.344
X97.646Y-82.458
X98.552Y-78.74
X99.06Y-76.708
X99.822Y-67.31
X100.076Y-82.296
X100.838Y-69.088
X101.092Y-44.704
X101.092Y-45.72
X101.6Y-32.766
X101.6Y-33.528
X101.6Y-34.29
X101.6Y-37.084
X101.6Y-38.1
X102.108Y-43.688
X102.108Y-44.704
X102.108Y-45.72
X102.362Y-32.766
X102.362Y-33.528
X102.362Y-84.328
X102.616Y-37.084
X102.616Y-38.1
X102.616Y-74.422
X102.616Y-81.28
X103.124Y-32.766
X103.124Y-44.704
X103.124Y-45.72
X103.301Y-79.389
X103.378Y-72.136
X103.632Y-37.084
X103.632Y-38.1
X103.886Y-99.06
X104.14Y-44.704
X104.14Y-45.72
X104.14Y-109.22
X104.648Y-32.512
X104.648Y-37.084
X104.648Y-38.1
X104.648Y-92.964
X105.004Y-80.518
X105.007Y-33.485
X105.156Y-44.704
X105.156Y-45.72
X105.156Y-51.816
X105.664Y-28.956
X105.664Y-29.972
X105.664Y-32.766
X105.664Y-38.1
X105.664Y-43.688
X105.664Y-139.7
X106.172Y-44.704
X106.172Y-45.72
X106.172Y-91.44
X106.172Y-120.142
X106.426Y-96.012
X106.68Y-28.956
X106.68Y-29.972
X107.188Y-104.648
X107.696Y-28.956
X107.696Y-29.972
X107.696Y-114.808
X107.957Y-81.28
X108.458Y-56.896
X108.712Y-28.956
X108.712Y-29.972
X108.712Y-51.816
X109.22Y-119.888
X109.728Y-28.956
X109.728Y-29.972
X110.236Y-82.804
X110.744Y-28.956
X110.744Y-29.972
X110.998Y-129.794
X112.268Y-136.652
X112.776Y-145.288
X112.776Y-147.32
X113.284Y-127.508
X113.792Y-79.756
X113.792Y-114.554
X114.046Y-83.058
X114.3Y-73.152
X115.57Y-150.114
X116.84Y-116.84
X118.872Y-48.006
X120.142Y-59.944
T2
X78.74Y-71.374
T3
X94.578Y-62.738
X99.314Y-99.822
X99.314Y-104.902
X99.458Y-62.738
X101.854Y-102.362
X107.178Y-89.159
X109.718Y-86.619
X112.258Y-89.159
T4
X84.328Y-56.632
X84.328Y-59.172
X84.328Y-61.712
X84.328Y-64.252
X93.228Y-51.308
X95.768Y-51.308
X98.308Y-51.308
X100.848Y-51.308
X111.252Y-69.088
X111.252Y-71.628
X111.252Y-74.168
X111.252Y-76.708
T5
X75.621Y-27.432
X75.621Y-29.972
X75.621Y-32.512
X75.692Y-39.624
X75.692Y-42.164
X75.692Y-44.704
T6
X75.13Y-99.156
X75.13Y-111.156
X75.13Y-116.936
X75.13Y-128.936
X75.13Y-134.716
X75.13Y-146.716
X75.13Y-152.496
X75.13Y-164.496
X87.33Y-99.156
X87.33Y-111.156
X87.33Y-116.936
X87.33Y-128.936
X87.33Y-134.716
X87.33Y-146.716
X87.33Y-152.496
X87.33Y-164.496
X89.33Y-105.156
X89.33Y-122.936
X89.33Y-140.716
X89.33Y-158.496
T7
X64.516Y-30.988
X64.516Y-36.068
X64.516Y-42.164
X64.516Y-47.244
X64.516Y-53.34
X64.516Y-58.42
X64.516Y-64.516
X64.516Y-69.596
X64.516Y-75.692
X64.516Y-80.772
X64.516Y-86.868
X64.516Y-91.948
X64.516Y-100.076
X64.516Y-105.156
X64.516Y-110.236
X64.516Y-117.856
X64.516Y-122.936
X64.516Y-128.016
X64.516Y-135.636
X64.516Y-140.716
X64.516Y-145.796
X64.516Y-153.416
X64.516Y-158.496
X64.516Y-163.576
X121.412Y-64.516
X121.412Y-69.596
X121.412Y-75.692
X121.412Y-80.772
X121.412Y-86.868
X121.412Y-91.948
X121.412Y-98.044
X121.412Y-103.124
X121.412Y-109.22
X121.412Y-114.3
X121.412Y-120.396
X121.412Y-125.476
X121.412Y-130.556
X121.412Y-136.652
X121.412Y-141.732
X121.412Y-146.812
X121.412Y-152.908
X121.412Y-157.988
X121.412Y-163.068
X121.92Y-32.004
X121.92Y-37.084
T0
M30
