%TF.GenerationSoftware,KiCad,Pcbnew,(6.0.5)*%
%TF.CreationDate,2022-07-22T19:12:55-04:00*%
%TF.ProjectId,LIFFY_KICAD,4c494646-595f-44b4-9943-41442e6b6963,rev?*%
%TF.SameCoordinates,Original*%
%TF.FileFunction,Soldermask,Top*%
%TF.FilePolarity,Negative*%
%FSLAX46Y46*%
G04 Gerber Fmt 4.6, Leading zero omitted, Abs format (unit mm)*
G04 Created by KiCad (PCBNEW (6.0.5)) date 2022-07-22 19:12:55*
%MOMM*%
%LPD*%
G01*
G04 APERTURE LIST*
G04 Aperture macros list*
%AMRoundRect*
0 Rectangle with rounded corners*
0 $1 Rounding radius*
0 $2 $3 $4 $5 $6 $7 $8 $9 X,Y pos of 4 corners*
0 Add a 4 corners polygon primitive as box body*
4,1,4,$2,$3,$4,$5,$6,$7,$8,$9,$2,$3,0*
0 Add four circle primitives for the rounded corners*
1,1,$1+$1,$2,$3*
1,1,$1+$1,$4,$5*
1,1,$1+$1,$6,$7*
1,1,$1+$1,$8,$9*
0 Add four rect primitives between the rounded corners*
20,1,$1+$1,$2,$3,$4,$5,0*
20,1,$1+$1,$4,$5,$6,$7,0*
20,1,$1+$1,$6,$7,$8,$9,0*
20,1,$1+$1,$8,$9,$2,$3,0*%
G04 Aperture macros list end*
%ADD10R,3.000000X3.000000*%
%ADD11C,3.000000*%
%ADD12RoundRect,0.150000X0.150000X-0.825000X0.150000X0.825000X-0.150000X0.825000X-0.150000X-0.825000X0*%
%ADD13C,1.440000*%
%ADD14R,2.000000X1.780000*%
%ADD15RoundRect,0.100000X0.100000X-0.130000X0.100000X0.130000X-0.100000X0.130000X-0.100000X-0.130000X0*%
%ADD16RoundRect,0.100000X-0.130000X-0.100000X0.130000X-0.100000X0.130000X0.100000X-0.130000X0.100000X0*%
%ADD17RoundRect,0.150000X0.512500X0.150000X-0.512500X0.150000X-0.512500X-0.150000X0.512500X-0.150000X0*%
%ADD18R,2.000000X1.905000*%
%ADD19O,2.000000X1.905000*%
%ADD20RoundRect,0.250000X-0.475000X0.250000X-0.475000X-0.250000X0.475000X-0.250000X0.475000X0.250000X0*%
%ADD21RoundRect,0.100000X0.130000X0.100000X-0.130000X0.100000X-0.130000X-0.100000X0.130000X-0.100000X0*%
%ADD22RoundRect,0.150000X-0.150000X0.825000X-0.150000X-0.825000X0.150000X-0.825000X0.150000X0.825000X0*%
%ADD23RoundRect,0.250000X-0.250000X-0.475000X0.250000X-0.475000X0.250000X0.475000X-0.250000X0.475000X0*%
%ADD24C,2.200000*%
%ADD25R,1.700000X1.700000*%
%ADD26O,1.700000X1.700000*%
%ADD27RoundRect,0.100000X-0.100000X0.130000X-0.100000X-0.130000X0.100000X-0.130000X0.100000X0.130000X0*%
%ADD28RoundRect,0.150000X0.825000X0.150000X-0.825000X0.150000X-0.825000X-0.150000X0.825000X-0.150000X0*%
%ADD29R,5.100000X2.350000*%
%ADD30RoundRect,0.250000X0.475000X-0.250000X0.475000X0.250000X-0.475000X0.250000X-0.475000X-0.250000X0*%
%ADD31C,1.500000*%
%ADD32R,2.440000X1.120000*%
%ADD33RoundRect,0.218750X-0.381250X0.218750X-0.381250X-0.218750X0.381250X-0.218750X0.381250X0.218750X0*%
%ADD34RoundRect,0.125000X-0.625000X-0.125000X0.625000X-0.125000X0.625000X0.125000X-0.625000X0.125000X0*%
%ADD35RoundRect,0.125000X-0.125000X-0.625000X0.125000X-0.625000X0.125000X0.625000X-0.125000X0.625000X0*%
G04 APERTURE END LIST*
D10*
%TO.C,J20*%
X64516000Y-117856000D03*
D11*
X64516000Y-122936000D03*
X64516000Y-128016000D03*
%TD*%
D12*
%TO.C,U2*%
X107823000Y-127443000D03*
X109093000Y-127443000D03*
X110363000Y-127443000D03*
X111633000Y-127443000D03*
X111633000Y-122493000D03*
X110363000Y-122493000D03*
X109093000Y-122493000D03*
X107823000Y-122493000D03*
%TD*%
D13*
%TO.C,RV2*%
X99314000Y-99822000D03*
X101854000Y-102362000D03*
X99314000Y-104902000D03*
%TD*%
D10*
%TO.C,J12*%
X64516000Y-64516000D03*
D11*
X64516000Y-69596000D03*
%TD*%
D14*
%TO.C,U3*%
X114046000Y-101346000D03*
X114046000Y-98806000D03*
X106426000Y-98806000D03*
X106426000Y-101346000D03*
%TD*%
D13*
%TO.C,RV1*%
X107178000Y-89159000D03*
X109718000Y-86619000D03*
X112258000Y-89159000D03*
%TD*%
D15*
%TO.C,R17*%
X71628000Y-40452000D03*
X71628000Y-39812000D03*
%TD*%
D16*
%TO.C,R3*%
X106197000Y-51816000D03*
X106837000Y-51816000D03*
%TD*%
D17*
%TO.C,U7*%
X110357500Y-33970000D03*
X110357500Y-33020000D03*
X110357500Y-32070000D03*
X108082500Y-32070000D03*
X108082500Y-33020000D03*
X108082500Y-33970000D03*
%TD*%
D18*
%TO.C,Q2*%
X75692000Y-44704000D03*
D19*
X75692000Y-42164000D03*
X75692000Y-39624000D03*
%TD*%
D20*
%TO.C,C17*%
X105664000Y-41788000D03*
X105664000Y-43688000D03*
%TD*%
D15*
%TO.C,R11*%
X106172000Y-114940000D03*
X106172000Y-114300000D03*
%TD*%
D10*
%TO.C,J10*%
X64516000Y-86868000D03*
D11*
X64516000Y-91948000D03*
%TD*%
D21*
%TO.C,R4*%
X116652000Y-115316000D03*
X116012000Y-115316000D03*
%TD*%
D22*
%TO.C,U8*%
X83693000Y-87949000D03*
X82423000Y-87949000D03*
X81153000Y-87949000D03*
X79883000Y-87949000D03*
X78613000Y-87949000D03*
X77343000Y-87949000D03*
X76073000Y-87949000D03*
X74803000Y-87949000D03*
X74803000Y-92899000D03*
X76073000Y-92899000D03*
X77343000Y-92899000D03*
X78613000Y-92899000D03*
X79883000Y-92899000D03*
X81153000Y-92899000D03*
X82423000Y-92899000D03*
X83693000Y-92899000D03*
%TD*%
D16*
%TO.C,R2*%
X106197000Y-54356000D03*
X106837000Y-54356000D03*
%TD*%
D23*
%TO.C,C8*%
X84902000Y-30480000D03*
X86802000Y-30480000D03*
%TD*%
D11*
%TO.C,K1*%
X89330000Y-158496000D03*
X75130000Y-164496000D03*
X75130000Y-152496000D03*
X87330000Y-152496000D03*
X87330000Y-164496000D03*
%TD*%
D10*
%TO.C,J1*%
X121920000Y-37084000D03*
D11*
X121920000Y-32004000D03*
%TD*%
D16*
%TO.C,C5*%
X101280000Y-81280000D03*
X101920000Y-81280000D03*
%TD*%
%TO.C,R21*%
X114651000Y-72136000D03*
X115291000Y-72136000D03*
%TD*%
%TO.C,R22*%
X93152000Y-46228000D03*
X93792000Y-46228000D03*
%TD*%
D15*
%TO.C,R6*%
X109728000Y-137480000D03*
X109728000Y-136840000D03*
%TD*%
D10*
%TO.C,J17*%
X64516000Y-53340000D03*
D11*
X64516000Y-58420000D03*
%TD*%
D24*
%TO.C,HOLE4*%
X58928000Y-25908000D03*
%TD*%
D10*
%TO.C,J5*%
X121412000Y-163068000D03*
D11*
X121412000Y-157988000D03*
X121412000Y-152908000D03*
%TD*%
D16*
%TO.C,R1*%
X106172000Y-56896000D03*
X106812000Y-56896000D03*
%TD*%
D10*
%TO.C,J18*%
X64516000Y-153416000D03*
D11*
X64516000Y-158496000D03*
X64516000Y-163576000D03*
%TD*%
D24*
%TO.C,HOLE3*%
X124968000Y-25908000D03*
%TD*%
D20*
%TO.C,C16*%
X102108000Y-41722000D03*
X102108000Y-43622000D03*
%TD*%
D25*
%TO.C,J15*%
X111252000Y-76708000D03*
D26*
X111252000Y-74168000D03*
X111252000Y-71628000D03*
X111252000Y-69088000D03*
%TD*%
D10*
%TO.C,J3*%
X121412000Y-146812000D03*
D11*
X121412000Y-141732000D03*
X121412000Y-136652000D03*
%TD*%
D27*
%TO.C,R7*%
X96774000Y-68514000D03*
X96774000Y-69154000D03*
%TD*%
D21*
%TO.C,R5*%
X116144000Y-153416000D03*
X115504000Y-153416000D03*
%TD*%
D10*
%TO.C,J8*%
X121412000Y-69596000D03*
D11*
X121412000Y-64516000D03*
%TD*%
D16*
%TO.C,R20*%
X93152000Y-48768000D03*
X93792000Y-48768000D03*
%TD*%
D27*
%TO.C,C18*%
X111252000Y-146492000D03*
X111252000Y-147132000D03*
%TD*%
D25*
%TO.C,J21*%
X84328000Y-64252000D03*
D26*
X84328000Y-61712000D03*
X84328000Y-59172000D03*
X84328000Y-56632000D03*
%TD*%
D28*
%TO.C,U6*%
X78675000Y-82169000D03*
X78675000Y-80899000D03*
X78675000Y-79629000D03*
X78675000Y-78359000D03*
X78675000Y-77089000D03*
X78675000Y-75819000D03*
X78675000Y-74549000D03*
X78675000Y-73279000D03*
X73725000Y-73279000D03*
X73725000Y-74549000D03*
X73725000Y-75819000D03*
X73725000Y-77089000D03*
X73725000Y-78359000D03*
X73725000Y-79629000D03*
X73725000Y-80899000D03*
X73725000Y-82169000D03*
%TD*%
D11*
%TO.C,K4*%
X89330000Y-105156000D03*
X75130000Y-111156000D03*
X75130000Y-99156000D03*
X87330000Y-99156000D03*
X87330000Y-111156000D03*
%TD*%
D16*
%TO.C,C3*%
X102641000Y-78740000D03*
X103281000Y-78740000D03*
%TD*%
D15*
%TO.C,C10*%
X98552000Y-70612000D03*
X98552000Y-69972000D03*
%TD*%
D25*
%TO.C,J16*%
X93228000Y-51308000D03*
D26*
X95768000Y-51308000D03*
X98308000Y-51308000D03*
X100848000Y-51308000D03*
%TD*%
D22*
%TO.C,U1*%
X111125000Y-139765000D03*
X109855000Y-139765000D03*
X108585000Y-139765000D03*
X107315000Y-139765000D03*
X107315000Y-144715000D03*
X108585000Y-144715000D03*
X109855000Y-144715000D03*
X111125000Y-144715000D03*
%TD*%
D29*
%TO.C,L1*%
X103632000Y-33485000D03*
X103632000Y-37635000D03*
%TD*%
D30*
%TO.C,RV3*%
X86360000Y-77658000D03*
X86360000Y-75758000D03*
%TD*%
D21*
%TO.C,R10*%
X107696000Y-129540000D03*
X107056000Y-129540000D03*
%TD*%
D15*
%TO.C,R14*%
X89916000Y-46548000D03*
X89916000Y-45908000D03*
%TD*%
D27*
%TO.C,C2*%
X96774000Y-66736000D03*
X96774000Y-67376000D03*
%TD*%
D24*
%TO.C,HOLE2*%
X124968000Y-169672000D03*
%TD*%
D15*
%TO.C,R13*%
X84836000Y-46548000D03*
X84836000Y-45908000D03*
%TD*%
D22*
%TO.C,U4*%
X86233000Y-34609000D03*
X84963000Y-34609000D03*
X83693000Y-34609000D03*
X82423000Y-34609000D03*
X82423000Y-39559000D03*
X83693000Y-39559000D03*
X84963000Y-39559000D03*
X86233000Y-39559000D03*
%TD*%
D15*
%TO.C,C1*%
X99060000Y-67376000D03*
X99060000Y-66736000D03*
%TD*%
D10*
%TO.C,J9*%
X121412000Y-103124000D03*
D11*
X121412000Y-98044000D03*
%TD*%
D16*
%TO.C,C4*%
X102641000Y-77724000D03*
X103281000Y-77724000D03*
%TD*%
%TO.C,C9*%
X85720000Y-27432000D03*
X86360000Y-27432000D03*
%TD*%
D27*
%TO.C,C15*%
X107950000Y-35494000D03*
X107950000Y-36134000D03*
%TD*%
D15*
%TO.C,R18*%
X106172000Y-104460000D03*
X106172000Y-103820000D03*
%TD*%
D16*
%TO.C,R23*%
X79944000Y-60706000D03*
X80584000Y-60706000D03*
%TD*%
%TO.C,C7*%
X89759000Y-79756000D03*
X90399000Y-79756000D03*
%TD*%
%TO.C,R19*%
X114488000Y-76708000D03*
X115128000Y-76708000D03*
%TD*%
D20*
%TO.C,C14*%
X113284000Y-32004000D03*
X113284000Y-33904000D03*
%TD*%
D10*
%TO.C,J4*%
X121412000Y-114300000D03*
D11*
X121412000Y-109220000D03*
%TD*%
D10*
%TO.C,J11*%
X64516000Y-75692000D03*
D11*
X64516000Y-80772000D03*
%TD*%
D31*
%TO.C,Y1*%
X94578000Y-62738000D03*
X99458000Y-62738000D03*
%TD*%
D15*
%TO.C,R12*%
X82296000Y-46548000D03*
X82296000Y-45908000D03*
%TD*%
D10*
%TO.C,J14*%
X121412000Y-80772000D03*
D11*
X121412000Y-75692000D03*
%TD*%
D27*
%TO.C,R9*%
X108712000Y-146812000D03*
X108712000Y-147452000D03*
%TD*%
D16*
%TO.C,C11*%
X100772000Y-72136000D03*
X101412000Y-72136000D03*
%TD*%
%TO.C,C6*%
X89759000Y-78740000D03*
X90399000Y-78740000D03*
%TD*%
D14*
%TO.C,U5*%
X114046000Y-111506000D03*
X114046000Y-108966000D03*
X106426000Y-108966000D03*
X106426000Y-111506000D03*
%TD*%
D10*
%TO.C,J2*%
X121412000Y-130556000D03*
D11*
X121412000Y-125476000D03*
X121412000Y-120396000D03*
%TD*%
%TO.C,K3*%
X89330000Y-122936000D03*
X75130000Y-128936000D03*
X75130000Y-116936000D03*
X87330000Y-116936000D03*
X87330000Y-128936000D03*
%TD*%
D16*
%TO.C,R24*%
X79756000Y-58420000D03*
X80396000Y-58420000D03*
%TD*%
D10*
%TO.C,J19*%
X64516000Y-135636000D03*
D11*
X64516000Y-140716000D03*
X64516000Y-145796000D03*
%TD*%
D24*
%TO.C,HOLE1*%
X58928000Y-169672000D03*
%TD*%
D15*
%TO.C,C19*%
X107696000Y-120716000D03*
X107696000Y-120076000D03*
%TD*%
%TO.C,R15*%
X87376000Y-46548000D03*
X87376000Y-45908000D03*
%TD*%
D32*
%TO.C,SW1*%
X125209000Y-57150000D03*
X125209000Y-54610000D03*
X125209000Y-52070000D03*
X125209000Y-49530000D03*
X116599000Y-49530000D03*
X116599000Y-52070000D03*
X116599000Y-54610000D03*
X116599000Y-57150000D03*
%TD*%
D18*
%TO.C,Q1*%
X75621000Y-32512000D03*
D19*
X75621000Y-29972000D03*
X75621000Y-27432000D03*
%TD*%
D33*
%TO.C,L2*%
X86360000Y-80217500D03*
X86360000Y-82342500D03*
%TD*%
D10*
%TO.C,J22*%
X64516000Y-100076000D03*
D11*
X64516000Y-105156000D03*
X64516000Y-110236000D03*
%TD*%
D10*
%TO.C,J7*%
X64516000Y-42164000D03*
D11*
X64516000Y-47244000D03*
%TD*%
%TO.C,K2*%
X89330000Y-140716000D03*
X75130000Y-146716000D03*
X75130000Y-134716000D03*
X87330000Y-134716000D03*
X87330000Y-146716000D03*
%TD*%
D34*
%TO.C,IC1*%
X92345000Y-73908000D03*
X92345000Y-74708000D03*
X92345000Y-75508000D03*
X92345000Y-76308000D03*
X92345000Y-77108000D03*
X92345000Y-77908000D03*
X92345000Y-78708000D03*
X92345000Y-79508000D03*
D35*
X93720000Y-80883000D03*
X94520000Y-80883000D03*
X95320000Y-80883000D03*
X96120000Y-80883000D03*
X96920000Y-80883000D03*
X97720000Y-80883000D03*
X98520000Y-80883000D03*
X99320000Y-80883000D03*
D34*
X100695000Y-79508000D03*
X100695000Y-78708000D03*
X100695000Y-77908000D03*
X100695000Y-77108000D03*
X100695000Y-76308000D03*
X100695000Y-75508000D03*
X100695000Y-74708000D03*
X100695000Y-73908000D03*
D35*
X99320000Y-72533000D03*
X98520000Y-72533000D03*
X97720000Y-72533000D03*
X96920000Y-72533000D03*
X96120000Y-72533000D03*
X95320000Y-72533000D03*
X94520000Y-72533000D03*
X93720000Y-72533000D03*
%TD*%
D10*
%TO.C,J13*%
X64516000Y-30988000D03*
D11*
X64516000Y-36068000D03*
%TD*%
D15*
%TO.C,R16*%
X71628000Y-34519000D03*
X71628000Y-33879000D03*
%TD*%
D10*
%TO.C,J6*%
X121412000Y-91948000D03*
D11*
X121412000Y-86868000D03*
%TD*%
M02*
