%FSLAX45Y45*%
G04 Gerber Fmt 4.5, Leading zero omitted, Abs format (unit mm)*
G04 Created by KiCad (PCBNEW (6.0.5)) date 2022-07-22 19:18:20*
%MOMM*%
%LPD*%
G01*
G04 APERTURE LIST*
%TA.AperFunction,Profile*%
%ADD10C,0.100000*%
%TD*%
%ADD11C,0.200000*%
%ADD12C,0.220000*%
G04 APERTURE END LIST*
D10*
X5588000Y-2286000D02*
X12788000Y-2286000D01*
X12788000Y-2286000D02*
X12788000Y-17286000D01*
X12788000Y-17286000D02*
X5588000Y-17286000D01*
X5588000Y-17286000D02*
X5588000Y-2286000D01*
D11*
D12*
X5782800Y-2480800D02*
X6002800Y-2700800D01*
X6002800Y-2480800D02*
X5782800Y-2700800D01*
X5782800Y-16857200D02*
X6002800Y-17077200D01*
X6002800Y-16857200D02*
X5782800Y-17077200D01*
X12386800Y-2480800D02*
X12606800Y-2700800D01*
X12606800Y-2480800D02*
X12386800Y-2700800D01*
X12386800Y-16857200D02*
X12606800Y-17077200D01*
X12606800Y-16857200D02*
X12386800Y-17077200D01*
D11*
X5840619Y-17601476D02*
X5840619Y-17401476D01*
X5888238Y-17401476D01*
X5916809Y-17411000D01*
X5935857Y-17430048D01*
X5945381Y-17449095D01*
X5954905Y-17487190D01*
X5954905Y-17515762D01*
X5945381Y-17553857D01*
X5935857Y-17572905D01*
X5916809Y-17591952D01*
X5888238Y-17601476D01*
X5840619Y-17601476D01*
X6040619Y-17601476D02*
X6040619Y-17468143D01*
X6040619Y-17506238D02*
X6050143Y-17487190D01*
X6059667Y-17477667D01*
X6078714Y-17468143D01*
X6097762Y-17468143D01*
X6164428Y-17601476D02*
X6164428Y-17468143D01*
X6164428Y-17401476D02*
X6154905Y-17411000D01*
X6164428Y-17420524D01*
X6173952Y-17411000D01*
X6164428Y-17401476D01*
X6164428Y-17420524D01*
X6288238Y-17601476D02*
X6269190Y-17591952D01*
X6259667Y-17572905D01*
X6259667Y-17401476D01*
X6393000Y-17601476D02*
X6373952Y-17591952D01*
X6364428Y-17572905D01*
X6364428Y-17401476D01*
X6621571Y-17601476D02*
X6621571Y-17401476D01*
X6688238Y-17544333D01*
X6754905Y-17401476D01*
X6754905Y-17601476D01*
X6935857Y-17601476D02*
X6935857Y-17496714D01*
X6926333Y-17477667D01*
X6907286Y-17468143D01*
X6869190Y-17468143D01*
X6850143Y-17477667D01*
X6935857Y-17591952D02*
X6916809Y-17601476D01*
X6869190Y-17601476D01*
X6850143Y-17591952D01*
X6840619Y-17572905D01*
X6840619Y-17553857D01*
X6850143Y-17534810D01*
X6869190Y-17525286D01*
X6916809Y-17525286D01*
X6935857Y-17515762D01*
X7031095Y-17468143D02*
X7031095Y-17668143D01*
X7031095Y-17477667D02*
X7050143Y-17468143D01*
X7088238Y-17468143D01*
X7107286Y-17477667D01*
X7116809Y-17487190D01*
X7126333Y-17506238D01*
X7126333Y-17563381D01*
X7116809Y-17582429D01*
X7107286Y-17591952D01*
X7088238Y-17601476D01*
X7050143Y-17601476D01*
X7031095Y-17591952D01*
X7212048Y-17582429D02*
X7221571Y-17591952D01*
X7212048Y-17601476D01*
X7202524Y-17591952D01*
X7212048Y-17582429D01*
X7212048Y-17601476D01*
X7212048Y-17477667D02*
X7221571Y-17487190D01*
X7212048Y-17496714D01*
X7202524Y-17487190D01*
X7212048Y-17477667D01*
X7212048Y-17496714D01*
X5383000Y-17831000D02*
X5583000Y-18031000D01*
X5583000Y-17831000D02*
X5383000Y-18031000D01*
X5831095Y-17840524D02*
X5840619Y-17831000D01*
X5859667Y-17821476D01*
X5907286Y-17821476D01*
X5926333Y-17831000D01*
X5935857Y-17840524D01*
X5945381Y-17859571D01*
X5945381Y-17878619D01*
X5935857Y-17907190D01*
X5821571Y-18021476D01*
X5945381Y-18021476D01*
X6031095Y-18002429D02*
X6040619Y-18011952D01*
X6031095Y-18021476D01*
X6021571Y-18011952D01*
X6031095Y-18002429D01*
X6031095Y-18021476D01*
X6116809Y-17840524D02*
X6126333Y-17831000D01*
X6145381Y-17821476D01*
X6193000Y-17821476D01*
X6212048Y-17831000D01*
X6221571Y-17840524D01*
X6231095Y-17859571D01*
X6231095Y-17878619D01*
X6221571Y-17907190D01*
X6107286Y-18021476D01*
X6231095Y-18021476D01*
X6354905Y-17821476D02*
X6373952Y-17821476D01*
X6393000Y-17831000D01*
X6402524Y-17840524D01*
X6412048Y-17859571D01*
X6421571Y-17897667D01*
X6421571Y-17945286D01*
X6412048Y-17983381D01*
X6402524Y-18002429D01*
X6393000Y-18011952D01*
X6373952Y-18021476D01*
X6354905Y-18021476D01*
X6335857Y-18011952D01*
X6326333Y-18002429D01*
X6316809Y-17983381D01*
X6307286Y-17945286D01*
X6307286Y-17897667D01*
X6316809Y-17859571D01*
X6326333Y-17840524D01*
X6335857Y-17831000D01*
X6354905Y-17821476D01*
X6545381Y-17821476D02*
X6564428Y-17821476D01*
X6583476Y-17831000D01*
X6593000Y-17840524D01*
X6602524Y-17859571D01*
X6612048Y-17897667D01*
X6612048Y-17945286D01*
X6602524Y-17983381D01*
X6593000Y-18002429D01*
X6583476Y-18011952D01*
X6564428Y-18021476D01*
X6545381Y-18021476D01*
X6526333Y-18011952D01*
X6516809Y-18002429D01*
X6507286Y-17983381D01*
X6497762Y-17945286D01*
X6497762Y-17897667D01*
X6507286Y-17859571D01*
X6516809Y-17840524D01*
X6526333Y-17831000D01*
X6545381Y-17821476D01*
X6697762Y-18021476D02*
X6697762Y-17888143D01*
X6697762Y-17907190D02*
X6707286Y-17897667D01*
X6726333Y-17888143D01*
X6754905Y-17888143D01*
X6773952Y-17897667D01*
X6783476Y-17916714D01*
X6783476Y-18021476D01*
X6783476Y-17916714D02*
X6793000Y-17897667D01*
X6812048Y-17888143D01*
X6840619Y-17888143D01*
X6859667Y-17897667D01*
X6869190Y-17916714D01*
X6869190Y-18021476D01*
X6964428Y-18021476D02*
X6964428Y-17888143D01*
X6964428Y-17907190D02*
X6973952Y-17897667D01*
X6993000Y-17888143D01*
X7021571Y-17888143D01*
X7040619Y-17897667D01*
X7050143Y-17916714D01*
X7050143Y-18021476D01*
X7050143Y-17916714D02*
X7059667Y-17897667D01*
X7078714Y-17888143D01*
X7107286Y-17888143D01*
X7126333Y-17897667D01*
X7135857Y-17916714D01*
X7135857Y-18021476D01*
X7526333Y-17811952D02*
X7354905Y-18069095D01*
X7783476Y-17821476D02*
X7802524Y-17821476D01*
X7821571Y-17831000D01*
X7831095Y-17840524D01*
X7840619Y-17859571D01*
X7850143Y-17897667D01*
X7850143Y-17945286D01*
X7840619Y-17983381D01*
X7831095Y-18002429D01*
X7821571Y-18011952D01*
X7802524Y-18021476D01*
X7783476Y-18021476D01*
X7764428Y-18011952D01*
X7754905Y-18002429D01*
X7745381Y-17983381D01*
X7735857Y-17945286D01*
X7735857Y-17897667D01*
X7745381Y-17859571D01*
X7754905Y-17840524D01*
X7764428Y-17831000D01*
X7783476Y-17821476D01*
X7935857Y-18002429D02*
X7945381Y-18011952D01*
X7935857Y-18021476D01*
X7926333Y-18011952D01*
X7935857Y-18002429D01*
X7935857Y-18021476D01*
X8069190Y-17821476D02*
X8088238Y-17821476D01*
X8107286Y-17831000D01*
X8116809Y-17840524D01*
X8126333Y-17859571D01*
X8135857Y-17897667D01*
X8135857Y-17945286D01*
X8126333Y-17983381D01*
X8116809Y-18002429D01*
X8107286Y-18011952D01*
X8088238Y-18021476D01*
X8069190Y-18021476D01*
X8050143Y-18011952D01*
X8040619Y-18002429D01*
X8031095Y-17983381D01*
X8021571Y-17945286D01*
X8021571Y-17897667D01*
X8031095Y-17859571D01*
X8040619Y-17840524D01*
X8050143Y-17831000D01*
X8069190Y-17821476D01*
X8250143Y-17907190D02*
X8231095Y-17897667D01*
X8221571Y-17888143D01*
X8212048Y-17869095D01*
X8212048Y-17859571D01*
X8221571Y-17840524D01*
X8231095Y-17831000D01*
X8250143Y-17821476D01*
X8288238Y-17821476D01*
X8307286Y-17831000D01*
X8316809Y-17840524D01*
X8326333Y-17859571D01*
X8326333Y-17869095D01*
X8316809Y-17888143D01*
X8307286Y-17897667D01*
X8288238Y-17907190D01*
X8250143Y-17907190D01*
X8231095Y-17916714D01*
X8221571Y-17926238D01*
X8212048Y-17945286D01*
X8212048Y-17983381D01*
X8221571Y-18002429D01*
X8231095Y-18011952D01*
X8250143Y-18021476D01*
X8288238Y-18021476D01*
X8307286Y-18011952D01*
X8316809Y-18002429D01*
X8326333Y-17983381D01*
X8326333Y-17945286D01*
X8316809Y-17926238D01*
X8307286Y-17916714D01*
X8288238Y-17907190D01*
X8497762Y-17821476D02*
X8459667Y-17821476D01*
X8440619Y-17831000D01*
X8431095Y-17840524D01*
X8412048Y-17869095D01*
X8402524Y-17907190D01*
X8402524Y-17983381D01*
X8412048Y-18002429D01*
X8421571Y-18011952D01*
X8440619Y-18021476D01*
X8478714Y-18021476D01*
X8497762Y-18011952D01*
X8507286Y-18002429D01*
X8516810Y-17983381D01*
X8516810Y-17935762D01*
X8507286Y-17916714D01*
X8497762Y-17907190D01*
X8478714Y-17897667D01*
X8440619Y-17897667D01*
X8421571Y-17907190D01*
X8412048Y-17916714D01*
X8402524Y-17935762D01*
X8688238Y-17821476D02*
X8650143Y-17821476D01*
X8631095Y-17831000D01*
X8621571Y-17840524D01*
X8602524Y-17869095D01*
X8593000Y-17907190D01*
X8593000Y-17983381D01*
X8602524Y-18002429D01*
X8612048Y-18011952D01*
X8631095Y-18021476D01*
X8669190Y-18021476D01*
X8688238Y-18011952D01*
X8697762Y-18002429D01*
X8707286Y-17983381D01*
X8707286Y-17935762D01*
X8697762Y-17916714D01*
X8688238Y-17907190D01*
X8669190Y-17897667D01*
X8631095Y-17897667D01*
X8612048Y-17907190D01*
X8602524Y-17916714D01*
X8593000Y-17935762D01*
X8783476Y-17821476D02*
X8783476Y-17859571D01*
X8859667Y-17821476D02*
X8859667Y-17859571D01*
X9154905Y-18097667D02*
X9145381Y-18088143D01*
X9126333Y-18059571D01*
X9116810Y-18040524D01*
X9107286Y-18011952D01*
X9097762Y-17964333D01*
X9097762Y-17926238D01*
X9107286Y-17878619D01*
X9116810Y-17850048D01*
X9126333Y-17831000D01*
X9145381Y-17802429D01*
X9154905Y-17792905D01*
X9316810Y-17888143D02*
X9316810Y-18021476D01*
X9269190Y-17811952D02*
X9221571Y-17954810D01*
X9345381Y-17954810D01*
X9573952Y-18021476D02*
X9573952Y-17821476D01*
X9659667Y-18021476D02*
X9659667Y-17916714D01*
X9650143Y-17897667D01*
X9631095Y-17888143D01*
X9602524Y-17888143D01*
X9583476Y-17897667D01*
X9573952Y-17907190D01*
X9783476Y-18021476D02*
X9764429Y-18011952D01*
X9754905Y-18002429D01*
X9745381Y-17983381D01*
X9745381Y-17926238D01*
X9754905Y-17907190D01*
X9764429Y-17897667D01*
X9783476Y-17888143D01*
X9812048Y-17888143D01*
X9831095Y-17897667D01*
X9840619Y-17907190D01*
X9850143Y-17926238D01*
X9850143Y-17983381D01*
X9840619Y-18002429D01*
X9831095Y-18011952D01*
X9812048Y-18021476D01*
X9783476Y-18021476D01*
X9964429Y-18021476D02*
X9945381Y-18011952D01*
X9935857Y-17992905D01*
X9935857Y-17821476D01*
X10116810Y-18011952D02*
X10097762Y-18021476D01*
X10059667Y-18021476D01*
X10040619Y-18011952D01*
X10031095Y-17992905D01*
X10031095Y-17916714D01*
X10040619Y-17897667D01*
X10059667Y-17888143D01*
X10097762Y-17888143D01*
X10116810Y-17897667D01*
X10126333Y-17916714D01*
X10126333Y-17935762D01*
X10031095Y-17954810D01*
X10202524Y-18011952D02*
X10221571Y-18021476D01*
X10259667Y-18021476D01*
X10278714Y-18011952D01*
X10288238Y-17992905D01*
X10288238Y-17983381D01*
X10278714Y-17964333D01*
X10259667Y-17954810D01*
X10231095Y-17954810D01*
X10212048Y-17945286D01*
X10202524Y-17926238D01*
X10202524Y-17916714D01*
X10212048Y-17897667D01*
X10231095Y-17888143D01*
X10259667Y-17888143D01*
X10278714Y-17897667D01*
X10354905Y-18097667D02*
X10364429Y-18088143D01*
X10383476Y-18059571D01*
X10393000Y-18040524D01*
X10402524Y-18011952D01*
X10412048Y-17964333D01*
X10412048Y-17926238D01*
X10402524Y-17878619D01*
X10393000Y-17850048D01*
X10383476Y-17831000D01*
X10364429Y-17802429D01*
X10354905Y-17792905D01*
X10716810Y-18097667D02*
X10707286Y-18088143D01*
X10688238Y-18059571D01*
X10678714Y-18040524D01*
X10669190Y-18011952D01*
X10659667Y-17964333D01*
X10659667Y-17926238D01*
X10669190Y-17878619D01*
X10678714Y-17850048D01*
X10688238Y-17831000D01*
X10707286Y-17802429D01*
X10716810Y-17792905D01*
X10793000Y-17888143D02*
X10793000Y-18021476D01*
X10793000Y-17907190D02*
X10802524Y-17897667D01*
X10821571Y-17888143D01*
X10850143Y-17888143D01*
X10869190Y-17897667D01*
X10878714Y-17916714D01*
X10878714Y-18021476D01*
X11002524Y-18021476D02*
X10983476Y-18011952D01*
X10973952Y-18002429D01*
X10964429Y-17983381D01*
X10964429Y-17926238D01*
X10973952Y-17907190D01*
X10983476Y-17897667D01*
X11002524Y-17888143D01*
X11031095Y-17888143D01*
X11050143Y-17897667D01*
X11059667Y-17907190D01*
X11069190Y-17926238D01*
X11069190Y-17983381D01*
X11059667Y-18002429D01*
X11050143Y-18011952D01*
X11031095Y-18021476D01*
X11002524Y-18021476D01*
X11126333Y-17888143D02*
X11202524Y-17888143D01*
X11154905Y-17821476D02*
X11154905Y-17992905D01*
X11164429Y-18011952D01*
X11183476Y-18021476D01*
X11202524Y-18021476D01*
X11421571Y-17888143D02*
X11421571Y-18088143D01*
X11421571Y-17897667D02*
X11440619Y-17888143D01*
X11478714Y-17888143D01*
X11497762Y-17897667D01*
X11507286Y-17907190D01*
X11516809Y-17926238D01*
X11516809Y-17983381D01*
X11507286Y-18002429D01*
X11497762Y-18011952D01*
X11478714Y-18021476D01*
X11440619Y-18021476D01*
X11421571Y-18011952D01*
X11631095Y-18021476D02*
X11612048Y-18011952D01*
X11602524Y-17992905D01*
X11602524Y-17821476D01*
X11793000Y-18021476D02*
X11793000Y-17916714D01*
X11783476Y-17897667D01*
X11764428Y-17888143D01*
X11726333Y-17888143D01*
X11707286Y-17897667D01*
X11793000Y-18011952D02*
X11773952Y-18021476D01*
X11726333Y-18021476D01*
X11707286Y-18011952D01*
X11697762Y-17992905D01*
X11697762Y-17973857D01*
X11707286Y-17954810D01*
X11726333Y-17945286D01*
X11773952Y-17945286D01*
X11793000Y-17935762D01*
X11859667Y-17888143D02*
X11935857Y-17888143D01*
X11888238Y-17821476D02*
X11888238Y-17992905D01*
X11897762Y-18011952D01*
X11916809Y-18021476D01*
X11935857Y-18021476D01*
X12078714Y-18011952D02*
X12059667Y-18021476D01*
X12021571Y-18021476D01*
X12002524Y-18011952D01*
X11993000Y-17992905D01*
X11993000Y-17916714D01*
X12002524Y-17897667D01*
X12021571Y-17888143D01*
X12059667Y-17888143D01*
X12078714Y-17897667D01*
X12088238Y-17916714D01*
X12088238Y-17935762D01*
X11993000Y-17954810D01*
X12259667Y-18021476D02*
X12259667Y-17821476D01*
X12259667Y-18011952D02*
X12240619Y-18021476D01*
X12202524Y-18021476D01*
X12183476Y-18011952D01*
X12173952Y-18002429D01*
X12164428Y-17983381D01*
X12164428Y-17926238D01*
X12173952Y-17907190D01*
X12183476Y-17897667D01*
X12202524Y-17888143D01*
X12240619Y-17888143D01*
X12259667Y-17897667D01*
X12335857Y-18097667D02*
X12345381Y-18088143D01*
X12364428Y-18059571D01*
X12373952Y-18040524D01*
X12383476Y-18011952D01*
X12393000Y-17964333D01*
X12393000Y-17926238D01*
X12383476Y-17878619D01*
X12373952Y-17850048D01*
X12364428Y-17831000D01*
X12345381Y-17802429D01*
X12335857Y-17792905D01*
M02*
