%TF.GenerationSoftware,KiCad,Pcbnew,(6.0.5)*%
%TF.CreationDate,2022-07-22T19:12:55-04:00*%
%TF.ProjectId,LIFFY_KICAD,4c494646-595f-44b4-9943-41442e6b6963,rev?*%
%TF.SameCoordinates,Original*%
%TF.FileFunction,Legend,Top*%
%TF.FilePolarity,Positive*%
%FSLAX46Y46*%
G04 Gerber Fmt 4.6, Leading zero omitted, Abs format (unit mm)*
G04 Created by KiCad (PCBNEW (6.0.5)) date 2022-07-22 19:12:55*
%MOMM*%
%LPD*%
G01*
G04 APERTURE LIST*
%ADD10C,0.127000*%
%ADD11C,0.150000*%
%ADD12C,0.101600*%
%ADD13C,0.120000*%
G04 APERTURE END LIST*
D10*
X127090714Y-88101714D02*
X127090714Y-88464571D01*
X126328714Y-88464571D01*
X126328714Y-87956571D02*
X127090714Y-87702571D01*
X126328714Y-87448571D01*
X127090714Y-86831714D02*
X127090714Y-87194571D01*
X126328714Y-87194571D01*
X127090714Y-86577714D02*
X126328714Y-86577714D01*
X126691571Y-86577714D02*
X126691571Y-86142285D01*
X127090714Y-86142285D02*
X126328714Y-86142285D01*
X127090714Y-85779428D02*
X126328714Y-85779428D01*
D11*
X58475619Y-86248952D02*
X58475619Y-85677523D01*
X58475619Y-85963238D02*
X59475619Y-85963238D01*
X59332761Y-85868000D01*
X59237523Y-85772761D01*
X59189904Y-85677523D01*
X59380380Y-86629904D02*
X59428000Y-86677523D01*
X59475619Y-86772761D01*
X59475619Y-87010857D01*
X59428000Y-87106095D01*
X59380380Y-87153714D01*
X59285142Y-87201333D01*
X59189904Y-87201333D01*
X59047047Y-87153714D01*
X58475619Y-86582285D01*
X58475619Y-87201333D01*
X59475619Y-87487047D02*
X58475619Y-87820380D01*
X59475619Y-88153714D01*
D10*
X126365000Y-104321428D02*
X126328714Y-104394000D01*
X126328714Y-104502857D01*
X126365000Y-104611714D01*
X126437571Y-104684285D01*
X126510142Y-104720571D01*
X126655285Y-104756857D01*
X126764142Y-104756857D01*
X126909285Y-104720571D01*
X126981857Y-104684285D01*
X127054428Y-104611714D01*
X127090714Y-104502857D01*
X127090714Y-104430285D01*
X127054428Y-104321428D01*
X127018142Y-104285142D01*
X126764142Y-104285142D01*
X126764142Y-104430285D01*
X127090714Y-103958571D02*
X126328714Y-103958571D01*
X127090714Y-103523142D01*
X126328714Y-103523142D01*
X127090714Y-103160285D02*
X126328714Y-103160285D01*
X126328714Y-102978857D01*
X126365000Y-102870000D01*
X126437571Y-102797428D01*
X126510142Y-102761142D01*
X126655285Y-102724857D01*
X126764142Y-102724857D01*
X126909285Y-102761142D01*
X126981857Y-102797428D01*
X127054428Y-102870000D01*
X127090714Y-102978857D01*
X127090714Y-103160285D01*
X127090714Y-101999142D02*
X127090714Y-102434571D01*
X127090714Y-102216857D02*
X126328714Y-102216857D01*
X126437571Y-102289428D01*
X126510142Y-102362000D01*
X126546428Y-102434571D01*
D11*
X58475619Y-162552190D02*
X59475619Y-162552190D01*
X58475619Y-163123619D01*
X59475619Y-163123619D01*
X58570857Y-163599809D02*
X58523238Y-163647428D01*
X58475619Y-163599809D01*
X58523238Y-163552190D01*
X58570857Y-163599809D01*
X58475619Y-163599809D01*
X58570857Y-164647428D02*
X58523238Y-164599809D01*
X58475619Y-164456952D01*
X58475619Y-164361714D01*
X58523238Y-164218857D01*
X58618476Y-164123619D01*
X58713714Y-164076000D01*
X58904190Y-164028380D01*
X59047047Y-164028380D01*
X59237523Y-164076000D01*
X59332761Y-164123619D01*
X59428000Y-164218857D01*
X59475619Y-164361714D01*
X59475619Y-164456952D01*
X59428000Y-164599809D01*
X59380380Y-164647428D01*
X58475619Y-126992190D02*
X59475619Y-126992190D01*
X58475619Y-127563619D01*
X59475619Y-127563619D01*
X58570857Y-128039809D02*
X58523238Y-128087428D01*
X58475619Y-128039809D01*
X58523238Y-127992190D01*
X58570857Y-128039809D01*
X58475619Y-128039809D01*
X58570857Y-129087428D02*
X58523238Y-129039809D01*
X58475619Y-128896952D01*
X58475619Y-128801714D01*
X58523238Y-128658857D01*
X58618476Y-128563619D01*
X58713714Y-128516000D01*
X58904190Y-128468380D01*
X59047047Y-128468380D01*
X59237523Y-128516000D01*
X59332761Y-128563619D01*
X59428000Y-128658857D01*
X59475619Y-128801714D01*
X59475619Y-128896952D01*
X59428000Y-129039809D01*
X59380380Y-129087428D01*
X58475619Y-134588380D02*
X59475619Y-134588380D01*
X58475619Y-135159809D01*
X59475619Y-135159809D01*
X58570857Y-135636000D02*
X58523238Y-135683619D01*
X58475619Y-135636000D01*
X58523238Y-135588380D01*
X58570857Y-135636000D01*
X58475619Y-135636000D01*
X59475619Y-136302666D02*
X59475619Y-136493142D01*
X59428000Y-136588380D01*
X59332761Y-136683619D01*
X59142285Y-136731238D01*
X58808952Y-136731238D01*
X58618476Y-136683619D01*
X58523238Y-136588380D01*
X58475619Y-136493142D01*
X58475619Y-136302666D01*
X58523238Y-136207428D01*
X58618476Y-136112190D01*
X58808952Y-136064571D01*
X59142285Y-136064571D01*
X59332761Y-136112190D01*
X59428000Y-136207428D01*
X59475619Y-136302666D01*
D12*
X93351047Y-53754261D02*
X93048666Y-53754261D01*
X93018428Y-54056642D01*
X93048666Y-54026404D01*
X93109142Y-53996166D01*
X93260333Y-53996166D01*
X93320809Y-54026404D01*
X93351047Y-54056642D01*
X93381285Y-54117119D01*
X93381285Y-54268309D01*
X93351047Y-54328785D01*
X93320809Y-54359023D01*
X93260333Y-54389261D01*
X93109142Y-54389261D01*
X93048666Y-54359023D01*
X93018428Y-54328785D01*
X93562714Y-53754261D02*
X93774380Y-54389261D01*
X93986047Y-53754261D01*
D11*
X58316857Y-157710285D02*
X58269238Y-157662666D01*
X58221619Y-157519809D01*
X58221619Y-157424571D01*
X58269238Y-157281714D01*
X58364476Y-157186476D01*
X58459714Y-157138857D01*
X58650190Y-157091238D01*
X58793047Y-157091238D01*
X58983523Y-157138857D01*
X59078761Y-157186476D01*
X59174000Y-157281714D01*
X59221619Y-157424571D01*
X59221619Y-157519809D01*
X59174000Y-157662666D01*
X59126380Y-157710285D01*
X59221619Y-158329333D02*
X59221619Y-158519809D01*
X59174000Y-158615047D01*
X59078761Y-158710285D01*
X58888285Y-158757904D01*
X58554952Y-158757904D01*
X58364476Y-158710285D01*
X58269238Y-158615047D01*
X58221619Y-158519809D01*
X58221619Y-158329333D01*
X58269238Y-158234095D01*
X58364476Y-158138857D01*
X58554952Y-158091238D01*
X58888285Y-158091238D01*
X59078761Y-158138857D01*
X59174000Y-158234095D01*
X59221619Y-158329333D01*
X58221619Y-159186476D02*
X59221619Y-159186476D01*
X58507333Y-159519809D01*
X59221619Y-159853142D01*
X58221619Y-159853142D01*
D12*
X58583285Y-35850285D02*
X58583285Y-35414857D01*
X58583285Y-35632571D02*
X59345285Y-35632571D01*
X59236428Y-35560000D01*
X59163857Y-35487428D01*
X59127571Y-35414857D01*
X59272714Y-36140571D02*
X59309000Y-36176857D01*
X59345285Y-36249428D01*
X59345285Y-36430857D01*
X59309000Y-36503428D01*
X59272714Y-36539714D01*
X59200142Y-36576000D01*
X59127571Y-36576000D01*
X59018714Y-36539714D01*
X58583285Y-36104285D01*
X58583285Y-36576000D01*
X59345285Y-36793714D02*
X58583285Y-37047714D01*
X59345285Y-37301714D01*
D10*
X126975809Y-110647238D02*
X126975809Y-110889142D01*
X126467809Y-110889142D01*
X126975809Y-110477904D02*
X126467809Y-110477904D01*
X126467809Y-110356952D01*
X126492000Y-110284380D01*
X126540380Y-110236000D01*
X126588761Y-110211809D01*
X126685523Y-110187619D01*
X126758095Y-110187619D01*
X126854857Y-110211809D01*
X126903238Y-110236000D01*
X126951619Y-110284380D01*
X126975809Y-110356952D01*
X126975809Y-110477904D01*
X126975809Y-109679619D02*
X126733904Y-109848952D01*
X126975809Y-109969904D02*
X126467809Y-109969904D01*
X126467809Y-109776380D01*
X126492000Y-109728000D01*
X126516190Y-109703809D01*
X126564571Y-109679619D01*
X126637142Y-109679619D01*
X126685523Y-109703809D01*
X126709714Y-109728000D01*
X126733904Y-109776380D01*
X126733904Y-109969904D01*
X127024190Y-109582857D02*
X127024190Y-109195809D01*
X126975809Y-109074857D02*
X126467809Y-109074857D01*
X126467809Y-108881333D01*
X126492000Y-108832952D01*
X126516190Y-108808761D01*
X126564571Y-108784571D01*
X126637142Y-108784571D01*
X126685523Y-108808761D01*
X126709714Y-108832952D01*
X126733904Y-108881333D01*
X126733904Y-109074857D01*
X126975809Y-108566857D02*
X126467809Y-108566857D01*
X126975809Y-108324952D02*
X126467809Y-108324952D01*
X126975809Y-108034666D01*
X126467809Y-108034666D01*
X126975809Y-107526666D02*
X126975809Y-107816952D01*
X126975809Y-107671809D02*
X126467809Y-107671809D01*
X126540380Y-107720190D01*
X126588761Y-107768571D01*
X126612952Y-107816952D01*
D12*
X86774261Y-64128952D02*
X86774261Y-64431333D01*
X87076642Y-64461571D01*
X87046404Y-64431333D01*
X87016166Y-64370857D01*
X87016166Y-64219666D01*
X87046404Y-64159190D01*
X87076642Y-64128952D01*
X87137119Y-64098714D01*
X87288309Y-64098714D01*
X87348785Y-64128952D01*
X87379023Y-64159190D01*
X87409261Y-64219666D01*
X87409261Y-64370857D01*
X87379023Y-64431333D01*
X87348785Y-64461571D01*
X86774261Y-63917285D02*
X87409261Y-63705619D01*
X86774261Y-63493952D01*
D10*
X126365000Y-81606571D02*
X126328714Y-81679142D01*
X126328714Y-81788000D01*
X126365000Y-81896857D01*
X126437571Y-81969428D01*
X126510142Y-82005714D01*
X126655285Y-82042000D01*
X126764142Y-82042000D01*
X126909285Y-82005714D01*
X126981857Y-81969428D01*
X127054428Y-81896857D01*
X127090714Y-81788000D01*
X127090714Y-81715428D01*
X127054428Y-81606571D01*
X127018142Y-81570285D01*
X126764142Y-81570285D01*
X126764142Y-81715428D01*
X127090714Y-81243714D02*
X126328714Y-81243714D01*
X127090714Y-80808285D01*
X126328714Y-80808285D01*
X127090714Y-80445428D02*
X126328714Y-80445428D01*
X126328714Y-80264000D01*
X126365000Y-80155142D01*
X126437571Y-80082571D01*
X126510142Y-80046285D01*
X126655285Y-80010000D01*
X126764142Y-80010000D01*
X126909285Y-80046285D01*
X126981857Y-80082571D01*
X127054428Y-80155142D01*
X127090714Y-80264000D01*
X127090714Y-80445428D01*
D11*
X58475619Y-109212190D02*
X59475619Y-109212190D01*
X58475619Y-109783619D01*
X59475619Y-109783619D01*
X58570857Y-110259809D02*
X58523238Y-110307428D01*
X58475619Y-110259809D01*
X58523238Y-110212190D01*
X58570857Y-110259809D01*
X58475619Y-110259809D01*
X58570857Y-111307428D02*
X58523238Y-111259809D01*
X58475619Y-111116952D01*
X58475619Y-111021714D01*
X58523238Y-110878857D01*
X58618476Y-110783619D01*
X58713714Y-110736000D01*
X58904190Y-110688380D01*
X59047047Y-110688380D01*
X59237523Y-110736000D01*
X59332761Y-110783619D01*
X59428000Y-110878857D01*
X59475619Y-111021714D01*
X59475619Y-111116952D01*
X59428000Y-111259809D01*
X59380380Y-111307428D01*
D12*
X127483809Y-54984952D02*
X126975809Y-54984952D01*
X126975809Y-54864000D01*
X127000000Y-54791428D01*
X127048380Y-54743047D01*
X127096761Y-54718857D01*
X127193523Y-54694666D01*
X127266095Y-54694666D01*
X127362857Y-54718857D01*
X127411238Y-54743047D01*
X127459619Y-54791428D01*
X127483809Y-54864000D01*
X127483809Y-54984952D01*
X127024190Y-54501142D02*
X127000000Y-54476952D01*
X126975809Y-54428571D01*
X126975809Y-54307619D01*
X127000000Y-54259238D01*
X127024190Y-54235047D01*
X127072571Y-54210857D01*
X127120952Y-54210857D01*
X127193523Y-54235047D01*
X127483809Y-54525333D01*
X127483809Y-54210857D01*
X86804500Y-57125809D02*
X86774261Y-57186285D01*
X86774261Y-57277000D01*
X86804500Y-57367714D01*
X86864976Y-57428190D01*
X86925452Y-57458428D01*
X87046404Y-57488666D01*
X87137119Y-57488666D01*
X87258071Y-57458428D01*
X87318547Y-57428190D01*
X87379023Y-57367714D01*
X87409261Y-57277000D01*
X87409261Y-57216523D01*
X87379023Y-57125809D01*
X87348785Y-57095571D01*
X87137119Y-57095571D01*
X87137119Y-57216523D01*
X87409261Y-56823428D02*
X86774261Y-56823428D01*
X87409261Y-56460571D01*
X86774261Y-56460571D01*
X87409261Y-56158190D02*
X86774261Y-56158190D01*
X86774261Y-56007000D01*
X86804500Y-55916285D01*
X86864976Y-55855809D01*
X86925452Y-55825571D01*
X87046404Y-55795333D01*
X87137119Y-55795333D01*
X87258071Y-55825571D01*
X87318547Y-55855809D01*
X87379023Y-55916285D01*
X87409261Y-56007000D01*
X87409261Y-56158190D01*
X108412642Y-72535142D02*
X108442880Y-72444428D01*
X108473119Y-72414190D01*
X108533595Y-72383952D01*
X108624309Y-72383952D01*
X108684785Y-72414190D01*
X108715023Y-72444428D01*
X108745261Y-72504904D01*
X108745261Y-72746809D01*
X108110261Y-72746809D01*
X108110261Y-72535142D01*
X108140500Y-72474666D01*
X108170738Y-72444428D01*
X108231214Y-72414190D01*
X108291690Y-72414190D01*
X108352166Y-72444428D01*
X108382404Y-72474666D01*
X108412642Y-72535142D01*
X108412642Y-72746809D01*
X108745261Y-72111809D02*
X108110261Y-72111809D01*
X108745261Y-71748952D02*
X108382404Y-72021095D01*
X108110261Y-71748952D02*
X108473119Y-72111809D01*
X108140500Y-71144190D02*
X108110261Y-71204666D01*
X108110261Y-71295380D01*
X108140500Y-71386095D01*
X108200976Y-71446571D01*
X108261452Y-71476809D01*
X108382404Y-71507047D01*
X108473119Y-71507047D01*
X108594071Y-71476809D01*
X108654547Y-71446571D01*
X108715023Y-71386095D01*
X108745261Y-71295380D01*
X108745261Y-71234904D01*
X108715023Y-71144190D01*
X108684785Y-71113952D01*
X108473119Y-71113952D01*
X108473119Y-71234904D01*
X108745261Y-70841809D02*
X108110261Y-70841809D01*
X108110261Y-70690619D01*
X108140500Y-70599904D01*
X108200976Y-70539428D01*
X108261452Y-70509190D01*
X108382404Y-70478952D01*
X108473119Y-70478952D01*
X108594071Y-70509190D01*
X108654547Y-70539428D01*
X108715023Y-70599904D01*
X108745261Y-70690619D01*
X108745261Y-70841809D01*
X127483809Y-57524952D02*
X126975809Y-57524952D01*
X126975809Y-57404000D01*
X127000000Y-57331428D01*
X127048380Y-57283047D01*
X127096761Y-57258857D01*
X127193523Y-57234666D01*
X127266095Y-57234666D01*
X127362857Y-57258857D01*
X127411238Y-57283047D01*
X127459619Y-57331428D01*
X127483809Y-57404000D01*
X127483809Y-57524952D01*
X127483809Y-56750857D02*
X127483809Y-57041142D01*
X127483809Y-56896000D02*
X126975809Y-56896000D01*
X127048380Y-56944380D01*
X127096761Y-56992761D01*
X127120952Y-57041142D01*
D10*
X126074714Y-144072428D02*
X126074714Y-143637000D01*
X126836714Y-143854714D02*
X126074714Y-143854714D01*
X126836714Y-143383000D02*
X126074714Y-143383000D01*
X126074714Y-143201571D01*
X126111000Y-143092714D01*
X126183571Y-143020142D01*
X126256142Y-142983857D01*
X126401285Y-142947571D01*
X126510142Y-142947571D01*
X126655285Y-142983857D01*
X126727857Y-143020142D01*
X126800428Y-143092714D01*
X126836714Y-143201571D01*
X126836714Y-143383000D01*
X126800428Y-142657285D02*
X126836714Y-142548428D01*
X126836714Y-142367000D01*
X126800428Y-142294428D01*
X126764142Y-142258142D01*
X126691571Y-142221857D01*
X126619000Y-142221857D01*
X126546428Y-142258142D01*
X126510142Y-142294428D01*
X126473857Y-142367000D01*
X126437571Y-142512142D01*
X126401285Y-142584714D01*
X126365000Y-142621000D01*
X126292428Y-142657285D01*
X126219857Y-142657285D01*
X126147285Y-142621000D01*
X126111000Y-142584714D01*
X126074714Y-142512142D01*
X126074714Y-142330714D01*
X126111000Y-142221857D01*
X126836714Y-141314714D02*
X126074714Y-141314714D01*
X126836714Y-140951857D02*
X126074714Y-140951857D01*
X126836714Y-140516428D01*
X126074714Y-140516428D01*
X126365000Y-93399428D02*
X126328714Y-93472000D01*
X126328714Y-93580857D01*
X126365000Y-93689714D01*
X126437571Y-93762285D01*
X126510142Y-93798571D01*
X126655285Y-93834857D01*
X126764142Y-93834857D01*
X126909285Y-93798571D01*
X126981857Y-93762285D01*
X127054428Y-93689714D01*
X127090714Y-93580857D01*
X127090714Y-93508285D01*
X127054428Y-93399428D01*
X127018142Y-93363142D01*
X126764142Y-93363142D01*
X126764142Y-93508285D01*
X127090714Y-93036571D02*
X126328714Y-93036571D01*
X127090714Y-92601142D01*
X126328714Y-92601142D01*
X127090714Y-92238285D02*
X126328714Y-92238285D01*
X126328714Y-92056857D01*
X126365000Y-91948000D01*
X126437571Y-91875428D01*
X126510142Y-91839142D01*
X126655285Y-91802857D01*
X126764142Y-91802857D01*
X126909285Y-91839142D01*
X126981857Y-91875428D01*
X127054428Y-91948000D01*
X127090714Y-92056857D01*
X127090714Y-92238285D01*
X127090714Y-91077142D02*
X127090714Y-91512571D01*
X127090714Y-91294857D02*
X126328714Y-91294857D01*
X126437571Y-91367428D01*
X126510142Y-91440000D01*
X126546428Y-91512571D01*
D12*
X108140500Y-69317809D02*
X108110261Y-69378285D01*
X108110261Y-69469000D01*
X108140500Y-69559714D01*
X108200976Y-69620190D01*
X108261452Y-69650428D01*
X108382404Y-69680666D01*
X108473119Y-69680666D01*
X108594071Y-69650428D01*
X108654547Y-69620190D01*
X108715023Y-69559714D01*
X108745261Y-69469000D01*
X108745261Y-69408523D01*
X108715023Y-69317809D01*
X108684785Y-69287571D01*
X108473119Y-69287571D01*
X108473119Y-69408523D01*
X108745261Y-69015428D02*
X108110261Y-69015428D01*
X108745261Y-68652571D01*
X108110261Y-68652571D01*
X108745261Y-68350190D02*
X108110261Y-68350190D01*
X108110261Y-68199000D01*
X108140500Y-68108285D01*
X108200976Y-68047809D01*
X108261452Y-68017571D01*
X108382404Y-67987333D01*
X108473119Y-67987333D01*
X108594071Y-68017571D01*
X108654547Y-68047809D01*
X108715023Y-68108285D01*
X108745261Y-68199000D01*
X108745261Y-68350190D01*
D11*
X58475619Y-99028380D02*
X59475619Y-99028380D01*
X58475619Y-99599809D01*
X59475619Y-99599809D01*
X58570857Y-100076000D02*
X58523238Y-100123619D01*
X58475619Y-100076000D01*
X58523238Y-100028380D01*
X58570857Y-100076000D01*
X58475619Y-100076000D01*
X59475619Y-100742666D02*
X59475619Y-100933142D01*
X59428000Y-101028380D01*
X59332761Y-101123619D01*
X59142285Y-101171238D01*
X58808952Y-101171238D01*
X58618476Y-101123619D01*
X58523238Y-101028380D01*
X58475619Y-100933142D01*
X58475619Y-100742666D01*
X58523238Y-100647428D01*
X58618476Y-100552190D01*
X58808952Y-100504571D01*
X59142285Y-100504571D01*
X59332761Y-100552190D01*
X59428000Y-100647428D01*
X59475619Y-100742666D01*
D10*
X126111000Y-147900571D02*
X126074714Y-147973142D01*
X126074714Y-148082000D01*
X126111000Y-148190857D01*
X126183571Y-148263428D01*
X126256142Y-148299714D01*
X126401285Y-148336000D01*
X126510142Y-148336000D01*
X126655285Y-148299714D01*
X126727857Y-148263428D01*
X126800428Y-148190857D01*
X126836714Y-148082000D01*
X126836714Y-148009428D01*
X126800428Y-147900571D01*
X126764142Y-147864285D01*
X126510142Y-147864285D01*
X126510142Y-148009428D01*
X126836714Y-147537714D02*
X126074714Y-147537714D01*
X126836714Y-147102285D01*
X126074714Y-147102285D01*
X126836714Y-146739428D02*
X126074714Y-146739428D01*
X126074714Y-146558000D01*
X126111000Y-146449142D01*
X126183571Y-146376571D01*
X126256142Y-146340285D01*
X126401285Y-146304000D01*
X126510142Y-146304000D01*
X126655285Y-146340285D01*
X126727857Y-146376571D01*
X126800428Y-146449142D01*
X126836714Y-146558000D01*
X126836714Y-146739428D01*
D12*
X59650992Y-69100095D02*
X59650992Y-69583904D01*
X58386738Y-68570928D02*
X59021738Y-68570928D01*
X58568166Y-68782595D01*
X59021738Y-68994261D01*
X58386738Y-68994261D01*
X59021738Y-69205928D02*
X59021738Y-69568785D01*
X58386738Y-69387357D02*
X59021738Y-69387357D01*
X58386738Y-70143309D02*
X58689119Y-69931642D01*
X58386738Y-69780452D02*
X59021738Y-69780452D01*
X59021738Y-70022357D01*
X58991500Y-70082833D01*
X58961261Y-70113071D01*
X58900785Y-70143309D01*
X58810071Y-70143309D01*
X58749595Y-70113071D01*
X58719357Y-70082833D01*
X58689119Y-70022357D01*
X58689119Y-69780452D01*
X57999388Y-68586047D02*
X57999388Y-68646523D01*
X57969150Y-68707000D01*
X57938911Y-68737238D01*
X57878435Y-68767476D01*
X57757483Y-68797714D01*
X57606292Y-68797714D01*
X57485340Y-68767476D01*
X57424864Y-68737238D01*
X57394626Y-68707000D01*
X57364388Y-68646523D01*
X57364388Y-68586047D01*
X57394626Y-68525571D01*
X57424864Y-68495333D01*
X57485340Y-68465095D01*
X57606292Y-68434857D01*
X57757483Y-68434857D01*
X57878435Y-68465095D01*
X57938911Y-68495333D01*
X57969150Y-68525571D01*
X57999388Y-68586047D01*
X57424864Y-69069857D02*
X57394626Y-69100095D01*
X57364388Y-69069857D01*
X57394626Y-69039619D01*
X57424864Y-69069857D01*
X57364388Y-69069857D01*
X57999388Y-69674619D02*
X57999388Y-69372238D01*
X57697007Y-69342000D01*
X57727245Y-69372238D01*
X57757483Y-69432714D01*
X57757483Y-69583904D01*
X57727245Y-69644380D01*
X57697007Y-69674619D01*
X57636530Y-69704857D01*
X57485340Y-69704857D01*
X57424864Y-69674619D01*
X57394626Y-69644380D01*
X57364388Y-69583904D01*
X57364388Y-69432714D01*
X57394626Y-69372238D01*
X57424864Y-69342000D01*
X57545816Y-69946761D02*
X57545816Y-70249142D01*
X57364388Y-69886285D02*
X57999388Y-70097952D01*
X57364388Y-70309619D01*
D10*
X127344714Y-32221714D02*
X127344714Y-32657142D01*
X127344714Y-32439428D02*
X126582714Y-32439428D01*
X126691571Y-32512000D01*
X126764142Y-32584571D01*
X126800428Y-32657142D01*
X126655285Y-31931428D02*
X126619000Y-31895142D01*
X126582714Y-31822571D01*
X126582714Y-31641142D01*
X126619000Y-31568571D01*
X126655285Y-31532285D01*
X126727857Y-31496000D01*
X126800428Y-31496000D01*
X126909285Y-31532285D01*
X127344714Y-31967714D01*
X127344714Y-31496000D01*
X126582714Y-31278285D02*
X127344714Y-31024285D01*
X126582714Y-30770285D01*
D12*
X108110261Y-76828952D02*
X108110261Y-77131333D01*
X108412642Y-77161571D01*
X108382404Y-77131333D01*
X108352166Y-77070857D01*
X108352166Y-76919666D01*
X108382404Y-76859190D01*
X108412642Y-76828952D01*
X108473119Y-76798714D01*
X108624309Y-76798714D01*
X108684785Y-76828952D01*
X108715023Y-76859190D01*
X108745261Y-76919666D01*
X108745261Y-77070857D01*
X108715023Y-77131333D01*
X108684785Y-77161571D01*
X108110261Y-76617285D02*
X108745261Y-76405619D01*
X108110261Y-76193952D01*
X59650992Y-91452095D02*
X59650992Y-91935904D01*
X58386738Y-90922928D02*
X59021738Y-90922928D01*
X58568166Y-91134595D01*
X59021738Y-91346261D01*
X58386738Y-91346261D01*
X59021738Y-91557928D02*
X59021738Y-91920785D01*
X58386738Y-91739357D02*
X59021738Y-91739357D01*
X58386738Y-92495309D02*
X58689119Y-92283642D01*
X58386738Y-92132452D02*
X59021738Y-92132452D01*
X59021738Y-92374357D01*
X58991500Y-92434833D01*
X58961261Y-92465071D01*
X58900785Y-92495309D01*
X58810071Y-92495309D01*
X58749595Y-92465071D01*
X58719357Y-92434833D01*
X58689119Y-92374357D01*
X58689119Y-92132452D01*
X57364388Y-91603285D02*
X57364388Y-91240428D01*
X57364388Y-91421857D02*
X57999388Y-91421857D01*
X57908673Y-91361380D01*
X57848197Y-91300904D01*
X57817959Y-91240428D01*
X57545816Y-91845190D02*
X57545816Y-92147571D01*
X57364388Y-91784714D02*
X57999388Y-91996380D01*
X57364388Y-92208047D01*
D11*
X58475619Y-116808380D02*
X59475619Y-116808380D01*
X58475619Y-117379809D01*
X59475619Y-117379809D01*
X58570857Y-117856000D02*
X58523238Y-117903619D01*
X58475619Y-117856000D01*
X58523238Y-117808380D01*
X58570857Y-117856000D01*
X58475619Y-117856000D01*
X59475619Y-118522666D02*
X59475619Y-118713142D01*
X59428000Y-118808380D01*
X59332761Y-118903619D01*
X59142285Y-118951238D01*
X58808952Y-118951238D01*
X58618476Y-118903619D01*
X58523238Y-118808380D01*
X58475619Y-118713142D01*
X58475619Y-118522666D01*
X58523238Y-118427428D01*
X58618476Y-118332190D01*
X58808952Y-118284571D01*
X59142285Y-118284571D01*
X59332761Y-118332190D01*
X59428000Y-118427428D01*
X59475619Y-118522666D01*
D12*
X87409261Y-59287833D02*
X87106880Y-59499500D01*
X87409261Y-59650690D02*
X86774261Y-59650690D01*
X86774261Y-59408785D01*
X86804500Y-59348309D01*
X86834738Y-59318071D01*
X86895214Y-59287833D01*
X86985928Y-59287833D01*
X87046404Y-59318071D01*
X87076642Y-59348309D01*
X87106880Y-59408785D01*
X87106880Y-59650690D01*
X86774261Y-59076166D02*
X87409261Y-58652833D01*
X86774261Y-58652833D02*
X87409261Y-59076166D01*
D11*
X58475619Y-144772190D02*
X59475619Y-144772190D01*
X58475619Y-145343619D01*
X59475619Y-145343619D01*
X58570857Y-145819809D02*
X58523238Y-145867428D01*
X58475619Y-145819809D01*
X58523238Y-145772190D01*
X58570857Y-145819809D01*
X58475619Y-145819809D01*
X58570857Y-146867428D02*
X58523238Y-146819809D01*
X58475619Y-146676952D01*
X58475619Y-146581714D01*
X58523238Y-146438857D01*
X58618476Y-146343619D01*
X58713714Y-146296000D01*
X58904190Y-146248380D01*
X59047047Y-146248380D01*
X59237523Y-146296000D01*
X59332761Y-146343619D01*
X59428000Y-146438857D01*
X59475619Y-146581714D01*
X59475619Y-146676952D01*
X59428000Y-146819809D01*
X59380380Y-146867428D01*
D12*
X58583285Y-46518285D02*
X58583285Y-46082857D01*
X58583285Y-46300571D02*
X59345285Y-46300571D01*
X59236428Y-46228000D01*
X59163857Y-46155428D01*
X59127571Y-46082857D01*
X59272714Y-46808571D02*
X59309000Y-46844857D01*
X59345285Y-46917428D01*
X59345285Y-47098857D01*
X59309000Y-47171428D01*
X59272714Y-47207714D01*
X59200142Y-47244000D01*
X59127571Y-47244000D01*
X59018714Y-47207714D01*
X58583285Y-46772285D01*
X58583285Y-47244000D01*
X59345285Y-47461714D02*
X58583285Y-47715714D01*
X59345285Y-47969714D01*
D10*
X126144261Y-161296047D02*
X126144261Y-160933190D01*
X126779261Y-161114619D02*
X126144261Y-161114619D01*
X126446642Y-160721523D02*
X126446642Y-160509857D01*
X126779261Y-160419142D02*
X126779261Y-160721523D01*
X126144261Y-160721523D01*
X126144261Y-160419142D01*
X126779261Y-160147000D02*
X126144261Y-160147000D01*
X126597833Y-159935333D01*
X126144261Y-159723666D01*
X126779261Y-159723666D01*
X126779261Y-159421285D02*
X126144261Y-159421285D01*
X126144261Y-159179380D01*
X126174500Y-159118904D01*
X126204738Y-159088666D01*
X126265214Y-159058428D01*
X126355928Y-159058428D01*
X126416404Y-159088666D01*
X126446642Y-159118904D01*
X126476880Y-159179380D01*
X126476880Y-159421285D01*
X126779261Y-157788428D02*
X126779261Y-157818666D01*
X126749023Y-157879142D01*
X126658309Y-157969857D01*
X126476880Y-158121047D01*
X126386166Y-158181523D01*
X126295452Y-158211761D01*
X126234976Y-158211761D01*
X126174500Y-158181523D01*
X126144261Y-158121047D01*
X126144261Y-158090809D01*
X126174500Y-158030333D01*
X126234976Y-158000095D01*
X126265214Y-158000095D01*
X126325690Y-158030333D01*
X126355928Y-158060571D01*
X126476880Y-158242000D01*
X126507119Y-158272238D01*
X126567595Y-158302476D01*
X126658309Y-158302476D01*
X126718785Y-158272238D01*
X126749023Y-158242000D01*
X126779261Y-158181523D01*
X126779261Y-158090809D01*
X126749023Y-158030333D01*
X126718785Y-158000095D01*
X126597833Y-157909380D01*
X126507119Y-157879142D01*
X126446642Y-157879142D01*
X126779261Y-157032476D02*
X126144261Y-157032476D01*
X126446642Y-157032476D02*
X126446642Y-156669619D01*
X126779261Y-156669619D02*
X126144261Y-156669619D01*
X126144261Y-156367238D02*
X126658309Y-156367238D01*
X126718785Y-156337000D01*
X126749023Y-156306761D01*
X126779261Y-156246285D01*
X126779261Y-156125333D01*
X126749023Y-156064857D01*
X126718785Y-156034619D01*
X126658309Y-156004380D01*
X126144261Y-156004380D01*
X126779261Y-155702000D02*
X126144261Y-155702000D01*
X126597833Y-155490333D01*
X126144261Y-155278666D01*
X126779261Y-155278666D01*
X126074714Y-152799142D02*
X126074714Y-153162000D01*
X126437571Y-153198285D01*
X126401285Y-153162000D01*
X126365000Y-153089428D01*
X126365000Y-152908000D01*
X126401285Y-152835428D01*
X126437571Y-152799142D01*
X126510142Y-152762857D01*
X126691571Y-152762857D01*
X126764142Y-152799142D01*
X126800428Y-152835428D01*
X126836714Y-152908000D01*
X126836714Y-153089428D01*
X126800428Y-153162000D01*
X126764142Y-153198285D01*
X126074714Y-152545142D02*
X126836714Y-152291142D01*
X126074714Y-152037142D01*
D11*
X58475619Y-63896952D02*
X58475619Y-63325523D01*
X58475619Y-63611238D02*
X59475619Y-63611238D01*
X59332761Y-63516000D01*
X59237523Y-63420761D01*
X59189904Y-63325523D01*
X59380380Y-64277904D02*
X59428000Y-64325523D01*
X59475619Y-64420761D01*
X59475619Y-64658857D01*
X59428000Y-64754095D01*
X59380380Y-64801714D01*
X59285142Y-64849333D01*
X59189904Y-64849333D01*
X59047047Y-64801714D01*
X58475619Y-64230285D01*
X58475619Y-64849333D01*
X59475619Y-65135047D02*
X58475619Y-65468380D01*
X59475619Y-65801714D01*
D12*
X108745261Y-74769738D02*
X108442880Y-74981404D01*
X108745261Y-75132595D02*
X108110261Y-75132595D01*
X108110261Y-74890690D01*
X108140500Y-74830214D01*
X108170738Y-74799976D01*
X108231214Y-74769738D01*
X108321928Y-74769738D01*
X108382404Y-74799976D01*
X108412642Y-74830214D01*
X108442880Y-74890690D01*
X108442880Y-75132595D01*
X108715023Y-74527833D02*
X108745261Y-74437119D01*
X108745261Y-74285928D01*
X108715023Y-74225452D01*
X108684785Y-74195214D01*
X108624309Y-74164976D01*
X108563833Y-74164976D01*
X108503357Y-74195214D01*
X108473119Y-74225452D01*
X108442880Y-74285928D01*
X108412642Y-74406880D01*
X108382404Y-74467357D01*
X108352166Y-74497595D01*
X108291690Y-74527833D01*
X108231214Y-74527833D01*
X108170738Y-74497595D01*
X108140500Y-74467357D01*
X108110261Y-74406880D01*
X108110261Y-74255690D01*
X108140500Y-74164976D01*
X108110261Y-73983547D02*
X108110261Y-73620690D01*
X108745261Y-73802119D02*
X108110261Y-73802119D01*
D10*
X126328714Y-65169142D02*
X126328714Y-65532000D01*
X126691571Y-65568285D01*
X126655285Y-65532000D01*
X126619000Y-65459428D01*
X126619000Y-65278000D01*
X126655285Y-65205428D01*
X126691571Y-65169142D01*
X126764142Y-65132857D01*
X126945571Y-65132857D01*
X127018142Y-65169142D01*
X127054428Y-65205428D01*
X127090714Y-65278000D01*
X127090714Y-65459428D01*
X127054428Y-65532000D01*
X127018142Y-65568285D01*
X126328714Y-64915142D02*
X127090714Y-64661142D01*
X126328714Y-64407142D01*
D12*
X94986928Y-54359023D02*
X95077642Y-54389261D01*
X95228833Y-54389261D01*
X95289309Y-54359023D01*
X95319547Y-54328785D01*
X95349785Y-54268309D01*
X95349785Y-54207833D01*
X95319547Y-54147357D01*
X95289309Y-54117119D01*
X95228833Y-54086880D01*
X95107880Y-54056642D01*
X95047404Y-54026404D01*
X95017166Y-53996166D01*
X94986928Y-53935690D01*
X94986928Y-53875214D01*
X95017166Y-53814738D01*
X95047404Y-53784500D01*
X95107880Y-53754261D01*
X95259071Y-53754261D01*
X95349785Y-53784500D01*
X95621928Y-54389261D02*
X95621928Y-53754261D01*
X95773119Y-53754261D01*
X95863833Y-53784500D01*
X95924309Y-53844976D01*
X95954547Y-53905452D01*
X95984785Y-54026404D01*
X95984785Y-54117119D01*
X95954547Y-54238071D01*
X95924309Y-54298547D01*
X95863833Y-54359023D01*
X95773119Y-54389261D01*
X95621928Y-54389261D01*
X96226690Y-54207833D02*
X96529071Y-54207833D01*
X96166214Y-54389261D02*
X96377880Y-53754261D01*
X96589547Y-54389261D01*
D10*
X126328714Y-120795142D02*
X126328714Y-121158000D01*
X126691571Y-121194285D01*
X126655285Y-121158000D01*
X126619000Y-121085428D01*
X126619000Y-120904000D01*
X126655285Y-120831428D01*
X126691571Y-120795142D01*
X126764142Y-120758857D01*
X126945571Y-120758857D01*
X127018142Y-120795142D01*
X127054428Y-120831428D01*
X127090714Y-120904000D01*
X127090714Y-121085428D01*
X127054428Y-121158000D01*
X127018142Y-121194285D01*
X126328714Y-120541142D02*
X127090714Y-120287142D01*
X126328714Y-120033142D01*
D12*
X59647817Y-31254095D02*
X59647817Y-31737904D01*
X58383563Y-29878261D02*
X58383563Y-29575880D01*
X59018563Y-29575880D01*
X58716182Y-30089928D02*
X58716182Y-30301595D01*
X58383563Y-30392309D02*
X58383563Y-30089928D01*
X59018563Y-30089928D01*
X59018563Y-30392309D01*
X58383563Y-30664452D02*
X59018563Y-30664452D01*
X59018563Y-30815642D01*
X58988325Y-30906357D01*
X58927848Y-30966833D01*
X58867372Y-30997071D01*
X58746420Y-31027309D01*
X58655705Y-31027309D01*
X58534753Y-30997071D01*
X58474277Y-30966833D01*
X58413801Y-30906357D01*
X58383563Y-30815642D01*
X58383563Y-30664452D01*
X58716182Y-31511119D02*
X58685944Y-31601833D01*
X58655705Y-31632071D01*
X58595229Y-31662309D01*
X58504515Y-31662309D01*
X58444039Y-31632071D01*
X58413801Y-31601833D01*
X58383563Y-31541357D01*
X58383563Y-31299452D01*
X59018563Y-31299452D01*
X59018563Y-31511119D01*
X58988325Y-31571595D01*
X58958086Y-31601833D01*
X58897610Y-31632071D01*
X58837134Y-31632071D01*
X58776658Y-31601833D01*
X58746420Y-31571595D01*
X58716182Y-31511119D01*
X58716182Y-31299452D01*
X58564991Y-31904214D02*
X58564991Y-32206595D01*
X58383563Y-31843738D02*
X59018563Y-32055404D01*
X58383563Y-32267071D01*
X58383563Y-32841595D02*
X58685944Y-32629928D01*
X58383563Y-32478738D02*
X59018563Y-32478738D01*
X59018563Y-32720642D01*
X58988325Y-32781119D01*
X58958086Y-32811357D01*
X58897610Y-32841595D01*
X58806896Y-32841595D01*
X58746420Y-32811357D01*
X58716182Y-32781119D01*
X58685944Y-32720642D01*
X58685944Y-32478738D01*
X58383563Y-33446357D02*
X58383563Y-33083500D01*
X58383563Y-33264928D02*
X59018563Y-33264928D01*
X58927848Y-33204452D01*
X58867372Y-33143976D01*
X58837134Y-33083500D01*
D10*
X126328714Y-75873428D02*
X126328714Y-76018571D01*
X126365000Y-76091142D01*
X126401285Y-76127428D01*
X126510142Y-76200000D01*
X126655285Y-76236285D01*
X126945571Y-76236285D01*
X127018142Y-76200000D01*
X127054428Y-76163714D01*
X127090714Y-76091142D01*
X127090714Y-75946000D01*
X127054428Y-75873428D01*
X127018142Y-75837142D01*
X126945571Y-75800857D01*
X126764142Y-75800857D01*
X126691571Y-75837142D01*
X126655285Y-75873428D01*
X126619000Y-75946000D01*
X126619000Y-76091142D01*
X126655285Y-76163714D01*
X126691571Y-76200000D01*
X126764142Y-76236285D01*
X126328714Y-75583142D02*
X127090714Y-75329142D01*
X126328714Y-75075142D01*
D11*
X58475619Y-152368380D02*
X59475619Y-152368380D01*
X58475619Y-152939809D01*
X59475619Y-152939809D01*
X58570857Y-153416000D02*
X58523238Y-153463619D01*
X58475619Y-153416000D01*
X58523238Y-153368380D01*
X58570857Y-153416000D01*
X58475619Y-153416000D01*
X59475619Y-154082666D02*
X59475619Y-154273142D01*
X59428000Y-154368380D01*
X59332761Y-154463619D01*
X59142285Y-154511238D01*
X58808952Y-154511238D01*
X58618476Y-154463619D01*
X58523238Y-154368380D01*
X58475619Y-154273142D01*
X58475619Y-154082666D01*
X58523238Y-153987428D01*
X58618476Y-153892190D01*
X58808952Y-153844571D01*
X59142285Y-153844571D01*
X59332761Y-153892190D01*
X59428000Y-153987428D01*
X59475619Y-154082666D01*
X58221619Y-75072952D02*
X58221619Y-74501523D01*
X58221619Y-74787238D02*
X59221619Y-74787238D01*
X59078761Y-74692000D01*
X58983523Y-74596761D01*
X58935904Y-74501523D01*
X59126380Y-75453904D02*
X59174000Y-75501523D01*
X59221619Y-75596761D01*
X59221619Y-75834857D01*
X59174000Y-75930095D01*
X59126380Y-75977714D01*
X59031142Y-76025333D01*
X58935904Y-76025333D01*
X58793047Y-75977714D01*
X58221619Y-75406285D01*
X58221619Y-76025333D01*
X59221619Y-76311047D02*
X58221619Y-76644380D01*
X59221619Y-76977714D01*
X58316857Y-104370285D02*
X58269238Y-104322666D01*
X58221619Y-104179809D01*
X58221619Y-104084571D01*
X58269238Y-103941714D01*
X58364476Y-103846476D01*
X58459714Y-103798857D01*
X58650190Y-103751238D01*
X58793047Y-103751238D01*
X58983523Y-103798857D01*
X59078761Y-103846476D01*
X59174000Y-103941714D01*
X59221619Y-104084571D01*
X59221619Y-104179809D01*
X59174000Y-104322666D01*
X59126380Y-104370285D01*
X59221619Y-104989333D02*
X59221619Y-105179809D01*
X59174000Y-105275047D01*
X59078761Y-105370285D01*
X58888285Y-105417904D01*
X58554952Y-105417904D01*
X58364476Y-105370285D01*
X58269238Y-105275047D01*
X58221619Y-105179809D01*
X58221619Y-104989333D01*
X58269238Y-104894095D01*
X58364476Y-104798857D01*
X58554952Y-104751238D01*
X58888285Y-104751238D01*
X59078761Y-104798857D01*
X59174000Y-104894095D01*
X59221619Y-104989333D01*
X58221619Y-105846476D02*
X59221619Y-105846476D01*
X58507333Y-106179809D01*
X59221619Y-106513142D01*
X58221619Y-106513142D01*
D12*
X86774261Y-62205809D02*
X86774261Y-61842952D01*
X87409261Y-62024380D02*
X86774261Y-62024380D01*
X86774261Y-61691761D02*
X87409261Y-61268428D01*
X86774261Y-61268428D02*
X87409261Y-61691761D01*
D10*
X126074714Y-137305142D02*
X126074714Y-137668000D01*
X126437571Y-137704285D01*
X126401285Y-137668000D01*
X126365000Y-137595428D01*
X126365000Y-137414000D01*
X126401285Y-137341428D01*
X126437571Y-137305142D01*
X126510142Y-137268857D01*
X126691571Y-137268857D01*
X126764142Y-137305142D01*
X126800428Y-137341428D01*
X126836714Y-137414000D01*
X126836714Y-137595428D01*
X126800428Y-137668000D01*
X126764142Y-137704285D01*
X126074714Y-137051142D02*
X126836714Y-136797142D01*
X126074714Y-136543142D01*
X127090714Y-99150714D02*
X127090714Y-99513571D01*
X126328714Y-99513571D01*
X126328714Y-99005571D02*
X127090714Y-98751571D01*
X126328714Y-98497571D01*
X127090714Y-97880714D02*
X127090714Y-98243571D01*
X126328714Y-98243571D01*
X127090714Y-97263857D02*
X127090714Y-97626714D01*
X126328714Y-97626714D01*
X126328714Y-96864714D02*
X126328714Y-96719571D01*
X126365000Y-96647000D01*
X126437571Y-96574428D01*
X126582714Y-96538142D01*
X126836714Y-96538142D01*
X126981857Y-96574428D01*
X127054428Y-96647000D01*
X127090714Y-96719571D01*
X127090714Y-96864714D01*
X127054428Y-96937285D01*
X126981857Y-97009857D01*
X126836714Y-97046142D01*
X126582714Y-97046142D01*
X126437571Y-97009857D01*
X126365000Y-96937285D01*
X126328714Y-96864714D01*
X126619000Y-37664571D02*
X126582714Y-37737142D01*
X126582714Y-37846000D01*
X126619000Y-37954857D01*
X126691571Y-38027428D01*
X126764142Y-38063714D01*
X126909285Y-38100000D01*
X127018142Y-38100000D01*
X127163285Y-38063714D01*
X127235857Y-38027428D01*
X127308428Y-37954857D01*
X127344714Y-37846000D01*
X127344714Y-37773428D01*
X127308428Y-37664571D01*
X127272142Y-37628285D01*
X127018142Y-37628285D01*
X127018142Y-37773428D01*
X127344714Y-37301714D02*
X126582714Y-37301714D01*
X127344714Y-36866285D01*
X126582714Y-36866285D01*
X127344714Y-36503428D02*
X126582714Y-36503428D01*
X126582714Y-36322000D01*
X126619000Y-36213142D01*
X126691571Y-36140571D01*
X126764142Y-36104285D01*
X126909285Y-36068000D01*
X127018142Y-36068000D01*
X127163285Y-36104285D01*
X127235857Y-36140571D01*
X127308428Y-36213142D01*
X127344714Y-36322000D01*
X127344714Y-36503428D01*
D12*
X97542047Y-54359023D02*
X97632761Y-54389261D01*
X97783952Y-54389261D01*
X97844428Y-54359023D01*
X97874666Y-54328785D01*
X97904904Y-54268309D01*
X97904904Y-54207833D01*
X97874666Y-54147357D01*
X97844428Y-54117119D01*
X97783952Y-54086880D01*
X97663000Y-54056642D01*
X97602523Y-54026404D01*
X97572285Y-53996166D01*
X97542047Y-53935690D01*
X97542047Y-53875214D01*
X97572285Y-53814738D01*
X97602523Y-53784500D01*
X97663000Y-53754261D01*
X97814190Y-53754261D01*
X97904904Y-53784500D01*
X98539904Y-54328785D02*
X98509666Y-54359023D01*
X98418952Y-54389261D01*
X98358476Y-54389261D01*
X98267761Y-54359023D01*
X98207285Y-54298547D01*
X98177047Y-54238071D01*
X98146809Y-54117119D01*
X98146809Y-54026404D01*
X98177047Y-53905452D01*
X98207285Y-53844976D01*
X98267761Y-53784500D01*
X98358476Y-53754261D01*
X98418952Y-53754261D01*
X98509666Y-53784500D01*
X98539904Y-53814738D01*
X99114428Y-54389261D02*
X98812047Y-54389261D01*
X98812047Y-53754261D01*
X100354190Y-53784500D02*
X100293714Y-53754261D01*
X100203000Y-53754261D01*
X100112285Y-53784500D01*
X100051809Y-53844976D01*
X100021571Y-53905452D01*
X99991333Y-54026404D01*
X99991333Y-54117119D01*
X100021571Y-54238071D01*
X100051809Y-54298547D01*
X100112285Y-54359023D01*
X100203000Y-54389261D01*
X100263476Y-54389261D01*
X100354190Y-54359023D01*
X100384428Y-54328785D01*
X100384428Y-54117119D01*
X100263476Y-54117119D01*
X100656571Y-54389261D02*
X100656571Y-53754261D01*
X101019428Y-54389261D01*
X101019428Y-53754261D01*
X101321809Y-54389261D02*
X101321809Y-53754261D01*
X101473000Y-53754261D01*
X101563714Y-53784500D01*
X101624190Y-53844976D01*
X101654428Y-53905452D01*
X101684666Y-54026404D01*
X101684666Y-54117119D01*
X101654428Y-54238071D01*
X101624190Y-54298547D01*
X101563714Y-54359023D01*
X101473000Y-54389261D01*
X101321809Y-54389261D01*
D11*
X58316857Y-122150285D02*
X58269238Y-122102666D01*
X58221619Y-121959809D01*
X58221619Y-121864571D01*
X58269238Y-121721714D01*
X58364476Y-121626476D01*
X58459714Y-121578857D01*
X58650190Y-121531238D01*
X58793047Y-121531238D01*
X58983523Y-121578857D01*
X59078761Y-121626476D01*
X59174000Y-121721714D01*
X59221619Y-121864571D01*
X59221619Y-121959809D01*
X59174000Y-122102666D01*
X59126380Y-122150285D01*
X59221619Y-122769333D02*
X59221619Y-122959809D01*
X59174000Y-123055047D01*
X59078761Y-123150285D01*
X58888285Y-123197904D01*
X58554952Y-123197904D01*
X58364476Y-123150285D01*
X58269238Y-123055047D01*
X58221619Y-122959809D01*
X58221619Y-122769333D01*
X58269238Y-122674095D01*
X58364476Y-122578857D01*
X58554952Y-122531238D01*
X58888285Y-122531238D01*
X59078761Y-122578857D01*
X59174000Y-122674095D01*
X59221619Y-122769333D01*
X58221619Y-123626476D02*
X59221619Y-123626476D01*
X58507333Y-123959809D01*
X59221619Y-124293142D01*
X58221619Y-124293142D01*
D10*
X127090714Y-127199571D02*
X126328714Y-127199571D01*
X126328714Y-126909285D01*
X126365000Y-126836714D01*
X126401285Y-126800428D01*
X126473857Y-126764142D01*
X126582714Y-126764142D01*
X126655285Y-126800428D01*
X126691571Y-126836714D01*
X126727857Y-126909285D01*
X126727857Y-127199571D01*
X127090714Y-126437571D02*
X126328714Y-126437571D01*
X126691571Y-126437571D02*
X126691571Y-126002142D01*
X127090714Y-126002142D02*
X126328714Y-126002142D01*
X127090714Y-125058714D02*
X126328714Y-125058714D01*
X127090714Y-124695857D02*
X126328714Y-124695857D01*
X127090714Y-124260428D01*
X126328714Y-124260428D01*
X126975809Y-115981238D02*
X126975809Y-116223142D01*
X126467809Y-116223142D01*
X126975809Y-115811904D02*
X126467809Y-115811904D01*
X126467809Y-115690952D01*
X126492000Y-115618380D01*
X126540380Y-115570000D01*
X126588761Y-115545809D01*
X126685523Y-115521619D01*
X126758095Y-115521619D01*
X126854857Y-115545809D01*
X126903238Y-115570000D01*
X126951619Y-115618380D01*
X126975809Y-115690952D01*
X126975809Y-115811904D01*
X126975809Y-115013619D02*
X126733904Y-115182952D01*
X126975809Y-115303904D02*
X126467809Y-115303904D01*
X126467809Y-115110380D01*
X126492000Y-115062000D01*
X126516190Y-115037809D01*
X126564571Y-115013619D01*
X126637142Y-115013619D01*
X126685523Y-115037809D01*
X126709714Y-115062000D01*
X126733904Y-115110380D01*
X126733904Y-115303904D01*
X127024190Y-114916857D02*
X127024190Y-114529809D01*
X126975809Y-114408857D02*
X126467809Y-114408857D01*
X126467809Y-114215333D01*
X126492000Y-114166952D01*
X126516190Y-114142761D01*
X126564571Y-114118571D01*
X126637142Y-114118571D01*
X126685523Y-114142761D01*
X126709714Y-114166952D01*
X126733904Y-114215333D01*
X126733904Y-114408857D01*
X126975809Y-113900857D02*
X126467809Y-113900857D01*
X126975809Y-113658952D02*
X126467809Y-113658952D01*
X126975809Y-113368666D01*
X126467809Y-113368666D01*
X126516190Y-113150952D02*
X126492000Y-113126761D01*
X126467809Y-113078380D01*
X126467809Y-112957428D01*
X126492000Y-112909047D01*
X126516190Y-112884857D01*
X126564571Y-112860666D01*
X126612952Y-112860666D01*
X126685523Y-112884857D01*
X126975809Y-113175142D01*
X126975809Y-112860666D01*
X126365000Y-131390571D02*
X126328714Y-131463142D01*
X126328714Y-131572000D01*
X126365000Y-131680857D01*
X126437571Y-131753428D01*
X126510142Y-131789714D01*
X126655285Y-131826000D01*
X126764142Y-131826000D01*
X126909285Y-131789714D01*
X126981857Y-131753428D01*
X127054428Y-131680857D01*
X127090714Y-131572000D01*
X127090714Y-131499428D01*
X127054428Y-131390571D01*
X127018142Y-131354285D01*
X126764142Y-131354285D01*
X126764142Y-131499428D01*
X127090714Y-131027714D02*
X126328714Y-131027714D01*
X127090714Y-130592285D01*
X126328714Y-130592285D01*
X127090714Y-130229428D02*
X126328714Y-130229428D01*
X126328714Y-130048000D01*
X126365000Y-129939142D01*
X126437571Y-129866571D01*
X126510142Y-129830285D01*
X126655285Y-129794000D01*
X126764142Y-129794000D01*
X126909285Y-129830285D01*
X126981857Y-129866571D01*
X127054428Y-129939142D01*
X127090714Y-130048000D01*
X127090714Y-130229428D01*
D11*
X58316857Y-139930285D02*
X58269238Y-139882666D01*
X58221619Y-139739809D01*
X58221619Y-139644571D01*
X58269238Y-139501714D01*
X58364476Y-139406476D01*
X58459714Y-139358857D01*
X58650190Y-139311238D01*
X58793047Y-139311238D01*
X58983523Y-139358857D01*
X59078761Y-139406476D01*
X59174000Y-139501714D01*
X59221619Y-139644571D01*
X59221619Y-139739809D01*
X59174000Y-139882666D01*
X59126380Y-139930285D01*
X59221619Y-140549333D02*
X59221619Y-140739809D01*
X59174000Y-140835047D01*
X59078761Y-140930285D01*
X58888285Y-140977904D01*
X58554952Y-140977904D01*
X58364476Y-140930285D01*
X58269238Y-140835047D01*
X58221619Y-140739809D01*
X58221619Y-140549333D01*
X58269238Y-140454095D01*
X58364476Y-140358857D01*
X58554952Y-140311238D01*
X58888285Y-140311238D01*
X59078761Y-140358857D01*
X59174000Y-140454095D01*
X59221619Y-140549333D01*
X58221619Y-141406476D02*
X59221619Y-141406476D01*
X58507333Y-141739809D01*
X59221619Y-142073142D01*
X58221619Y-142073142D01*
D10*
X126365000Y-70684571D02*
X126328714Y-70757142D01*
X126328714Y-70866000D01*
X126365000Y-70974857D01*
X126437571Y-71047428D01*
X126510142Y-71083714D01*
X126655285Y-71120000D01*
X126764142Y-71120000D01*
X126909285Y-71083714D01*
X126981857Y-71047428D01*
X127054428Y-70974857D01*
X127090714Y-70866000D01*
X127090714Y-70793428D01*
X127054428Y-70684571D01*
X127018142Y-70648285D01*
X126764142Y-70648285D01*
X126764142Y-70793428D01*
X127090714Y-70321714D02*
X126328714Y-70321714D01*
X127090714Y-69886285D01*
X126328714Y-69886285D01*
X127090714Y-69523428D02*
X126328714Y-69523428D01*
X126328714Y-69342000D01*
X126365000Y-69233142D01*
X126437571Y-69160571D01*
X126510142Y-69124285D01*
X126655285Y-69088000D01*
X126764142Y-69088000D01*
X126909285Y-69124285D01*
X126981857Y-69160571D01*
X127054428Y-69233142D01*
X127090714Y-69342000D01*
X127090714Y-69523428D01*
D12*
X59647817Y-41922095D02*
X59647817Y-42405904D01*
X58383563Y-40546261D02*
X58383563Y-40243880D01*
X59018563Y-40243880D01*
X58716182Y-40757928D02*
X58716182Y-40969595D01*
X58383563Y-41060309D02*
X58383563Y-40757928D01*
X59018563Y-40757928D01*
X59018563Y-41060309D01*
X58383563Y-41332452D02*
X59018563Y-41332452D01*
X59018563Y-41483642D01*
X58988325Y-41574357D01*
X58927848Y-41634833D01*
X58867372Y-41665071D01*
X58746420Y-41695309D01*
X58655705Y-41695309D01*
X58534753Y-41665071D01*
X58474277Y-41634833D01*
X58413801Y-41574357D01*
X58383563Y-41483642D01*
X58383563Y-41332452D01*
X58716182Y-42179119D02*
X58685944Y-42269833D01*
X58655705Y-42300071D01*
X58595229Y-42330309D01*
X58504515Y-42330309D01*
X58444039Y-42300071D01*
X58413801Y-42269833D01*
X58383563Y-42209357D01*
X58383563Y-41967452D01*
X59018563Y-41967452D01*
X59018563Y-42179119D01*
X58988325Y-42239595D01*
X58958086Y-42269833D01*
X58897610Y-42300071D01*
X58837134Y-42300071D01*
X58776658Y-42269833D01*
X58746420Y-42239595D01*
X58716182Y-42179119D01*
X58716182Y-41967452D01*
X58564991Y-42572214D02*
X58564991Y-42874595D01*
X58383563Y-42511738D02*
X59018563Y-42723404D01*
X58383563Y-42935071D01*
X58383563Y-43509595D02*
X58685944Y-43297928D01*
X58383563Y-43146738D02*
X59018563Y-43146738D01*
X59018563Y-43388642D01*
X58988325Y-43449119D01*
X58958086Y-43479357D01*
X58897610Y-43509595D01*
X58806896Y-43509595D01*
X58746420Y-43479357D01*
X58716182Y-43449119D01*
X58685944Y-43388642D01*
X58685944Y-43146738D01*
X58383563Y-44114357D02*
X58383563Y-43751500D01*
X58383563Y-43932928D02*
X59018563Y-43932928D01*
X58927848Y-43872452D01*
X58867372Y-43811976D01*
X58837134Y-43751500D01*
X59650992Y-57924095D02*
X59650992Y-58407904D01*
X58386738Y-57394928D02*
X59021738Y-57394928D01*
X58568166Y-57606595D01*
X59021738Y-57818261D01*
X58386738Y-57818261D01*
X59021738Y-58029928D02*
X59021738Y-58392785D01*
X58386738Y-58211357D02*
X59021738Y-58211357D01*
X58386738Y-58967309D02*
X58689119Y-58755642D01*
X58386738Y-58604452D02*
X59021738Y-58604452D01*
X59021738Y-58846357D01*
X58991500Y-58906833D01*
X58961261Y-58937071D01*
X58900785Y-58967309D01*
X58810071Y-58967309D01*
X58749595Y-58937071D01*
X58719357Y-58906833D01*
X58689119Y-58846357D01*
X58689119Y-58604452D01*
X57999388Y-57410047D02*
X57999388Y-57470523D01*
X57969150Y-57531000D01*
X57938911Y-57561238D01*
X57878435Y-57591476D01*
X57757483Y-57621714D01*
X57606292Y-57621714D01*
X57485340Y-57591476D01*
X57424864Y-57561238D01*
X57394626Y-57531000D01*
X57364388Y-57470523D01*
X57364388Y-57410047D01*
X57394626Y-57349571D01*
X57424864Y-57319333D01*
X57485340Y-57289095D01*
X57606292Y-57258857D01*
X57757483Y-57258857D01*
X57878435Y-57289095D01*
X57938911Y-57319333D01*
X57969150Y-57349571D01*
X57999388Y-57410047D01*
X57424864Y-57893857D02*
X57394626Y-57924095D01*
X57364388Y-57893857D01*
X57394626Y-57863619D01*
X57424864Y-57893857D01*
X57364388Y-57893857D01*
X57999388Y-58498619D02*
X57999388Y-58196238D01*
X57697007Y-58166000D01*
X57727245Y-58196238D01*
X57757483Y-58256714D01*
X57757483Y-58407904D01*
X57727245Y-58468380D01*
X57697007Y-58498619D01*
X57636530Y-58528857D01*
X57485340Y-58528857D01*
X57424864Y-58498619D01*
X57394626Y-58468380D01*
X57364388Y-58407904D01*
X57364388Y-58256714D01*
X57394626Y-58196238D01*
X57424864Y-58166000D01*
X57545816Y-58770761D02*
X57545816Y-59073142D01*
X57364388Y-58710285D02*
X57999388Y-58921952D01*
X57364388Y-59133619D01*
D10*
X126111000Y-164410571D02*
X126074714Y-164483142D01*
X126074714Y-164592000D01*
X126111000Y-164700857D01*
X126183571Y-164773428D01*
X126256142Y-164809714D01*
X126401285Y-164846000D01*
X126510142Y-164846000D01*
X126655285Y-164809714D01*
X126727857Y-164773428D01*
X126800428Y-164700857D01*
X126836714Y-164592000D01*
X126836714Y-164519428D01*
X126800428Y-164410571D01*
X126764142Y-164374285D01*
X126510142Y-164374285D01*
X126510142Y-164519428D01*
X126836714Y-164047714D02*
X126074714Y-164047714D01*
X126836714Y-163612285D01*
X126074714Y-163612285D01*
X126836714Y-163249428D02*
X126074714Y-163249428D01*
X126074714Y-163068000D01*
X126111000Y-162959142D01*
X126183571Y-162886571D01*
X126256142Y-162850285D01*
X126401285Y-162814000D01*
X126510142Y-162814000D01*
X126655285Y-162850285D01*
X126727857Y-162886571D01*
X126800428Y-162959142D01*
X126836714Y-163068000D01*
X126836714Y-163249428D01*
D11*
X58475619Y-52720952D02*
X58475619Y-52149523D01*
X58475619Y-52435238D02*
X59475619Y-52435238D01*
X59332761Y-52340000D01*
X59237523Y-52244761D01*
X59189904Y-52149523D01*
X59380380Y-53101904D02*
X59428000Y-53149523D01*
X59475619Y-53244761D01*
X59475619Y-53482857D01*
X59428000Y-53578095D01*
X59380380Y-53625714D01*
X59285142Y-53673333D01*
X59189904Y-53673333D01*
X59047047Y-53625714D01*
X58475619Y-53054285D01*
X58475619Y-53673333D01*
X59475619Y-53959047D02*
X58475619Y-54292380D01*
X59475619Y-54625714D01*
D12*
X59396992Y-80276095D02*
X59396992Y-80759904D01*
X58132738Y-79746928D02*
X58767738Y-79746928D01*
X58314166Y-79958595D01*
X58767738Y-80170261D01*
X58132738Y-80170261D01*
X58767738Y-80381928D02*
X58767738Y-80744785D01*
X58132738Y-80563357D02*
X58767738Y-80563357D01*
X58132738Y-81319309D02*
X58435119Y-81107642D01*
X58132738Y-80956452D02*
X58767738Y-80956452D01*
X58767738Y-81198357D01*
X58737500Y-81258833D01*
X58707261Y-81289071D01*
X58646785Y-81319309D01*
X58556071Y-81319309D01*
X58495595Y-81289071D01*
X58465357Y-81258833D01*
X58435119Y-81198357D01*
X58435119Y-80956452D01*
X57110388Y-80427285D02*
X57110388Y-80064428D01*
X57110388Y-80245857D02*
X57745388Y-80245857D01*
X57654673Y-80185380D01*
X57594197Y-80124904D01*
X57563959Y-80064428D01*
X57291816Y-80669190D02*
X57291816Y-80971571D01*
X57110388Y-80608714D02*
X57745388Y-80820380D01*
X57110388Y-81032047D01*
X127483809Y-52444952D02*
X126975809Y-52444952D01*
X126975809Y-52324000D01*
X127000000Y-52251428D01*
X127048380Y-52203047D01*
X127096761Y-52178857D01*
X127193523Y-52154666D01*
X127266095Y-52154666D01*
X127362857Y-52178857D01*
X127411238Y-52203047D01*
X127459619Y-52251428D01*
X127483809Y-52324000D01*
X127483809Y-52444952D01*
X126975809Y-51985333D02*
X126975809Y-51670857D01*
X127169333Y-51840190D01*
X127169333Y-51767619D01*
X127193523Y-51719238D01*
X127217714Y-51695047D01*
X127266095Y-51670857D01*
X127387047Y-51670857D01*
X127435428Y-51695047D01*
X127459619Y-51719238D01*
X127483809Y-51767619D01*
X127483809Y-51912761D01*
X127459619Y-51961142D01*
X127435428Y-51985333D01*
D11*
%TO.C,J20*%
X63706476Y-131278380D02*
X63706476Y-131992666D01*
X63658857Y-132135523D01*
X63563619Y-132230761D01*
X63420761Y-132278380D01*
X63325523Y-132278380D01*
X64135047Y-131373619D02*
X64182666Y-131326000D01*
X64277904Y-131278380D01*
X64516000Y-131278380D01*
X64611238Y-131326000D01*
X64658857Y-131373619D01*
X64706476Y-131468857D01*
X64706476Y-131564095D01*
X64658857Y-131706952D01*
X64087428Y-132278380D01*
X64706476Y-132278380D01*
X65325523Y-131278380D02*
X65420761Y-131278380D01*
X65516000Y-131326000D01*
X65563619Y-131373619D01*
X65611238Y-131468857D01*
X65658857Y-131659333D01*
X65658857Y-131897428D01*
X65611238Y-132087904D01*
X65563619Y-132183142D01*
X65516000Y-132230761D01*
X65420761Y-132278380D01*
X65325523Y-132278380D01*
X65230285Y-132230761D01*
X65182666Y-132183142D01*
X65135047Y-132087904D01*
X65087428Y-131897428D01*
X65087428Y-131659333D01*
X65135047Y-131468857D01*
X65182666Y-131373619D01*
X65230285Y-131326000D01*
X65325523Y-131278380D01*
%TO.C,U2*%
X104648095Y-124420380D02*
X104648095Y-125229904D01*
X104695714Y-125325142D01*
X104743333Y-125372761D01*
X104838571Y-125420380D01*
X105029047Y-125420380D01*
X105124285Y-125372761D01*
X105171904Y-125325142D01*
X105219523Y-125229904D01*
X105219523Y-124420380D01*
X105648095Y-124515619D02*
X105695714Y-124468000D01*
X105790952Y-124420380D01*
X106029047Y-124420380D01*
X106124285Y-124468000D01*
X106171904Y-124515619D01*
X106219523Y-124610857D01*
X106219523Y-124706095D01*
X106171904Y-124848952D01*
X105600476Y-125420380D01*
X106219523Y-125420380D01*
%TO.C,RV2*%
X99485761Y-96220380D02*
X99152428Y-95744190D01*
X98914333Y-96220380D02*
X98914333Y-95220380D01*
X99295285Y-95220380D01*
X99390523Y-95268000D01*
X99438142Y-95315619D01*
X99485761Y-95410857D01*
X99485761Y-95553714D01*
X99438142Y-95648952D01*
X99390523Y-95696571D01*
X99295285Y-95744190D01*
X98914333Y-95744190D01*
X99771476Y-95220380D02*
X100104809Y-96220380D01*
X100438142Y-95220380D01*
X100723857Y-95315619D02*
X100771476Y-95268000D01*
X100866714Y-95220380D01*
X101104809Y-95220380D01*
X101200047Y-95268000D01*
X101247666Y-95315619D01*
X101295285Y-95410857D01*
X101295285Y-95506095D01*
X101247666Y-95648952D01*
X100676238Y-96220380D01*
X101295285Y-96220380D01*
%TO.C,J12*%
X69294476Y-66762380D02*
X69294476Y-67476666D01*
X69246857Y-67619523D01*
X69151619Y-67714761D01*
X69008761Y-67762380D01*
X68913523Y-67762380D01*
X70294476Y-67762380D02*
X69723047Y-67762380D01*
X70008761Y-67762380D02*
X70008761Y-66762380D01*
X69913523Y-66905238D01*
X69818285Y-67000476D01*
X69723047Y-67048095D01*
X70675428Y-66857619D02*
X70723047Y-66810000D01*
X70818285Y-66762380D01*
X71056380Y-66762380D01*
X71151619Y-66810000D01*
X71199238Y-66857619D01*
X71246857Y-66952857D01*
X71246857Y-67048095D01*
X71199238Y-67190952D01*
X70627809Y-67762380D01*
X71246857Y-67762380D01*
%TO.C,U3*%
X109474095Y-103128380D02*
X109474095Y-103937904D01*
X109521714Y-104033142D01*
X109569333Y-104080761D01*
X109664571Y-104128380D01*
X109855047Y-104128380D01*
X109950285Y-104080761D01*
X109997904Y-104033142D01*
X110045523Y-103937904D01*
X110045523Y-103128380D01*
X110426476Y-103128380D02*
X111045523Y-103128380D01*
X110712190Y-103509333D01*
X110855047Y-103509333D01*
X110950285Y-103556952D01*
X110997904Y-103604571D01*
X111045523Y-103699809D01*
X111045523Y-103937904D01*
X110997904Y-104033142D01*
X110950285Y-104080761D01*
X110855047Y-104128380D01*
X110569333Y-104128380D01*
X110474095Y-104080761D01*
X110426476Y-104033142D01*
%TO.C,RV1*%
X101766761Y-88844380D02*
X101433428Y-88368190D01*
X101195333Y-88844380D02*
X101195333Y-87844380D01*
X101576285Y-87844380D01*
X101671523Y-87892000D01*
X101719142Y-87939619D01*
X101766761Y-88034857D01*
X101766761Y-88177714D01*
X101719142Y-88272952D01*
X101671523Y-88320571D01*
X101576285Y-88368190D01*
X101195333Y-88368190D01*
X102052476Y-87844380D02*
X102385809Y-88844380D01*
X102719142Y-87844380D01*
X103576285Y-88844380D02*
X103004857Y-88844380D01*
X103290571Y-88844380D02*
X103290571Y-87844380D01*
X103195333Y-87987238D01*
X103100095Y-88082476D01*
X103004857Y-88130095D01*
%TO.C,R17*%
X69969142Y-42362380D02*
X69635809Y-41886190D01*
X69397714Y-42362380D02*
X69397714Y-41362380D01*
X69778666Y-41362380D01*
X69873904Y-41410000D01*
X69921523Y-41457619D01*
X69969142Y-41552857D01*
X69969142Y-41695714D01*
X69921523Y-41790952D01*
X69873904Y-41838571D01*
X69778666Y-41886190D01*
X69397714Y-41886190D01*
X70921523Y-42362380D02*
X70350095Y-42362380D01*
X70635809Y-42362380D02*
X70635809Y-41362380D01*
X70540571Y-41505238D01*
X70445333Y-41600476D01*
X70350095Y-41648095D01*
X71254857Y-41362380D02*
X71921523Y-41362380D01*
X71492952Y-42362380D01*
%TO.C,R3*%
X106350333Y-51218380D02*
X106017000Y-50742190D01*
X105778904Y-51218380D02*
X105778904Y-50218380D01*
X106159857Y-50218380D01*
X106255095Y-50266000D01*
X106302714Y-50313619D01*
X106350333Y-50408857D01*
X106350333Y-50551714D01*
X106302714Y-50646952D01*
X106255095Y-50694571D01*
X106159857Y-50742190D01*
X105778904Y-50742190D01*
X106683666Y-50218380D02*
X107302714Y-50218380D01*
X106969380Y-50599333D01*
X107112238Y-50599333D01*
X107207476Y-50646952D01*
X107255095Y-50694571D01*
X107302714Y-50789809D01*
X107302714Y-51027904D01*
X107255095Y-51123142D01*
X107207476Y-51170761D01*
X107112238Y-51218380D01*
X106826523Y-51218380D01*
X106731285Y-51170761D01*
X106683666Y-51123142D01*
%TO.C,U7*%
X109728095Y-35012380D02*
X109728095Y-35821904D01*
X109775714Y-35917142D01*
X109823333Y-35964761D01*
X109918571Y-36012380D01*
X110109047Y-36012380D01*
X110204285Y-35964761D01*
X110251904Y-35917142D01*
X110299523Y-35821904D01*
X110299523Y-35012380D01*
X110680476Y-35012380D02*
X111347142Y-35012380D01*
X110918571Y-36012380D01*
%TO.C,Q2*%
X78644761Y-42711619D02*
X78549523Y-42664000D01*
X78454285Y-42568761D01*
X78311428Y-42425904D01*
X78216190Y-42378285D01*
X78120952Y-42378285D01*
X78168571Y-42616380D02*
X78073333Y-42568761D01*
X77978095Y-42473523D01*
X77930476Y-42283047D01*
X77930476Y-41949714D01*
X77978095Y-41759238D01*
X78073333Y-41664000D01*
X78168571Y-41616380D01*
X78359047Y-41616380D01*
X78454285Y-41664000D01*
X78549523Y-41759238D01*
X78597142Y-41949714D01*
X78597142Y-42283047D01*
X78549523Y-42473523D01*
X78454285Y-42568761D01*
X78359047Y-42616380D01*
X78168571Y-42616380D01*
X78978095Y-41711619D02*
X79025714Y-41664000D01*
X79120952Y-41616380D01*
X79359047Y-41616380D01*
X79454285Y-41664000D01*
X79501904Y-41711619D01*
X79549523Y-41806857D01*
X79549523Y-41902095D01*
X79501904Y-42044952D01*
X78930476Y-42616380D01*
X79549523Y-42616380D01*
%TO.C,C17*%
X108323142Y-43095142D02*
X108275523Y-43142761D01*
X108132666Y-43190380D01*
X108037428Y-43190380D01*
X107894571Y-43142761D01*
X107799333Y-43047523D01*
X107751714Y-42952285D01*
X107704095Y-42761809D01*
X107704095Y-42618952D01*
X107751714Y-42428476D01*
X107799333Y-42333238D01*
X107894571Y-42238000D01*
X108037428Y-42190380D01*
X108132666Y-42190380D01*
X108275523Y-42238000D01*
X108323142Y-42285619D01*
X109275523Y-43190380D02*
X108704095Y-43190380D01*
X108989809Y-43190380D02*
X108989809Y-42190380D01*
X108894571Y-42333238D01*
X108799333Y-42428476D01*
X108704095Y-42476095D01*
X109608857Y-42190380D02*
X110275523Y-42190380D01*
X109846952Y-43190380D01*
%TO.C,R11*%
X103243142Y-115072380D02*
X102909809Y-114596190D01*
X102671714Y-115072380D02*
X102671714Y-114072380D01*
X103052666Y-114072380D01*
X103147904Y-114120000D01*
X103195523Y-114167619D01*
X103243142Y-114262857D01*
X103243142Y-114405714D01*
X103195523Y-114500952D01*
X103147904Y-114548571D01*
X103052666Y-114596190D01*
X102671714Y-114596190D01*
X104195523Y-115072380D02*
X103624095Y-115072380D01*
X103909809Y-115072380D02*
X103909809Y-114072380D01*
X103814571Y-114215238D01*
X103719333Y-114310476D01*
X103624095Y-114358095D01*
X105147904Y-115072380D02*
X104576476Y-115072380D01*
X104862190Y-115072380D02*
X104862190Y-114072380D01*
X104766952Y-114215238D01*
X104671714Y-114310476D01*
X104576476Y-114358095D01*
%TO.C,J10*%
X63706476Y-95464380D02*
X63706476Y-96178666D01*
X63658857Y-96321523D01*
X63563619Y-96416761D01*
X63420761Y-96464380D01*
X63325523Y-96464380D01*
X64706476Y-96464380D02*
X64135047Y-96464380D01*
X64420761Y-96464380D02*
X64420761Y-95464380D01*
X64325523Y-95607238D01*
X64230285Y-95702476D01*
X64135047Y-95750095D01*
X65325523Y-95464380D02*
X65420761Y-95464380D01*
X65516000Y-95512000D01*
X65563619Y-95559619D01*
X65611238Y-95654857D01*
X65658857Y-95845333D01*
X65658857Y-96083428D01*
X65611238Y-96273904D01*
X65563619Y-96369142D01*
X65516000Y-96416761D01*
X65420761Y-96464380D01*
X65325523Y-96464380D01*
X65230285Y-96416761D01*
X65182666Y-96369142D01*
X65135047Y-96273904D01*
X65087428Y-96083428D01*
X65087428Y-95845333D01*
X65135047Y-95654857D01*
X65182666Y-95559619D01*
X65230285Y-95512000D01*
X65325523Y-95464380D01*
%TO.C,R4*%
X116165333Y-114498380D02*
X115832000Y-114022190D01*
X115593904Y-114498380D02*
X115593904Y-113498380D01*
X115974857Y-113498380D01*
X116070095Y-113546000D01*
X116117714Y-113593619D01*
X116165333Y-113688857D01*
X116165333Y-113831714D01*
X116117714Y-113926952D01*
X116070095Y-113974571D01*
X115974857Y-114022190D01*
X115593904Y-114022190D01*
X117022476Y-113831714D02*
X117022476Y-114498380D01*
X116784380Y-113450761D02*
X116546285Y-114165047D01*
X117165333Y-114165047D01*
%TO.C,U8*%
X78486095Y-95464380D02*
X78486095Y-96273904D01*
X78533714Y-96369142D01*
X78581333Y-96416761D01*
X78676571Y-96464380D01*
X78867047Y-96464380D01*
X78962285Y-96416761D01*
X79009904Y-96369142D01*
X79057523Y-96273904D01*
X79057523Y-95464380D01*
X79676571Y-95892952D02*
X79581333Y-95845333D01*
X79533714Y-95797714D01*
X79486095Y-95702476D01*
X79486095Y-95654857D01*
X79533714Y-95559619D01*
X79581333Y-95512000D01*
X79676571Y-95464380D01*
X79867047Y-95464380D01*
X79962285Y-95512000D01*
X80009904Y-95559619D01*
X80057523Y-95654857D01*
X80057523Y-95702476D01*
X80009904Y-95797714D01*
X79962285Y-95845333D01*
X79867047Y-95892952D01*
X79676571Y-95892952D01*
X79581333Y-95940571D01*
X79533714Y-95988190D01*
X79486095Y-96083428D01*
X79486095Y-96273904D01*
X79533714Y-96369142D01*
X79581333Y-96416761D01*
X79676571Y-96464380D01*
X79867047Y-96464380D01*
X79962285Y-96416761D01*
X80009904Y-96369142D01*
X80057523Y-96273904D01*
X80057523Y-96083428D01*
X80009904Y-95988190D01*
X79962285Y-95940571D01*
X79867047Y-95892952D01*
%TO.C,R2*%
X106350333Y-53758380D02*
X106017000Y-53282190D01*
X105778904Y-53758380D02*
X105778904Y-52758380D01*
X106159857Y-52758380D01*
X106255095Y-52806000D01*
X106302714Y-52853619D01*
X106350333Y-52948857D01*
X106350333Y-53091714D01*
X106302714Y-53186952D01*
X106255095Y-53234571D01*
X106159857Y-53282190D01*
X105778904Y-53282190D01*
X106731285Y-52853619D02*
X106778904Y-52806000D01*
X106874142Y-52758380D01*
X107112238Y-52758380D01*
X107207476Y-52806000D01*
X107255095Y-52853619D01*
X107302714Y-52948857D01*
X107302714Y-53044095D01*
X107255095Y-53186952D01*
X106683666Y-53758380D01*
X107302714Y-53758380D01*
%TO.C,C8*%
X85685333Y-29157142D02*
X85637714Y-29204761D01*
X85494857Y-29252380D01*
X85399619Y-29252380D01*
X85256761Y-29204761D01*
X85161523Y-29109523D01*
X85113904Y-29014285D01*
X85066285Y-28823809D01*
X85066285Y-28680952D01*
X85113904Y-28490476D01*
X85161523Y-28395238D01*
X85256761Y-28300000D01*
X85399619Y-28252380D01*
X85494857Y-28252380D01*
X85637714Y-28300000D01*
X85685333Y-28347619D01*
X86256761Y-28680952D02*
X86161523Y-28633333D01*
X86113904Y-28585714D01*
X86066285Y-28490476D01*
X86066285Y-28442857D01*
X86113904Y-28347619D01*
X86161523Y-28300000D01*
X86256761Y-28252380D01*
X86447238Y-28252380D01*
X86542476Y-28300000D01*
X86590095Y-28347619D01*
X86637714Y-28442857D01*
X86637714Y-28490476D01*
X86590095Y-28585714D01*
X86542476Y-28633333D01*
X86447238Y-28680952D01*
X86256761Y-28680952D01*
X86161523Y-28728571D01*
X86113904Y-28776190D01*
X86066285Y-28871428D01*
X86066285Y-29061904D01*
X86113904Y-29157142D01*
X86161523Y-29204761D01*
X86256761Y-29252380D01*
X86447238Y-29252380D01*
X86542476Y-29204761D01*
X86590095Y-29157142D01*
X86637714Y-29061904D01*
X86637714Y-28871428D01*
X86590095Y-28776190D01*
X86542476Y-28728571D01*
X86447238Y-28680952D01*
%TO.C,K1*%
X79525904Y-168092380D02*
X79525904Y-167092380D01*
X80097333Y-168092380D02*
X79668761Y-167520952D01*
X80097333Y-167092380D02*
X79525904Y-167663809D01*
X81049714Y-168092380D02*
X80478285Y-168092380D01*
X80764000Y-168092380D02*
X80764000Y-167092380D01*
X80668761Y-167235238D01*
X80573523Y-167330476D01*
X80478285Y-167378095D01*
%TO.C,J1*%
X121586666Y-40600380D02*
X121586666Y-41314666D01*
X121539047Y-41457523D01*
X121443809Y-41552761D01*
X121300952Y-41600380D01*
X121205714Y-41600380D01*
X122586666Y-41600380D02*
X122015238Y-41600380D01*
X122300952Y-41600380D02*
X122300952Y-40600380D01*
X122205714Y-40743238D01*
X122110476Y-40838476D01*
X122015238Y-40886095D01*
D10*
%TO.C,C5*%
X101515333Y-82731428D02*
X101491142Y-82755619D01*
X101418571Y-82779809D01*
X101370190Y-82779809D01*
X101297619Y-82755619D01*
X101249238Y-82707238D01*
X101225047Y-82658857D01*
X101200857Y-82562095D01*
X101200857Y-82489523D01*
X101225047Y-82392761D01*
X101249238Y-82344380D01*
X101297619Y-82296000D01*
X101370190Y-82271809D01*
X101418571Y-82271809D01*
X101491142Y-82296000D01*
X101515333Y-82320190D01*
X101974952Y-82271809D02*
X101733047Y-82271809D01*
X101708857Y-82513714D01*
X101733047Y-82489523D01*
X101781428Y-82465333D01*
X101902380Y-82465333D01*
X101950761Y-82489523D01*
X101974952Y-82513714D01*
X101999142Y-82562095D01*
X101999142Y-82683047D01*
X101974952Y-82731428D01*
X101950761Y-82755619D01*
X101902380Y-82779809D01*
X101781428Y-82779809D01*
X101733047Y-82755619D01*
X101708857Y-82731428D01*
D11*
%TO.C,R21*%
X114328142Y-71538380D02*
X113994809Y-71062190D01*
X113756714Y-71538380D02*
X113756714Y-70538380D01*
X114137666Y-70538380D01*
X114232904Y-70586000D01*
X114280523Y-70633619D01*
X114328142Y-70728857D01*
X114328142Y-70871714D01*
X114280523Y-70966952D01*
X114232904Y-71014571D01*
X114137666Y-71062190D01*
X113756714Y-71062190D01*
X114709095Y-70633619D02*
X114756714Y-70586000D01*
X114851952Y-70538380D01*
X115090047Y-70538380D01*
X115185285Y-70586000D01*
X115232904Y-70633619D01*
X115280523Y-70728857D01*
X115280523Y-70824095D01*
X115232904Y-70966952D01*
X114661476Y-71538380D01*
X115280523Y-71538380D01*
X116232904Y-71538380D02*
X115661476Y-71538380D01*
X115947190Y-71538380D02*
X115947190Y-70538380D01*
X115851952Y-70681238D01*
X115756714Y-70776476D01*
X115661476Y-70824095D01*
%TO.C,R22*%
X92829142Y-45156380D02*
X92495809Y-44680190D01*
X92257714Y-45156380D02*
X92257714Y-44156380D01*
X92638666Y-44156380D01*
X92733904Y-44204000D01*
X92781523Y-44251619D01*
X92829142Y-44346857D01*
X92829142Y-44489714D01*
X92781523Y-44584952D01*
X92733904Y-44632571D01*
X92638666Y-44680190D01*
X92257714Y-44680190D01*
X93210095Y-44251619D02*
X93257714Y-44204000D01*
X93352952Y-44156380D01*
X93591047Y-44156380D01*
X93686285Y-44204000D01*
X93733904Y-44251619D01*
X93781523Y-44346857D01*
X93781523Y-44442095D01*
X93733904Y-44584952D01*
X93162476Y-45156380D01*
X93781523Y-45156380D01*
X94162476Y-44251619D02*
X94210095Y-44204000D01*
X94305333Y-44156380D01*
X94543428Y-44156380D01*
X94638666Y-44204000D01*
X94686285Y-44251619D01*
X94733904Y-44346857D01*
X94733904Y-44442095D01*
X94686285Y-44584952D01*
X94114857Y-45156380D01*
X94733904Y-45156380D01*
%TO.C,R6*%
X107783333Y-137612380D02*
X107450000Y-137136190D01*
X107211904Y-137612380D02*
X107211904Y-136612380D01*
X107592857Y-136612380D01*
X107688095Y-136660000D01*
X107735714Y-136707619D01*
X107783333Y-136802857D01*
X107783333Y-136945714D01*
X107735714Y-137040952D01*
X107688095Y-137088571D01*
X107592857Y-137136190D01*
X107211904Y-137136190D01*
X108640476Y-136612380D02*
X108450000Y-136612380D01*
X108354761Y-136660000D01*
X108307142Y-136707619D01*
X108211904Y-136850476D01*
X108164285Y-137040952D01*
X108164285Y-137421904D01*
X108211904Y-137517142D01*
X108259523Y-137564761D01*
X108354761Y-137612380D01*
X108545238Y-137612380D01*
X108640476Y-137564761D01*
X108688095Y-137517142D01*
X108735714Y-137421904D01*
X108735714Y-137183809D01*
X108688095Y-137088571D01*
X108640476Y-137040952D01*
X108545238Y-136993333D01*
X108354761Y-136993333D01*
X108259523Y-137040952D01*
X108211904Y-137088571D01*
X108164285Y-137183809D01*
%TO.C,J17*%
X69548476Y-55332380D02*
X69548476Y-56046666D01*
X69500857Y-56189523D01*
X69405619Y-56284761D01*
X69262761Y-56332380D01*
X69167523Y-56332380D01*
X70548476Y-56332380D02*
X69977047Y-56332380D01*
X70262761Y-56332380D02*
X70262761Y-55332380D01*
X70167523Y-55475238D01*
X70072285Y-55570476D01*
X69977047Y-55618095D01*
X70881809Y-55332380D02*
X71548476Y-55332380D01*
X71119904Y-56332380D01*
%TO.C,J5*%
X113966666Y-162520380D02*
X113966666Y-163234666D01*
X113919047Y-163377523D01*
X113823809Y-163472761D01*
X113680952Y-163520380D01*
X113585714Y-163520380D01*
X114919047Y-162520380D02*
X114442857Y-162520380D01*
X114395238Y-162996571D01*
X114442857Y-162948952D01*
X114538095Y-162901333D01*
X114776190Y-162901333D01*
X114871428Y-162948952D01*
X114919047Y-162996571D01*
X114966666Y-163091809D01*
X114966666Y-163329904D01*
X114919047Y-163425142D01*
X114871428Y-163472761D01*
X114776190Y-163520380D01*
X114538095Y-163520380D01*
X114442857Y-163472761D01*
X114395238Y-163425142D01*
%TO.C,R1*%
X106325333Y-56298380D02*
X105992000Y-55822190D01*
X105753904Y-56298380D02*
X105753904Y-55298380D01*
X106134857Y-55298380D01*
X106230095Y-55346000D01*
X106277714Y-55393619D01*
X106325333Y-55488857D01*
X106325333Y-55631714D01*
X106277714Y-55726952D01*
X106230095Y-55774571D01*
X106134857Y-55822190D01*
X105753904Y-55822190D01*
X107277714Y-56298380D02*
X106706285Y-56298380D01*
X106992000Y-56298380D02*
X106992000Y-55298380D01*
X106896761Y-55441238D01*
X106801523Y-55536476D01*
X106706285Y-55584095D01*
%TO.C,J18*%
X63706476Y-167346380D02*
X63706476Y-168060666D01*
X63658857Y-168203523D01*
X63563619Y-168298761D01*
X63420761Y-168346380D01*
X63325523Y-168346380D01*
X64706476Y-168346380D02*
X64135047Y-168346380D01*
X64420761Y-168346380D02*
X64420761Y-167346380D01*
X64325523Y-167489238D01*
X64230285Y-167584476D01*
X64135047Y-167632095D01*
X65277904Y-167774952D02*
X65182666Y-167727333D01*
X65135047Y-167679714D01*
X65087428Y-167584476D01*
X65087428Y-167536857D01*
X65135047Y-167441619D01*
X65182666Y-167394000D01*
X65277904Y-167346380D01*
X65468380Y-167346380D01*
X65563619Y-167394000D01*
X65611238Y-167441619D01*
X65658857Y-167536857D01*
X65658857Y-167584476D01*
X65611238Y-167679714D01*
X65563619Y-167727333D01*
X65468380Y-167774952D01*
X65277904Y-167774952D01*
X65182666Y-167822571D01*
X65135047Y-167870190D01*
X65087428Y-167965428D01*
X65087428Y-168155904D01*
X65135047Y-168251142D01*
X65182666Y-168298761D01*
X65277904Y-168346380D01*
X65468380Y-168346380D01*
X65563619Y-168298761D01*
X65611238Y-168251142D01*
X65658857Y-168155904D01*
X65658857Y-167965428D01*
X65611238Y-167870190D01*
X65563619Y-167822571D01*
X65468380Y-167774952D01*
%TO.C,C16*%
X98671142Y-43290394D02*
X98623523Y-43338013D01*
X98480666Y-43385632D01*
X98385428Y-43385632D01*
X98242571Y-43338013D01*
X98147333Y-43242775D01*
X98099714Y-43147537D01*
X98052095Y-42957061D01*
X98052095Y-42814204D01*
X98099714Y-42623728D01*
X98147333Y-42528490D01*
X98242571Y-42433252D01*
X98385428Y-42385632D01*
X98480666Y-42385632D01*
X98623523Y-42433252D01*
X98671142Y-42480871D01*
X99623523Y-43385632D02*
X99052095Y-43385632D01*
X99337809Y-43385632D02*
X99337809Y-42385632D01*
X99242571Y-42528490D01*
X99147333Y-42623728D01*
X99052095Y-42671347D01*
X100480666Y-42385632D02*
X100290190Y-42385632D01*
X100194952Y-42433252D01*
X100147333Y-42480871D01*
X100052095Y-42623728D01*
X100004476Y-42814204D01*
X100004476Y-43195156D01*
X100052095Y-43290394D01*
X100099714Y-43338013D01*
X100194952Y-43385632D01*
X100385428Y-43385632D01*
X100480666Y-43338013D01*
X100528285Y-43290394D01*
X100575904Y-43195156D01*
X100575904Y-42957061D01*
X100528285Y-42861823D01*
X100480666Y-42814204D01*
X100385428Y-42766585D01*
X100194952Y-42766585D01*
X100099714Y-42814204D01*
X100052095Y-42861823D01*
X100004476Y-42957061D01*
%TO.C,J15*%
X110442476Y-79462380D02*
X110442476Y-80176666D01*
X110394857Y-80319523D01*
X110299619Y-80414761D01*
X110156761Y-80462380D01*
X110061523Y-80462380D01*
X111442476Y-80462380D02*
X110871047Y-80462380D01*
X111156761Y-80462380D02*
X111156761Y-79462380D01*
X111061523Y-79605238D01*
X110966285Y-79700476D01*
X110871047Y-79748095D01*
X112347238Y-79462380D02*
X111871047Y-79462380D01*
X111823428Y-79938571D01*
X111871047Y-79890952D01*
X111966285Y-79843333D01*
X112204380Y-79843333D01*
X112299619Y-79890952D01*
X112347238Y-79938571D01*
X112394857Y-80033809D01*
X112394857Y-80271904D01*
X112347238Y-80367142D01*
X112299619Y-80414761D01*
X112204380Y-80462380D01*
X111966285Y-80462380D01*
X111871047Y-80414761D01*
X111823428Y-80367142D01*
%TO.C,J3*%
X113966666Y-141214380D02*
X113966666Y-141928666D01*
X113919047Y-142071523D01*
X113823809Y-142166761D01*
X113680952Y-142214380D01*
X113585714Y-142214380D01*
X114347619Y-141214380D02*
X114966666Y-141214380D01*
X114633333Y-141595333D01*
X114776190Y-141595333D01*
X114871428Y-141642952D01*
X114919047Y-141690571D01*
X114966666Y-141785809D01*
X114966666Y-142023904D01*
X114919047Y-142119142D01*
X114871428Y-142166761D01*
X114776190Y-142214380D01*
X114490476Y-142214380D01*
X114395238Y-142166761D01*
X114347619Y-142119142D01*
%TO.C,R7*%
X94829333Y-69286380D02*
X94496000Y-68810190D01*
X94257904Y-69286380D02*
X94257904Y-68286380D01*
X94638857Y-68286380D01*
X94734095Y-68334000D01*
X94781714Y-68381619D01*
X94829333Y-68476857D01*
X94829333Y-68619714D01*
X94781714Y-68714952D01*
X94734095Y-68762571D01*
X94638857Y-68810190D01*
X94257904Y-68810190D01*
X95162666Y-68286380D02*
X95829333Y-68286380D01*
X95400761Y-69286380D01*
%TO.C,R5*%
X115657333Y-155392380D02*
X115324000Y-154916190D01*
X115085904Y-155392380D02*
X115085904Y-154392380D01*
X115466857Y-154392380D01*
X115562095Y-154440000D01*
X115609714Y-154487619D01*
X115657333Y-154582857D01*
X115657333Y-154725714D01*
X115609714Y-154820952D01*
X115562095Y-154868571D01*
X115466857Y-154916190D01*
X115085904Y-154916190D01*
X116562095Y-154392380D02*
X116085904Y-154392380D01*
X116038285Y-154868571D01*
X116085904Y-154820952D01*
X116181142Y-154773333D01*
X116419238Y-154773333D01*
X116514476Y-154820952D01*
X116562095Y-154868571D01*
X116609714Y-154963809D01*
X116609714Y-155201904D01*
X116562095Y-155297142D01*
X116514476Y-155344761D01*
X116419238Y-155392380D01*
X116181142Y-155392380D01*
X116085904Y-155344761D01*
X116038285Y-155297142D01*
%TO.C,J8*%
X114474666Y-66508380D02*
X114474666Y-67222666D01*
X114427047Y-67365523D01*
X114331809Y-67460761D01*
X114188952Y-67508380D01*
X114093714Y-67508380D01*
X115093714Y-66936952D02*
X114998476Y-66889333D01*
X114950857Y-66841714D01*
X114903238Y-66746476D01*
X114903238Y-66698857D01*
X114950857Y-66603619D01*
X114998476Y-66556000D01*
X115093714Y-66508380D01*
X115284190Y-66508380D01*
X115379428Y-66556000D01*
X115427047Y-66603619D01*
X115474666Y-66698857D01*
X115474666Y-66746476D01*
X115427047Y-66841714D01*
X115379428Y-66889333D01*
X115284190Y-66936952D01*
X115093714Y-66936952D01*
X114998476Y-66984571D01*
X114950857Y-67032190D01*
X114903238Y-67127428D01*
X114903238Y-67317904D01*
X114950857Y-67413142D01*
X114998476Y-67460761D01*
X115093714Y-67508380D01*
X115284190Y-67508380D01*
X115379428Y-67460761D01*
X115427047Y-67413142D01*
X115474666Y-67317904D01*
X115474666Y-67127428D01*
X115427047Y-67032190D01*
X115379428Y-66984571D01*
X115284190Y-66936952D01*
%TO.C,R20*%
X92829142Y-48170380D02*
X92495809Y-47694190D01*
X92257714Y-48170380D02*
X92257714Y-47170380D01*
X92638666Y-47170380D01*
X92733904Y-47218000D01*
X92781523Y-47265619D01*
X92829142Y-47360857D01*
X92829142Y-47503714D01*
X92781523Y-47598952D01*
X92733904Y-47646571D01*
X92638666Y-47694190D01*
X92257714Y-47694190D01*
X93210095Y-47265619D02*
X93257714Y-47218000D01*
X93352952Y-47170380D01*
X93591047Y-47170380D01*
X93686285Y-47218000D01*
X93733904Y-47265619D01*
X93781523Y-47360857D01*
X93781523Y-47456095D01*
X93733904Y-47598952D01*
X93162476Y-48170380D01*
X93781523Y-48170380D01*
X94400571Y-47170380D02*
X94495809Y-47170380D01*
X94591047Y-47218000D01*
X94638666Y-47265619D01*
X94686285Y-47360857D01*
X94733904Y-47551333D01*
X94733904Y-47789428D01*
X94686285Y-47979904D01*
X94638666Y-48075142D01*
X94591047Y-48122761D01*
X94495809Y-48170380D01*
X94400571Y-48170380D01*
X94305333Y-48122761D01*
X94257714Y-48075142D01*
X94210095Y-47979904D01*
X94162476Y-47789428D01*
X94162476Y-47551333D01*
X94210095Y-47360857D01*
X94257714Y-47265619D01*
X94305333Y-47218000D01*
X94400571Y-47170380D01*
%TO.C,C18*%
X110355142Y-149455142D02*
X110307523Y-149502761D01*
X110164666Y-149550380D01*
X110069428Y-149550380D01*
X109926571Y-149502761D01*
X109831333Y-149407523D01*
X109783714Y-149312285D01*
X109736095Y-149121809D01*
X109736095Y-148978952D01*
X109783714Y-148788476D01*
X109831333Y-148693238D01*
X109926571Y-148598000D01*
X110069428Y-148550380D01*
X110164666Y-148550380D01*
X110307523Y-148598000D01*
X110355142Y-148645619D01*
X111307523Y-149550380D02*
X110736095Y-149550380D01*
X111021809Y-149550380D02*
X111021809Y-148550380D01*
X110926571Y-148693238D01*
X110831333Y-148788476D01*
X110736095Y-148836095D01*
X111878952Y-148978952D02*
X111783714Y-148931333D01*
X111736095Y-148883714D01*
X111688476Y-148788476D01*
X111688476Y-148740857D01*
X111736095Y-148645619D01*
X111783714Y-148598000D01*
X111878952Y-148550380D01*
X112069428Y-148550380D01*
X112164666Y-148598000D01*
X112212285Y-148645619D01*
X112259904Y-148740857D01*
X112259904Y-148788476D01*
X112212285Y-148883714D01*
X112164666Y-148931333D01*
X112069428Y-148978952D01*
X111878952Y-148978952D01*
X111783714Y-149026571D01*
X111736095Y-149074190D01*
X111688476Y-149169428D01*
X111688476Y-149359904D01*
X111736095Y-149455142D01*
X111783714Y-149502761D01*
X111878952Y-149550380D01*
X112069428Y-149550380D01*
X112164666Y-149502761D01*
X112212285Y-149455142D01*
X112259904Y-149359904D01*
X112259904Y-149169428D01*
X112212285Y-149074190D01*
X112164666Y-149026571D01*
X112069428Y-148978952D01*
%TO.C,J21*%
X83518476Y-66034380D02*
X83518476Y-66748666D01*
X83470857Y-66891523D01*
X83375619Y-66986761D01*
X83232761Y-67034380D01*
X83137523Y-67034380D01*
X83947047Y-66129619D02*
X83994666Y-66082000D01*
X84089904Y-66034380D01*
X84328000Y-66034380D01*
X84423238Y-66082000D01*
X84470857Y-66129619D01*
X84518476Y-66224857D01*
X84518476Y-66320095D01*
X84470857Y-66462952D01*
X83899428Y-67034380D01*
X84518476Y-67034380D01*
X85470857Y-67034380D02*
X84899428Y-67034380D01*
X85185142Y-67034380D02*
X85185142Y-66034380D01*
X85089904Y-66177238D01*
X84994666Y-66272476D01*
X84899428Y-66320095D01*
%TO.C,U6*%
X75438095Y-83076380D02*
X75438095Y-83885904D01*
X75485714Y-83981142D01*
X75533333Y-84028761D01*
X75628571Y-84076380D01*
X75819047Y-84076380D01*
X75914285Y-84028761D01*
X75961904Y-83981142D01*
X76009523Y-83885904D01*
X76009523Y-83076380D01*
X76914285Y-83076380D02*
X76723809Y-83076380D01*
X76628571Y-83124000D01*
X76580952Y-83171619D01*
X76485714Y-83314476D01*
X76438095Y-83504952D01*
X76438095Y-83885904D01*
X76485714Y-83981142D01*
X76533333Y-84028761D01*
X76628571Y-84076380D01*
X76819047Y-84076380D01*
X76914285Y-84028761D01*
X76961904Y-83981142D01*
X77009523Y-83885904D01*
X77009523Y-83647809D01*
X76961904Y-83552571D01*
X76914285Y-83504952D01*
X76819047Y-83457333D01*
X76628571Y-83457333D01*
X76533333Y-83504952D01*
X76485714Y-83552571D01*
X76438095Y-83647809D01*
%TO.C,K4*%
X80287904Y-114498380D02*
X80287904Y-113498380D01*
X80859333Y-114498380D02*
X80430761Y-113926952D01*
X80859333Y-113498380D02*
X80287904Y-114069809D01*
X81716476Y-113831714D02*
X81716476Y-114498380D01*
X81478380Y-113450761D02*
X81240285Y-114165047D01*
X81859333Y-114165047D01*
D10*
%TO.C,C3*%
X104309333Y-78667428D02*
X104285142Y-78691619D01*
X104212571Y-78715809D01*
X104164190Y-78715809D01*
X104091619Y-78691619D01*
X104043238Y-78643238D01*
X104019047Y-78594857D01*
X103994857Y-78498095D01*
X103994857Y-78425523D01*
X104019047Y-78328761D01*
X104043238Y-78280380D01*
X104091619Y-78232000D01*
X104164190Y-78207809D01*
X104212571Y-78207809D01*
X104285142Y-78232000D01*
X104309333Y-78256190D01*
X104478666Y-78207809D02*
X104793142Y-78207809D01*
X104623809Y-78401333D01*
X104696380Y-78401333D01*
X104744761Y-78425523D01*
X104768952Y-78449714D01*
X104793142Y-78498095D01*
X104793142Y-78619047D01*
X104768952Y-78667428D01*
X104744761Y-78691619D01*
X104696380Y-78715809D01*
X104551238Y-78715809D01*
X104502857Y-78691619D01*
X104478666Y-78667428D01*
%TO.C,C10*%
X98225428Y-69269428D02*
X98201238Y-69293619D01*
X98128666Y-69317809D01*
X98080285Y-69317809D01*
X98007714Y-69293619D01*
X97959333Y-69245238D01*
X97935142Y-69196857D01*
X97910952Y-69100095D01*
X97910952Y-69027523D01*
X97935142Y-68930761D01*
X97959333Y-68882380D01*
X98007714Y-68834000D01*
X98080285Y-68809809D01*
X98128666Y-68809809D01*
X98201238Y-68834000D01*
X98225428Y-68858190D01*
X98709238Y-69317809D02*
X98418952Y-69317809D01*
X98564095Y-69317809D02*
X98564095Y-68809809D01*
X98515714Y-68882380D01*
X98467333Y-68930761D01*
X98418952Y-68954952D01*
X99023714Y-68809809D02*
X99072095Y-68809809D01*
X99120476Y-68834000D01*
X99144666Y-68858190D01*
X99168857Y-68906571D01*
X99193047Y-69003333D01*
X99193047Y-69124285D01*
X99168857Y-69221047D01*
X99144666Y-69269428D01*
X99120476Y-69293619D01*
X99072095Y-69317809D01*
X99023714Y-69317809D01*
X98975333Y-69293619D01*
X98951142Y-69269428D01*
X98926952Y-69221047D01*
X98902761Y-69124285D01*
X98902761Y-69003333D01*
X98926952Y-68906571D01*
X98951142Y-68858190D01*
X98975333Y-68834000D01*
X99023714Y-68809809D01*
D11*
%TO.C,J16*%
X88852476Y-50760380D02*
X88852476Y-51474666D01*
X88804857Y-51617523D01*
X88709619Y-51712761D01*
X88566761Y-51760380D01*
X88471523Y-51760380D01*
X89852476Y-51760380D02*
X89281047Y-51760380D01*
X89566761Y-51760380D02*
X89566761Y-50760380D01*
X89471523Y-50903238D01*
X89376285Y-50998476D01*
X89281047Y-51046095D01*
X90709619Y-50760380D02*
X90519142Y-50760380D01*
X90423904Y-50808000D01*
X90376285Y-50855619D01*
X90281047Y-50998476D01*
X90233428Y-51188952D01*
X90233428Y-51569904D01*
X90281047Y-51665142D01*
X90328666Y-51712761D01*
X90423904Y-51760380D01*
X90614380Y-51760380D01*
X90709619Y-51712761D01*
X90757238Y-51665142D01*
X90804857Y-51569904D01*
X90804857Y-51331809D01*
X90757238Y-51236571D01*
X90709619Y-51188952D01*
X90614380Y-51141333D01*
X90423904Y-51141333D01*
X90328666Y-51188952D01*
X90281047Y-51236571D01*
X90233428Y-51331809D01*
%TO.C,U1*%
X104140095Y-141692380D02*
X104140095Y-142501904D01*
X104187714Y-142597142D01*
X104235333Y-142644761D01*
X104330571Y-142692380D01*
X104521047Y-142692380D01*
X104616285Y-142644761D01*
X104663904Y-142597142D01*
X104711523Y-142501904D01*
X104711523Y-141692380D01*
X105711523Y-142692380D02*
X105140095Y-142692380D01*
X105425809Y-142692380D02*
X105425809Y-141692380D01*
X105330571Y-141835238D01*
X105235333Y-141930476D01*
X105140095Y-141978095D01*
%TO.C,L1*%
X103465333Y-40584380D02*
X102989142Y-40584380D01*
X102989142Y-39584380D01*
X104322476Y-40584380D02*
X103751047Y-40584380D01*
X104036761Y-40584380D02*
X104036761Y-39584380D01*
X103941523Y-39727238D01*
X103846285Y-39822476D01*
X103751047Y-39870095D01*
%TO.C,RV3*%
X82970761Y-77160380D02*
X82637428Y-76684190D01*
X82399333Y-77160380D02*
X82399333Y-76160380D01*
X82780285Y-76160380D01*
X82875523Y-76208000D01*
X82923142Y-76255619D01*
X82970761Y-76350857D01*
X82970761Y-76493714D01*
X82923142Y-76588952D01*
X82875523Y-76636571D01*
X82780285Y-76684190D01*
X82399333Y-76684190D01*
X83256476Y-76160380D02*
X83589809Y-77160380D01*
X83923142Y-76160380D01*
X84161238Y-76160380D02*
X84780285Y-76160380D01*
X84446952Y-76541333D01*
X84589809Y-76541333D01*
X84685047Y-76588952D01*
X84732666Y-76636571D01*
X84780285Y-76731809D01*
X84780285Y-76969904D01*
X84732666Y-77065142D01*
X84685047Y-77112761D01*
X84589809Y-77160380D01*
X84304095Y-77160380D01*
X84208857Y-77112761D01*
X84161238Y-77065142D01*
%TO.C,R10*%
X106799142Y-131516380D02*
X106465809Y-131040190D01*
X106227714Y-131516380D02*
X106227714Y-130516380D01*
X106608666Y-130516380D01*
X106703904Y-130564000D01*
X106751523Y-130611619D01*
X106799142Y-130706857D01*
X106799142Y-130849714D01*
X106751523Y-130944952D01*
X106703904Y-130992571D01*
X106608666Y-131040190D01*
X106227714Y-131040190D01*
X107751523Y-131516380D02*
X107180095Y-131516380D01*
X107465809Y-131516380D02*
X107465809Y-130516380D01*
X107370571Y-130659238D01*
X107275333Y-130754476D01*
X107180095Y-130802095D01*
X108370571Y-130516380D02*
X108465809Y-130516380D01*
X108561047Y-130564000D01*
X108608666Y-130611619D01*
X108656285Y-130706857D01*
X108703904Y-130897333D01*
X108703904Y-131135428D01*
X108656285Y-131325904D01*
X108608666Y-131421142D01*
X108561047Y-131468761D01*
X108465809Y-131516380D01*
X108370571Y-131516380D01*
X108275333Y-131468761D01*
X108227714Y-131421142D01*
X108180095Y-131325904D01*
X108132476Y-131135428D01*
X108132476Y-130897333D01*
X108180095Y-130706857D01*
X108227714Y-130611619D01*
X108275333Y-130564000D01*
X108370571Y-130516380D01*
%TO.C,R14*%
X89273142Y-43632380D02*
X88939809Y-43156190D01*
X88701714Y-43632380D02*
X88701714Y-42632380D01*
X89082666Y-42632380D01*
X89177904Y-42680000D01*
X89225523Y-42727619D01*
X89273142Y-42822857D01*
X89273142Y-42965714D01*
X89225523Y-43060952D01*
X89177904Y-43108571D01*
X89082666Y-43156190D01*
X88701714Y-43156190D01*
X90225523Y-43632380D02*
X89654095Y-43632380D01*
X89939809Y-43632380D02*
X89939809Y-42632380D01*
X89844571Y-42775238D01*
X89749333Y-42870476D01*
X89654095Y-42918095D01*
X91082666Y-42965714D02*
X91082666Y-43632380D01*
X90844571Y-42584761D02*
X90606476Y-43299047D01*
X91225523Y-43299047D01*
D10*
%TO.C,C2*%
X97705333Y-67237428D02*
X97681142Y-67261619D01*
X97608571Y-67285809D01*
X97560190Y-67285809D01*
X97487619Y-67261619D01*
X97439238Y-67213238D01*
X97415047Y-67164857D01*
X97390857Y-67068095D01*
X97390857Y-66995523D01*
X97415047Y-66898761D01*
X97439238Y-66850380D01*
X97487619Y-66802000D01*
X97560190Y-66777809D01*
X97608571Y-66777809D01*
X97681142Y-66802000D01*
X97705333Y-66826190D01*
X97898857Y-66826190D02*
X97923047Y-66802000D01*
X97971428Y-66777809D01*
X98092380Y-66777809D01*
X98140761Y-66802000D01*
X98164952Y-66826190D01*
X98189142Y-66874571D01*
X98189142Y-66922952D01*
X98164952Y-66995523D01*
X97874666Y-67285809D01*
X98189142Y-67285809D01*
D11*
%TO.C,R13*%
X84193142Y-44140380D02*
X83859809Y-43664190D01*
X83621714Y-44140380D02*
X83621714Y-43140380D01*
X84002666Y-43140380D01*
X84097904Y-43188000D01*
X84145523Y-43235619D01*
X84193142Y-43330857D01*
X84193142Y-43473714D01*
X84145523Y-43568952D01*
X84097904Y-43616571D01*
X84002666Y-43664190D01*
X83621714Y-43664190D01*
X85145523Y-44140380D02*
X84574095Y-44140380D01*
X84859809Y-44140380D02*
X84859809Y-43140380D01*
X84764571Y-43283238D01*
X84669333Y-43378476D01*
X84574095Y-43426095D01*
X85478857Y-43140380D02*
X86097904Y-43140380D01*
X85764571Y-43521333D01*
X85907428Y-43521333D01*
X86002666Y-43568952D01*
X86050285Y-43616571D01*
X86097904Y-43711809D01*
X86097904Y-43949904D01*
X86050285Y-44045142D01*
X86002666Y-44092761D01*
X85907428Y-44140380D01*
X85621714Y-44140380D01*
X85526476Y-44092761D01*
X85478857Y-44045142D01*
%TO.C,U4*%
X87630095Y-36536380D02*
X87630095Y-37345904D01*
X87677714Y-37441142D01*
X87725333Y-37488761D01*
X87820571Y-37536380D01*
X88011047Y-37536380D01*
X88106285Y-37488761D01*
X88153904Y-37441142D01*
X88201523Y-37345904D01*
X88201523Y-36536380D01*
X89106285Y-36869714D02*
X89106285Y-37536380D01*
X88868190Y-36488761D02*
X88630095Y-37203047D01*
X89249142Y-37203047D01*
%TO.C,C1*%
X101687333Y-67413142D02*
X101639714Y-67460761D01*
X101496857Y-67508380D01*
X101401619Y-67508380D01*
X101258761Y-67460761D01*
X101163523Y-67365523D01*
X101115904Y-67270285D01*
X101068285Y-67079809D01*
X101068285Y-66936952D01*
X101115904Y-66746476D01*
X101163523Y-66651238D01*
X101258761Y-66556000D01*
X101401619Y-66508380D01*
X101496857Y-66508380D01*
X101639714Y-66556000D01*
X101687333Y-66603619D01*
X102639714Y-67508380D02*
X102068285Y-67508380D01*
X102354000Y-67508380D02*
X102354000Y-66508380D01*
X102258761Y-66651238D01*
X102163523Y-66746476D01*
X102068285Y-66794095D01*
%TO.C,J9*%
X114474666Y-103846380D02*
X114474666Y-104560666D01*
X114427047Y-104703523D01*
X114331809Y-104798761D01*
X114188952Y-104846380D01*
X114093714Y-104846380D01*
X114998476Y-104846380D02*
X115188952Y-104846380D01*
X115284190Y-104798761D01*
X115331809Y-104751142D01*
X115427047Y-104608285D01*
X115474666Y-104417809D01*
X115474666Y-104036857D01*
X115427047Y-103941619D01*
X115379428Y-103894000D01*
X115284190Y-103846380D01*
X115093714Y-103846380D01*
X114998476Y-103894000D01*
X114950857Y-103941619D01*
X114903238Y-104036857D01*
X114903238Y-104274952D01*
X114950857Y-104370190D01*
X114998476Y-104417809D01*
X115093714Y-104465428D01*
X115284190Y-104465428D01*
X115379428Y-104417809D01*
X115427047Y-104370190D01*
X115474666Y-104274952D01*
%TO.C,C4*%
X102703333Y-76811142D02*
X102655714Y-76858761D01*
X102512857Y-76906380D01*
X102417619Y-76906380D01*
X102274761Y-76858761D01*
X102179523Y-76763523D01*
X102131904Y-76668285D01*
X102084285Y-76477809D01*
X102084285Y-76334952D01*
X102131904Y-76144476D01*
X102179523Y-76049238D01*
X102274761Y-75954000D01*
X102417619Y-75906380D01*
X102512857Y-75906380D01*
X102655714Y-75954000D01*
X102703333Y-76001619D01*
X103560476Y-76239714D02*
X103560476Y-76906380D01*
X103322380Y-75858761D02*
X103084285Y-76573047D01*
X103703333Y-76573047D01*
%TO.C,C9*%
X85873333Y-26739142D02*
X85825714Y-26786761D01*
X85682857Y-26834380D01*
X85587619Y-26834380D01*
X85444761Y-26786761D01*
X85349523Y-26691523D01*
X85301904Y-26596285D01*
X85254285Y-26405809D01*
X85254285Y-26262952D01*
X85301904Y-26072476D01*
X85349523Y-25977238D01*
X85444761Y-25882000D01*
X85587619Y-25834380D01*
X85682857Y-25834380D01*
X85825714Y-25882000D01*
X85873333Y-25929619D01*
X86349523Y-26834380D02*
X86540000Y-26834380D01*
X86635238Y-26786761D01*
X86682857Y-26739142D01*
X86778095Y-26596285D01*
X86825714Y-26405809D01*
X86825714Y-26024857D01*
X86778095Y-25929619D01*
X86730476Y-25882000D01*
X86635238Y-25834380D01*
X86444761Y-25834380D01*
X86349523Y-25882000D01*
X86301904Y-25929619D01*
X86254285Y-26024857D01*
X86254285Y-26262952D01*
X86301904Y-26358190D01*
X86349523Y-26405809D01*
X86444761Y-26453428D01*
X86635238Y-26453428D01*
X86730476Y-26405809D01*
X86778095Y-26358190D01*
X86825714Y-26262952D01*
%TO.C,C15*%
X108069142Y-37949142D02*
X108021523Y-37996761D01*
X107878666Y-38044380D01*
X107783428Y-38044380D01*
X107640571Y-37996761D01*
X107545333Y-37901523D01*
X107497714Y-37806285D01*
X107450095Y-37615809D01*
X107450095Y-37472952D01*
X107497714Y-37282476D01*
X107545333Y-37187238D01*
X107640571Y-37092000D01*
X107783428Y-37044380D01*
X107878666Y-37044380D01*
X108021523Y-37092000D01*
X108069142Y-37139619D01*
X109021523Y-38044380D02*
X108450095Y-38044380D01*
X108735809Y-38044380D02*
X108735809Y-37044380D01*
X108640571Y-37187238D01*
X108545333Y-37282476D01*
X108450095Y-37330095D01*
X109926285Y-37044380D02*
X109450095Y-37044380D01*
X109402476Y-37520571D01*
X109450095Y-37472952D01*
X109545333Y-37425333D01*
X109783428Y-37425333D01*
X109878666Y-37472952D01*
X109926285Y-37520571D01*
X109973904Y-37615809D01*
X109973904Y-37853904D01*
X109926285Y-37949142D01*
X109878666Y-37996761D01*
X109783428Y-38044380D01*
X109545333Y-38044380D01*
X109450095Y-37996761D01*
X109402476Y-37949142D01*
%TO.C,R18*%
X105529142Y-106878380D02*
X105195809Y-106402190D01*
X104957714Y-106878380D02*
X104957714Y-105878380D01*
X105338666Y-105878380D01*
X105433904Y-105926000D01*
X105481523Y-105973619D01*
X105529142Y-106068857D01*
X105529142Y-106211714D01*
X105481523Y-106306952D01*
X105433904Y-106354571D01*
X105338666Y-106402190D01*
X104957714Y-106402190D01*
X106481523Y-106878380D02*
X105910095Y-106878380D01*
X106195809Y-106878380D02*
X106195809Y-105878380D01*
X106100571Y-106021238D01*
X106005333Y-106116476D01*
X105910095Y-106164095D01*
X107052952Y-106306952D02*
X106957714Y-106259333D01*
X106910095Y-106211714D01*
X106862476Y-106116476D01*
X106862476Y-106068857D01*
X106910095Y-105973619D01*
X106957714Y-105926000D01*
X107052952Y-105878380D01*
X107243428Y-105878380D01*
X107338666Y-105926000D01*
X107386285Y-105973619D01*
X107433904Y-106068857D01*
X107433904Y-106116476D01*
X107386285Y-106211714D01*
X107338666Y-106259333D01*
X107243428Y-106306952D01*
X107052952Y-106306952D01*
X106957714Y-106354571D01*
X106910095Y-106402190D01*
X106862476Y-106497428D01*
X106862476Y-106687904D01*
X106910095Y-106783142D01*
X106957714Y-106830761D01*
X107052952Y-106878380D01*
X107243428Y-106878380D01*
X107338666Y-106830761D01*
X107386285Y-106783142D01*
X107433904Y-106687904D01*
X107433904Y-106497428D01*
X107386285Y-106402190D01*
X107338666Y-106354571D01*
X107243428Y-106306952D01*
%TO.C,R23*%
X79621142Y-60108380D02*
X79287809Y-59632190D01*
X79049714Y-60108380D02*
X79049714Y-59108380D01*
X79430666Y-59108380D01*
X79525904Y-59156000D01*
X79573523Y-59203619D01*
X79621142Y-59298857D01*
X79621142Y-59441714D01*
X79573523Y-59536952D01*
X79525904Y-59584571D01*
X79430666Y-59632190D01*
X79049714Y-59632190D01*
X80002095Y-59203619D02*
X80049714Y-59156000D01*
X80144952Y-59108380D01*
X80383047Y-59108380D01*
X80478285Y-59156000D01*
X80525904Y-59203619D01*
X80573523Y-59298857D01*
X80573523Y-59394095D01*
X80525904Y-59536952D01*
X79954476Y-60108380D01*
X80573523Y-60108380D01*
X80906857Y-59108380D02*
X81525904Y-59108380D01*
X81192571Y-59489333D01*
X81335428Y-59489333D01*
X81430666Y-59536952D01*
X81478285Y-59584571D01*
X81525904Y-59679809D01*
X81525904Y-59917904D01*
X81478285Y-60013142D01*
X81430666Y-60060761D01*
X81335428Y-60108380D01*
X81049714Y-60108380D01*
X80954476Y-60060761D01*
X80906857Y-60013142D01*
D10*
%TO.C,C7*%
X90085333Y-85271428D02*
X90061142Y-85295619D01*
X89988571Y-85319809D01*
X89940190Y-85319809D01*
X89867619Y-85295619D01*
X89819238Y-85247238D01*
X89795047Y-85198857D01*
X89770857Y-85102095D01*
X89770857Y-85029523D01*
X89795047Y-84932761D01*
X89819238Y-84884380D01*
X89867619Y-84836000D01*
X89940190Y-84811809D01*
X89988571Y-84811809D01*
X90061142Y-84836000D01*
X90085333Y-84860190D01*
X90254666Y-84811809D02*
X90593333Y-84811809D01*
X90375619Y-85319809D01*
D11*
%TO.C,R19*%
X114165142Y-76110380D02*
X113831809Y-75634190D01*
X113593714Y-76110380D02*
X113593714Y-75110380D01*
X113974666Y-75110380D01*
X114069904Y-75158000D01*
X114117523Y-75205619D01*
X114165142Y-75300857D01*
X114165142Y-75443714D01*
X114117523Y-75538952D01*
X114069904Y-75586571D01*
X113974666Y-75634190D01*
X113593714Y-75634190D01*
X115117523Y-76110380D02*
X114546095Y-76110380D01*
X114831809Y-76110380D02*
X114831809Y-75110380D01*
X114736571Y-75253238D01*
X114641333Y-75348476D01*
X114546095Y-75396095D01*
X115593714Y-76110380D02*
X115784190Y-76110380D01*
X115879428Y-76062761D01*
X115927047Y-76015142D01*
X116022285Y-75872285D01*
X116069904Y-75681809D01*
X116069904Y-75300857D01*
X116022285Y-75205619D01*
X115974666Y-75158000D01*
X115879428Y-75110380D01*
X115688952Y-75110380D01*
X115593714Y-75158000D01*
X115546095Y-75205619D01*
X115498476Y-75300857D01*
X115498476Y-75538952D01*
X115546095Y-75634190D01*
X115593714Y-75681809D01*
X115688952Y-75729428D01*
X115879428Y-75729428D01*
X115974666Y-75681809D01*
X116022285Y-75634190D01*
X116069904Y-75538952D01*
%TO.C,C14*%
X115181142Y-33311142D02*
X115133523Y-33358761D01*
X114990666Y-33406380D01*
X114895428Y-33406380D01*
X114752571Y-33358761D01*
X114657333Y-33263523D01*
X114609714Y-33168285D01*
X114562095Y-32977809D01*
X114562095Y-32834952D01*
X114609714Y-32644476D01*
X114657333Y-32549238D01*
X114752571Y-32454000D01*
X114895428Y-32406380D01*
X114990666Y-32406380D01*
X115133523Y-32454000D01*
X115181142Y-32501619D01*
X116133523Y-33406380D02*
X115562095Y-33406380D01*
X115847809Y-33406380D02*
X115847809Y-32406380D01*
X115752571Y-32549238D01*
X115657333Y-32644476D01*
X115562095Y-32692095D01*
X116990666Y-32739714D02*
X116990666Y-33406380D01*
X116752571Y-32358761D02*
X116514476Y-33073047D01*
X117133523Y-33073047D01*
%TO.C,J4*%
X113204666Y-116292380D02*
X113204666Y-117006666D01*
X113157047Y-117149523D01*
X113061809Y-117244761D01*
X112918952Y-117292380D01*
X112823714Y-117292380D01*
X114109428Y-116625714D02*
X114109428Y-117292380D01*
X113871333Y-116244761D02*
X113633238Y-116959047D01*
X114252285Y-116959047D01*
%TO.C,J11*%
X69294476Y-77684380D02*
X69294476Y-78398666D01*
X69246857Y-78541523D01*
X69151619Y-78636761D01*
X69008761Y-78684380D01*
X68913523Y-78684380D01*
X70294476Y-78684380D02*
X69723047Y-78684380D01*
X70008761Y-78684380D02*
X70008761Y-77684380D01*
X69913523Y-77827238D01*
X69818285Y-77922476D01*
X69723047Y-77970095D01*
X71246857Y-78684380D02*
X70675428Y-78684380D01*
X70961142Y-78684380D02*
X70961142Y-77684380D01*
X70865904Y-77827238D01*
X70770666Y-77922476D01*
X70675428Y-77970095D01*
%TO.C,Y1*%
X96541809Y-59189190D02*
X96541809Y-59665380D01*
X96208476Y-58665380D02*
X96541809Y-59189190D01*
X96875142Y-58665380D01*
X97732285Y-59665380D02*
X97160857Y-59665380D01*
X97446571Y-59665380D02*
X97446571Y-58665380D01*
X97351333Y-58808238D01*
X97256095Y-58903476D01*
X97160857Y-58951095D01*
%TO.C,R12*%
X79621142Y-46680380D02*
X79287809Y-46204190D01*
X79049714Y-46680380D02*
X79049714Y-45680380D01*
X79430666Y-45680380D01*
X79525904Y-45728000D01*
X79573523Y-45775619D01*
X79621142Y-45870857D01*
X79621142Y-46013714D01*
X79573523Y-46108952D01*
X79525904Y-46156571D01*
X79430666Y-46204190D01*
X79049714Y-46204190D01*
X80573523Y-46680380D02*
X80002095Y-46680380D01*
X80287809Y-46680380D02*
X80287809Y-45680380D01*
X80192571Y-45823238D01*
X80097333Y-45918476D01*
X80002095Y-45966095D01*
X80954476Y-45775619D02*
X81002095Y-45728000D01*
X81097333Y-45680380D01*
X81335428Y-45680380D01*
X81430666Y-45728000D01*
X81478285Y-45775619D01*
X81525904Y-45870857D01*
X81525904Y-45966095D01*
X81478285Y-46108952D01*
X80906857Y-46680380D01*
X81525904Y-46680380D01*
%TO.C,J14*%
X114252476Y-80478380D02*
X114252476Y-81192666D01*
X114204857Y-81335523D01*
X114109619Y-81430761D01*
X113966761Y-81478380D01*
X113871523Y-81478380D01*
X115252476Y-81478380D02*
X114681047Y-81478380D01*
X114966761Y-81478380D02*
X114966761Y-80478380D01*
X114871523Y-80621238D01*
X114776285Y-80716476D01*
X114681047Y-80764095D01*
X116109619Y-80811714D02*
X116109619Y-81478380D01*
X115871523Y-80430761D02*
X115633428Y-81145047D01*
X116252476Y-81145047D01*
%TO.C,R9*%
X107021333Y-147518380D02*
X106688000Y-147042190D01*
X106449904Y-147518380D02*
X106449904Y-146518380D01*
X106830857Y-146518380D01*
X106926095Y-146566000D01*
X106973714Y-146613619D01*
X107021333Y-146708857D01*
X107021333Y-146851714D01*
X106973714Y-146946952D01*
X106926095Y-146994571D01*
X106830857Y-147042190D01*
X106449904Y-147042190D01*
X107497523Y-147518380D02*
X107688000Y-147518380D01*
X107783238Y-147470761D01*
X107830857Y-147423142D01*
X107926095Y-147280285D01*
X107973714Y-147089809D01*
X107973714Y-146708857D01*
X107926095Y-146613619D01*
X107878476Y-146566000D01*
X107783238Y-146518380D01*
X107592761Y-146518380D01*
X107497523Y-146566000D01*
X107449904Y-146613619D01*
X107402285Y-146708857D01*
X107402285Y-146946952D01*
X107449904Y-147042190D01*
X107497523Y-147089809D01*
X107592761Y-147137428D01*
X107783238Y-147137428D01*
X107878476Y-147089809D01*
X107926095Y-147042190D01*
X107973714Y-146946952D01*
D10*
%TO.C,C11*%
X100765428Y-71301428D02*
X100741238Y-71325619D01*
X100668666Y-71349809D01*
X100620285Y-71349809D01*
X100547714Y-71325619D01*
X100499333Y-71277238D01*
X100475142Y-71228857D01*
X100450952Y-71132095D01*
X100450952Y-71059523D01*
X100475142Y-70962761D01*
X100499333Y-70914380D01*
X100547714Y-70866000D01*
X100620285Y-70841809D01*
X100668666Y-70841809D01*
X100741238Y-70866000D01*
X100765428Y-70890190D01*
X101249238Y-71349809D02*
X100958952Y-71349809D01*
X101104095Y-71349809D02*
X101104095Y-70841809D01*
X101055714Y-70914380D01*
X101007333Y-70962761D01*
X100958952Y-70986952D01*
X101733047Y-71349809D02*
X101442761Y-71349809D01*
X101587904Y-71349809D02*
X101587904Y-70841809D01*
X101539523Y-70914380D01*
X101491142Y-70962761D01*
X101442761Y-70986952D01*
%TO.C,C6*%
X90085333Y-84255428D02*
X90061142Y-84279619D01*
X89988571Y-84303809D01*
X89940190Y-84303809D01*
X89867619Y-84279619D01*
X89819238Y-84231238D01*
X89795047Y-84182857D01*
X89770857Y-84086095D01*
X89770857Y-84013523D01*
X89795047Y-83916761D01*
X89819238Y-83868380D01*
X89867619Y-83820000D01*
X89940190Y-83795809D01*
X89988571Y-83795809D01*
X90061142Y-83820000D01*
X90085333Y-83844190D01*
X90520761Y-83795809D02*
X90424000Y-83795809D01*
X90375619Y-83820000D01*
X90351428Y-83844190D01*
X90303047Y-83916761D01*
X90278857Y-84013523D01*
X90278857Y-84207047D01*
X90303047Y-84255428D01*
X90327238Y-84279619D01*
X90375619Y-84303809D01*
X90472380Y-84303809D01*
X90520761Y-84279619D01*
X90544952Y-84255428D01*
X90569142Y-84207047D01*
X90569142Y-84086095D01*
X90544952Y-84037714D01*
X90520761Y-84013523D01*
X90472380Y-83989333D01*
X90375619Y-83989333D01*
X90327238Y-84013523D01*
X90303047Y-84037714D01*
X90278857Y-84086095D01*
D11*
%TO.C,U5*%
X109474095Y-113244380D02*
X109474095Y-114053904D01*
X109521714Y-114149142D01*
X109569333Y-114196761D01*
X109664571Y-114244380D01*
X109855047Y-114244380D01*
X109950285Y-114196761D01*
X109997904Y-114149142D01*
X110045523Y-114053904D01*
X110045523Y-113244380D01*
X110997904Y-113244380D02*
X110521714Y-113244380D01*
X110474095Y-113720571D01*
X110521714Y-113672952D01*
X110616952Y-113625333D01*
X110855047Y-113625333D01*
X110950285Y-113672952D01*
X110997904Y-113720571D01*
X111045523Y-113815809D01*
X111045523Y-114053904D01*
X110997904Y-114149142D01*
X110950285Y-114196761D01*
X110855047Y-114244380D01*
X110616952Y-114244380D01*
X110521714Y-114196761D01*
X110474095Y-114149142D01*
%TO.C,J2*%
X114220666Y-124928380D02*
X114220666Y-125642666D01*
X114173047Y-125785523D01*
X114077809Y-125880761D01*
X113934952Y-125928380D01*
X113839714Y-125928380D01*
X114649238Y-125023619D02*
X114696857Y-124976000D01*
X114792095Y-124928380D01*
X115030190Y-124928380D01*
X115125428Y-124976000D01*
X115173047Y-125023619D01*
X115220666Y-125118857D01*
X115220666Y-125214095D01*
X115173047Y-125356952D01*
X114601619Y-125928380D01*
X115220666Y-125928380D01*
%TO.C,K3*%
X80033904Y-132278380D02*
X80033904Y-131278380D01*
X80605333Y-132278380D02*
X80176761Y-131706952D01*
X80605333Y-131278380D02*
X80033904Y-131849809D01*
X80938666Y-131278380D02*
X81557714Y-131278380D01*
X81224380Y-131659333D01*
X81367238Y-131659333D01*
X81462476Y-131706952D01*
X81510095Y-131754571D01*
X81557714Y-131849809D01*
X81557714Y-132087904D01*
X81510095Y-132183142D01*
X81462476Y-132230761D01*
X81367238Y-132278380D01*
X81081523Y-132278380D01*
X80986285Y-132230761D01*
X80938666Y-132183142D01*
%TO.C,R24*%
X79433142Y-57822380D02*
X79099809Y-57346190D01*
X78861714Y-57822380D02*
X78861714Y-56822380D01*
X79242666Y-56822380D01*
X79337904Y-56870000D01*
X79385523Y-56917619D01*
X79433142Y-57012857D01*
X79433142Y-57155714D01*
X79385523Y-57250952D01*
X79337904Y-57298571D01*
X79242666Y-57346190D01*
X78861714Y-57346190D01*
X79814095Y-56917619D02*
X79861714Y-56870000D01*
X79956952Y-56822380D01*
X80195047Y-56822380D01*
X80290285Y-56870000D01*
X80337904Y-56917619D01*
X80385523Y-57012857D01*
X80385523Y-57108095D01*
X80337904Y-57250952D01*
X79766476Y-57822380D01*
X80385523Y-57822380D01*
X81242666Y-57155714D02*
X81242666Y-57822380D01*
X81004571Y-56774761D02*
X80766476Y-57489047D01*
X81385523Y-57489047D01*
%TO.C,J19*%
X63706476Y-149058380D02*
X63706476Y-149772666D01*
X63658857Y-149915523D01*
X63563619Y-150010761D01*
X63420761Y-150058380D01*
X63325523Y-150058380D01*
X64706476Y-150058380D02*
X64135047Y-150058380D01*
X64420761Y-150058380D02*
X64420761Y-149058380D01*
X64325523Y-149201238D01*
X64230285Y-149296476D01*
X64135047Y-149344095D01*
X65182666Y-150058380D02*
X65373142Y-150058380D01*
X65468380Y-150010761D01*
X65516000Y-149963142D01*
X65611238Y-149820285D01*
X65658857Y-149629809D01*
X65658857Y-149248857D01*
X65611238Y-149153619D01*
X65563619Y-149106000D01*
X65468380Y-149058380D01*
X65277904Y-149058380D01*
X65182666Y-149106000D01*
X65135047Y-149153619D01*
X65087428Y-149248857D01*
X65087428Y-149486952D01*
X65135047Y-149582190D01*
X65182666Y-149629809D01*
X65277904Y-149677428D01*
X65468380Y-149677428D01*
X65563619Y-149629809D01*
X65611238Y-149582190D01*
X65658857Y-149486952D01*
%TO.C,C19*%
X107053142Y-118721142D02*
X107005523Y-118768761D01*
X106862666Y-118816380D01*
X106767428Y-118816380D01*
X106624571Y-118768761D01*
X106529333Y-118673523D01*
X106481714Y-118578285D01*
X106434095Y-118387809D01*
X106434095Y-118244952D01*
X106481714Y-118054476D01*
X106529333Y-117959238D01*
X106624571Y-117864000D01*
X106767428Y-117816380D01*
X106862666Y-117816380D01*
X107005523Y-117864000D01*
X107053142Y-117911619D01*
X108005523Y-118816380D02*
X107434095Y-118816380D01*
X107719809Y-118816380D02*
X107719809Y-117816380D01*
X107624571Y-117959238D01*
X107529333Y-118054476D01*
X107434095Y-118102095D01*
X108481714Y-118816380D02*
X108672190Y-118816380D01*
X108767428Y-118768761D01*
X108815047Y-118721142D01*
X108910285Y-118578285D01*
X108957904Y-118387809D01*
X108957904Y-118006857D01*
X108910285Y-117911619D01*
X108862666Y-117864000D01*
X108767428Y-117816380D01*
X108576952Y-117816380D01*
X108481714Y-117864000D01*
X108434095Y-117911619D01*
X108386476Y-118006857D01*
X108386476Y-118244952D01*
X108434095Y-118340190D01*
X108481714Y-118387809D01*
X108576952Y-118435428D01*
X108767428Y-118435428D01*
X108862666Y-118387809D01*
X108910285Y-118340190D01*
X108957904Y-118244952D01*
%TO.C,R15*%
X86733142Y-48966380D02*
X86399809Y-48490190D01*
X86161714Y-48966380D02*
X86161714Y-47966380D01*
X86542666Y-47966380D01*
X86637904Y-48014000D01*
X86685523Y-48061619D01*
X86733142Y-48156857D01*
X86733142Y-48299714D01*
X86685523Y-48394952D01*
X86637904Y-48442571D01*
X86542666Y-48490190D01*
X86161714Y-48490190D01*
X87685523Y-48966380D02*
X87114095Y-48966380D01*
X87399809Y-48966380D02*
X87399809Y-47966380D01*
X87304571Y-48109238D01*
X87209333Y-48204476D01*
X87114095Y-48252095D01*
X88590285Y-47966380D02*
X88114095Y-47966380D01*
X88066476Y-48442571D01*
X88114095Y-48394952D01*
X88209333Y-48347333D01*
X88447428Y-48347333D01*
X88542666Y-48394952D01*
X88590285Y-48442571D01*
X88637904Y-48537809D01*
X88637904Y-48775904D01*
X88590285Y-48871142D01*
X88542666Y-48918761D01*
X88447428Y-48966380D01*
X88209333Y-48966380D01*
X88114095Y-48918761D01*
X88066476Y-48871142D01*
%TO.C,SW1*%
X111950666Y-53744761D02*
X112093523Y-53792380D01*
X112331619Y-53792380D01*
X112426857Y-53744761D01*
X112474476Y-53697142D01*
X112522095Y-53601904D01*
X112522095Y-53506666D01*
X112474476Y-53411428D01*
X112426857Y-53363809D01*
X112331619Y-53316190D01*
X112141142Y-53268571D01*
X112045904Y-53220952D01*
X111998285Y-53173333D01*
X111950666Y-53078095D01*
X111950666Y-52982857D01*
X111998285Y-52887619D01*
X112045904Y-52840000D01*
X112141142Y-52792380D01*
X112379238Y-52792380D01*
X112522095Y-52840000D01*
X112855428Y-52792380D02*
X113093523Y-53792380D01*
X113284000Y-53078095D01*
X113474476Y-53792380D01*
X113712571Y-52792380D01*
X114617333Y-53792380D02*
X114045904Y-53792380D01*
X114331619Y-53792380D02*
X114331619Y-52792380D01*
X114236380Y-52935238D01*
X114141142Y-53030476D01*
X114045904Y-53078095D01*
%TO.C,Q1*%
X78644761Y-30519619D02*
X78549523Y-30472000D01*
X78454285Y-30376761D01*
X78311428Y-30233904D01*
X78216190Y-30186285D01*
X78120952Y-30186285D01*
X78168571Y-30424380D02*
X78073333Y-30376761D01*
X77978095Y-30281523D01*
X77930476Y-30091047D01*
X77930476Y-29757714D01*
X77978095Y-29567238D01*
X78073333Y-29472000D01*
X78168571Y-29424380D01*
X78359047Y-29424380D01*
X78454285Y-29472000D01*
X78549523Y-29567238D01*
X78597142Y-29757714D01*
X78597142Y-30091047D01*
X78549523Y-30281523D01*
X78454285Y-30376761D01*
X78359047Y-30424380D01*
X78168571Y-30424380D01*
X79549523Y-30424380D02*
X78978095Y-30424380D01*
X79263809Y-30424380D02*
X79263809Y-29424380D01*
X79168571Y-29567238D01*
X79073333Y-29662476D01*
X78978095Y-29710095D01*
%TO.C,L2*%
X83907333Y-81986380D02*
X83431142Y-81986380D01*
X83431142Y-80986380D01*
X84193047Y-81081619D02*
X84240666Y-81034000D01*
X84335904Y-80986380D01*
X84574000Y-80986380D01*
X84669238Y-81034000D01*
X84716857Y-81081619D01*
X84764476Y-81176857D01*
X84764476Y-81272095D01*
X84716857Y-81414952D01*
X84145428Y-81986380D01*
X84764476Y-81986380D01*
%TO.C,J22*%
X63706476Y-113498380D02*
X63706476Y-114212666D01*
X63658857Y-114355523D01*
X63563619Y-114450761D01*
X63420761Y-114498380D01*
X63325523Y-114498380D01*
X64135047Y-113593619D02*
X64182666Y-113546000D01*
X64277904Y-113498380D01*
X64516000Y-113498380D01*
X64611238Y-113546000D01*
X64658857Y-113593619D01*
X64706476Y-113688857D01*
X64706476Y-113784095D01*
X64658857Y-113926952D01*
X64087428Y-114498380D01*
X64706476Y-114498380D01*
X65087428Y-113593619D02*
X65135047Y-113546000D01*
X65230285Y-113498380D01*
X65468380Y-113498380D01*
X65563619Y-113546000D01*
X65611238Y-113593619D01*
X65658857Y-113688857D01*
X65658857Y-113784095D01*
X65611238Y-113926952D01*
X65039809Y-114498380D01*
X65658857Y-114498380D01*
%TO.C,J7*%
X69516666Y-46188380D02*
X69516666Y-46902666D01*
X69469047Y-47045523D01*
X69373809Y-47140761D01*
X69230952Y-47188380D01*
X69135714Y-47188380D01*
X69897619Y-46188380D02*
X70564285Y-46188380D01*
X70135714Y-47188380D01*
%TO.C,K2*%
X80033904Y-150058380D02*
X80033904Y-149058380D01*
X80605333Y-150058380D02*
X80176761Y-149486952D01*
X80605333Y-149058380D02*
X80033904Y-149629809D01*
X80986285Y-149153619D02*
X81033904Y-149106000D01*
X81129142Y-149058380D01*
X81367238Y-149058380D01*
X81462476Y-149106000D01*
X81510095Y-149153619D01*
X81557714Y-149248857D01*
X81557714Y-149344095D01*
X81510095Y-149486952D01*
X80938666Y-150058380D01*
X81557714Y-150058380D01*
%TO.C,IC1*%
X95543809Y-71280380D02*
X95543809Y-70280380D01*
X96591428Y-71185142D02*
X96543809Y-71232761D01*
X96400952Y-71280380D01*
X96305714Y-71280380D01*
X96162857Y-71232761D01*
X96067619Y-71137523D01*
X96020000Y-71042285D01*
X95972380Y-70851809D01*
X95972380Y-70708952D01*
X96020000Y-70518476D01*
X96067619Y-70423238D01*
X96162857Y-70328000D01*
X96305714Y-70280380D01*
X96400952Y-70280380D01*
X96543809Y-70328000D01*
X96591428Y-70375619D01*
X97543809Y-71280380D02*
X96972380Y-71280380D01*
X97258095Y-71280380D02*
X97258095Y-70280380D01*
X97162857Y-70423238D01*
X97067619Y-70518476D01*
X96972380Y-70566095D01*
%TO.C,J13*%
X69294476Y-30440380D02*
X69294476Y-31154666D01*
X69246857Y-31297523D01*
X69151619Y-31392761D01*
X69008761Y-31440380D01*
X68913523Y-31440380D01*
X70294476Y-31440380D02*
X69723047Y-31440380D01*
X70008761Y-31440380D02*
X70008761Y-30440380D01*
X69913523Y-30583238D01*
X69818285Y-30678476D01*
X69723047Y-30726095D01*
X70627809Y-30440380D02*
X71246857Y-30440380D01*
X70913523Y-30821333D01*
X71056380Y-30821333D01*
X71151619Y-30868952D01*
X71199238Y-30916571D01*
X71246857Y-31011809D01*
X71246857Y-31249904D01*
X71199238Y-31345142D01*
X71151619Y-31392761D01*
X71056380Y-31440380D01*
X70770666Y-31440380D01*
X70675428Y-31392761D01*
X70627809Y-31345142D01*
%TO.C,R16*%
X70985142Y-36520380D02*
X70651809Y-36044190D01*
X70413714Y-36520380D02*
X70413714Y-35520380D01*
X70794666Y-35520380D01*
X70889904Y-35568000D01*
X70937523Y-35615619D01*
X70985142Y-35710857D01*
X70985142Y-35853714D01*
X70937523Y-35948952D01*
X70889904Y-35996571D01*
X70794666Y-36044190D01*
X70413714Y-36044190D01*
X71937523Y-36520380D02*
X71366095Y-36520380D01*
X71651809Y-36520380D02*
X71651809Y-35520380D01*
X71556571Y-35663238D01*
X71461333Y-35758476D01*
X71366095Y-35806095D01*
X72794666Y-35520380D02*
X72604190Y-35520380D01*
X72508952Y-35568000D01*
X72461333Y-35615619D01*
X72366095Y-35758476D01*
X72318476Y-35948952D01*
X72318476Y-36329904D01*
X72366095Y-36425142D01*
X72413714Y-36472761D01*
X72508952Y-36520380D01*
X72699428Y-36520380D01*
X72794666Y-36472761D01*
X72842285Y-36425142D01*
X72889904Y-36329904D01*
X72889904Y-36091809D01*
X72842285Y-35996571D01*
X72794666Y-35948952D01*
X72699428Y-35901333D01*
X72508952Y-35901333D01*
X72413714Y-35948952D01*
X72366095Y-35996571D01*
X72318476Y-36091809D01*
%TO.C,J6*%
X114474666Y-91400380D02*
X114474666Y-92114666D01*
X114427047Y-92257523D01*
X114331809Y-92352761D01*
X114188952Y-92400380D01*
X114093714Y-92400380D01*
X115379428Y-91400380D02*
X115188952Y-91400380D01*
X115093714Y-91448000D01*
X115046095Y-91495619D01*
X114950857Y-91638476D01*
X114903238Y-91828952D01*
X114903238Y-92209904D01*
X114950857Y-92305142D01*
X114998476Y-92352761D01*
X115093714Y-92400380D01*
X115284190Y-92400380D01*
X115379428Y-92352761D01*
X115427047Y-92305142D01*
X115474666Y-92209904D01*
X115474666Y-91971809D01*
X115427047Y-91876571D01*
X115379428Y-91828952D01*
X115284190Y-91781333D01*
X115093714Y-91781333D01*
X114998476Y-91828952D01*
X114950857Y-91876571D01*
X114903238Y-91971809D01*
D13*
%TO.C,J20*%
X60706000Y-115316000D02*
X60706000Y-130556000D01*
X68326000Y-115316000D02*
X68326000Y-130556000D01*
X60706000Y-115316000D02*
X68326000Y-115316000D01*
X61976000Y-115316000D02*
X61976000Y-130556000D01*
X60706000Y-130556000D02*
X68326000Y-130556000D01*
%TO.C,U2*%
X112288000Y-124968000D02*
X112288000Y-123018000D01*
X107168000Y-124968000D02*
X107168000Y-123018000D01*
X107168000Y-124968000D02*
X107168000Y-128418000D01*
X112288000Y-124968000D02*
X112288000Y-126918000D01*
%TO.C,RV2*%
X98054000Y-107247000D02*
X103124000Y-107247000D01*
X103124000Y-107247000D02*
X103124000Y-97477000D01*
X98054000Y-107247000D02*
X98054000Y-97477000D01*
X98054000Y-97477000D02*
X103124000Y-97477000D01*
%TO.C,J12*%
X60706000Y-72136000D02*
X68326000Y-72136000D01*
X60706000Y-61976000D02*
X60706000Y-72136000D01*
X68326000Y-72136000D02*
X68326000Y-61976000D01*
X61976000Y-72136000D02*
X61976000Y-61976000D01*
X68326000Y-61976000D02*
X60706000Y-61976000D01*
%TO.C,U3*%
X112686000Y-97476000D02*
X107786000Y-97476000D01*
X111236000Y-102676000D02*
X112686000Y-102676000D01*
X107786000Y-97476000D02*
X107786000Y-102676000D01*
X107786000Y-102676000D02*
X109236000Y-102676000D01*
X112686000Y-102676000D02*
X112686000Y-97476000D01*
X111236000Y-102676000D02*
G75*
G03*
X109236000Y-102676000I-1000000J0D01*
G01*
%TO.C,RV1*%
X114603000Y-85349000D02*
X104833000Y-85349000D01*
X104833000Y-90419000D02*
X104833000Y-85349000D01*
X114603000Y-90419000D02*
X104833000Y-90419000D01*
X114603000Y-90419000D02*
X114603000Y-85349000D01*
%TO.C,U7*%
X109220000Y-31460000D02*
X110020000Y-31460000D01*
X109220000Y-34580000D02*
X108420000Y-34580000D01*
X109220000Y-31460000D02*
X108420000Y-31460000D01*
X109220000Y-34580000D02*
X111020000Y-34580000D01*
%TO.C,Q2*%
X77063000Y-47284000D02*
X77063000Y-37044000D01*
X72422000Y-40313000D02*
X73932000Y-40313000D01*
X72422000Y-47284000D02*
X77063000Y-47284000D01*
X72422000Y-44014000D02*
X73932000Y-44014000D01*
X73932000Y-47284000D02*
X73932000Y-37044000D01*
X72422000Y-47284000D02*
X72422000Y-37044000D01*
X72422000Y-37044000D02*
X77063000Y-37044000D01*
%TO.C,C17*%
X106399000Y-42476748D02*
X106399000Y-42999252D01*
X104929000Y-42476748D02*
X104929000Y-42999252D01*
%TO.C,J10*%
X68326000Y-94488000D02*
X68326000Y-84328000D01*
X60706000Y-84328000D02*
X60706000Y-94488000D01*
X60706000Y-94488000D02*
X68326000Y-94488000D01*
X68326000Y-84328000D02*
X60706000Y-84328000D01*
X61976000Y-94488000D02*
X61976000Y-84328000D01*
%TO.C,U8*%
X84308000Y-90424000D02*
X84308000Y-86974000D01*
X74188000Y-90424000D02*
X74188000Y-92374000D01*
X74188000Y-90424000D02*
X74188000Y-88474000D01*
X84308000Y-90424000D02*
X84308000Y-92374000D01*
%TO.C,C8*%
X85590748Y-29745000D02*
X86113252Y-29745000D01*
X85590748Y-31215000D02*
X86113252Y-31215000D01*
%TO.C,K1*%
X75130000Y-162796000D02*
X75130000Y-160496000D01*
X85830000Y-159996000D02*
X80830000Y-159996000D01*
X83330000Y-156996000D02*
X83330000Y-152496000D01*
X83330000Y-164496000D02*
X83330000Y-159996000D01*
X79830000Y-154796000D02*
X86730000Y-154796000D01*
X85630000Y-152496000D02*
X83330000Y-152496000D01*
X80830000Y-159996000D02*
X80830000Y-156996000D01*
X85830000Y-156996000D02*
X85830000Y-159996000D01*
X86730000Y-158496000D02*
X86730000Y-154796000D01*
X83330000Y-164496000D02*
X85630000Y-164496000D01*
X90830000Y-157296000D02*
X90830000Y-150796000D01*
X90830000Y-166196000D02*
X90830000Y-159696000D01*
X79830000Y-158496000D02*
X79830000Y-154796000D01*
X79830000Y-158496000D02*
X78330000Y-158496000D01*
X90830000Y-166196000D02*
X71630000Y-166196000D01*
X71630000Y-166196000D02*
X71630000Y-150796000D01*
X80830000Y-156996000D02*
X85830000Y-156996000D01*
X75130000Y-154196000D02*
X75130000Y-156496000D01*
X78330000Y-158496000D02*
X73830000Y-161196000D01*
X71630000Y-150796000D02*
X90830000Y-150796000D01*
X80830000Y-156996000D02*
X85830000Y-159996000D01*
X86730000Y-158496000D02*
X87630000Y-158496000D01*
%TO.C,J1*%
X124460000Y-29464000D02*
X124460000Y-39624000D01*
X125730000Y-39624000D02*
X125730000Y-29464000D01*
X118110000Y-39624000D02*
X125730000Y-39624000D01*
X125730000Y-29464000D02*
X118110000Y-29464000D01*
X118110000Y-29464000D02*
X118110000Y-39624000D01*
%TO.C,J17*%
X68326000Y-60960000D02*
X68326000Y-50800000D01*
X60706000Y-50800000D02*
X60706000Y-60960000D01*
X60706000Y-60960000D02*
X68326000Y-60960000D01*
X61976000Y-60960000D02*
X61976000Y-50800000D01*
X68326000Y-50800000D02*
X60706000Y-50800000D01*
%TO.C,J5*%
X117602000Y-165608000D02*
X117602000Y-150368000D01*
X123952000Y-165608000D02*
X123952000Y-150368000D01*
X125222000Y-150368000D02*
X117602000Y-150368000D01*
X125222000Y-165608000D02*
X117602000Y-165608000D01*
X125222000Y-165608000D02*
X125222000Y-150368000D01*
%TO.C,J18*%
X60706000Y-166116000D02*
X68326000Y-166116000D01*
X60706000Y-150876000D02*
X68326000Y-150876000D01*
X61976000Y-150876000D02*
X61976000Y-166116000D01*
X60706000Y-150876000D02*
X60706000Y-166116000D01*
X68326000Y-150876000D02*
X68326000Y-166116000D01*
%TO.C,C16*%
X101373000Y-42410748D02*
X101373000Y-42933252D01*
X102843000Y-42410748D02*
X102843000Y-42933252D01*
%TO.C,J15*%
X112582000Y-76708000D02*
X112582000Y-78038000D01*
X112582000Y-75438000D02*
X112582000Y-67758000D01*
X112582000Y-78038000D02*
X111252000Y-78038000D01*
X112582000Y-67758000D02*
X109922000Y-67758000D01*
X109922000Y-75438000D02*
X109922000Y-67758000D01*
X112582000Y-75438000D02*
X109922000Y-75438000D01*
%TO.C,J3*%
X125222000Y-134112000D02*
X117602000Y-134112000D01*
X125222000Y-149352000D02*
X117602000Y-149352000D01*
X123952000Y-149352000D02*
X123952000Y-134112000D01*
X125222000Y-149352000D02*
X125222000Y-134112000D01*
X117602000Y-149352000D02*
X117602000Y-134112000D01*
%TO.C,J8*%
X117602000Y-72136000D02*
X125222000Y-72136000D01*
X123952000Y-61976000D02*
X123952000Y-72136000D01*
X125222000Y-61976000D02*
X117602000Y-61976000D01*
X117602000Y-61976000D02*
X117602000Y-72136000D01*
X125222000Y-72136000D02*
X125222000Y-61976000D01*
%TO.C,J21*%
X82998000Y-62982000D02*
X82998000Y-55302000D01*
X85658000Y-65582000D02*
X84328000Y-65582000D01*
X85658000Y-62982000D02*
X82998000Y-62982000D01*
X85658000Y-62982000D02*
X85658000Y-55302000D01*
X85658000Y-64252000D02*
X85658000Y-65582000D01*
X85658000Y-55302000D02*
X82998000Y-55302000D01*
%TO.C,U6*%
X76200000Y-72664000D02*
X74250000Y-72664000D01*
X76200000Y-82784000D02*
X74250000Y-82784000D01*
X76200000Y-72664000D02*
X78150000Y-72664000D01*
X76200000Y-82784000D02*
X79650000Y-82784000D01*
%TO.C,K4*%
X75130000Y-109456000D02*
X75130000Y-107156000D01*
X83330000Y-103656000D02*
X83330000Y-99156000D01*
X79830000Y-101456000D02*
X86730000Y-101456000D01*
X90830000Y-112856000D02*
X90830000Y-106356000D01*
X86730000Y-105156000D02*
X87630000Y-105156000D01*
X78330000Y-105156000D02*
X73830000Y-107856000D01*
X90830000Y-112856000D02*
X71630000Y-112856000D01*
X71630000Y-112856000D02*
X71630000Y-97456000D01*
X86730000Y-105156000D02*
X86730000Y-101456000D01*
X83330000Y-111156000D02*
X85630000Y-111156000D01*
X79830000Y-105156000D02*
X78330000Y-105156000D01*
X83330000Y-111156000D02*
X83330000Y-106656000D01*
X80830000Y-103656000D02*
X85830000Y-106656000D01*
X80830000Y-103656000D02*
X85830000Y-103656000D01*
X80830000Y-106656000D02*
X80830000Y-103656000D01*
X71630000Y-97456000D02*
X90830000Y-97456000D01*
X90830000Y-103956000D02*
X90830000Y-97456000D01*
X85630000Y-99156000D02*
X83330000Y-99156000D01*
X85830000Y-106656000D02*
X80830000Y-106656000D01*
X85830000Y-103656000D02*
X85830000Y-106656000D01*
X79830000Y-105156000D02*
X79830000Y-101456000D01*
X75130000Y-100856000D02*
X75130000Y-103156000D01*
%TO.C,J16*%
X91898000Y-52638000D02*
X91898000Y-51308000D01*
X102178000Y-52638000D02*
X102178000Y-49978000D01*
X93228000Y-52638000D02*
X91898000Y-52638000D01*
X94498000Y-52638000D02*
X94498000Y-49978000D01*
X94498000Y-52638000D02*
X102178000Y-52638000D01*
X94498000Y-49978000D02*
X102178000Y-49978000D01*
%TO.C,U1*%
X111780000Y-142240000D02*
X111780000Y-138790000D01*
X106660000Y-142240000D02*
X106660000Y-140290000D01*
X106660000Y-142240000D02*
X106660000Y-144190000D01*
X111780000Y-142240000D02*
X111780000Y-144190000D01*
%TO.C,L1*%
X106732000Y-32460000D02*
X106282000Y-32460000D01*
X106732000Y-38660000D02*
X106282000Y-38660000D01*
X106732000Y-32460000D02*
X106732000Y-38660000D01*
X100532000Y-38660000D02*
X100532000Y-32460000D01*
X100532000Y-32460000D02*
X100982000Y-32460000D01*
X100532000Y-38660000D02*
X100982000Y-38660000D01*
%TO.C,RV3*%
X85625000Y-76969252D02*
X85625000Y-76446748D01*
X87095000Y-76969252D02*
X87095000Y-76446748D01*
%TO.C,U4*%
X86888000Y-37084000D02*
X86888000Y-33634000D01*
X81768000Y-37084000D02*
X81768000Y-35134000D01*
X81768000Y-37084000D02*
X81768000Y-39034000D01*
X86888000Y-37084000D02*
X86888000Y-39034000D01*
%TO.C,J9*%
X125222000Y-105664000D02*
X125222000Y-95504000D01*
X123952000Y-95504000D02*
X123952000Y-105664000D01*
X117602000Y-105664000D02*
X125222000Y-105664000D01*
X117602000Y-95504000D02*
X117602000Y-105664000D01*
X125222000Y-95504000D02*
X117602000Y-95504000D01*
%TO.C,C14*%
X114019000Y-32692748D02*
X114019000Y-33215252D01*
X112549000Y-32692748D02*
X112549000Y-33215252D01*
%TO.C,J4*%
X125222000Y-106680000D02*
X117602000Y-106680000D01*
X117602000Y-106680000D02*
X117602000Y-116840000D01*
X123952000Y-106680000D02*
X123952000Y-116840000D01*
X125222000Y-116840000D02*
X125222000Y-106680000D01*
X117602000Y-116840000D02*
X125222000Y-116840000D01*
%TO.C,J11*%
X60706000Y-83312000D02*
X68326000Y-83312000D01*
X68326000Y-73152000D02*
X60706000Y-73152000D01*
X60706000Y-73152000D02*
X60706000Y-83312000D01*
X61976000Y-83312000D02*
X61976000Y-73152000D01*
X68326000Y-83312000D02*
X68326000Y-73152000D01*
%TO.C,Y1*%
X93818000Y-60213000D02*
X100218000Y-60213000D01*
X93818000Y-65263000D02*
X100218000Y-65263000D01*
X93818000Y-60213000D02*
G75*
G03*
X93818000Y-65263000I0J-2525000D01*
G01*
X100218000Y-65263000D02*
G75*
G03*
X100218000Y-60213000I0J2525000D01*
G01*
%TO.C,J14*%
X123952000Y-73152000D02*
X123952000Y-83312000D01*
X125222000Y-83312000D02*
X125222000Y-73152000D01*
X117602000Y-83312000D02*
X125222000Y-83312000D01*
X125222000Y-73152000D02*
X117602000Y-73152000D01*
X117602000Y-73152000D02*
X117602000Y-83312000D01*
%TO.C,U5*%
X111236000Y-112836000D02*
X112686000Y-112836000D01*
X107786000Y-107636000D02*
X107786000Y-112836000D01*
X112686000Y-112836000D02*
X112686000Y-107636000D01*
X112686000Y-107636000D02*
X107786000Y-107636000D01*
X107786000Y-112836000D02*
X109236000Y-112836000D01*
X111236000Y-112836000D02*
G75*
G03*
X109236000Y-112836000I-1000000J0D01*
G01*
%TO.C,J2*%
X123952000Y-133096000D02*
X123952000Y-117856000D01*
X125222000Y-133096000D02*
X125222000Y-117856000D01*
X125222000Y-133096000D02*
X117602000Y-133096000D01*
X125222000Y-117856000D02*
X117602000Y-117856000D01*
X117602000Y-133096000D02*
X117602000Y-117856000D01*
%TO.C,K3*%
X75130000Y-127236000D02*
X75130000Y-124936000D01*
X90830000Y-121736000D02*
X90830000Y-115236000D01*
X86730000Y-122936000D02*
X87630000Y-122936000D01*
X71630000Y-115236000D02*
X90830000Y-115236000D01*
X86730000Y-122936000D02*
X86730000Y-119236000D01*
X80830000Y-121436000D02*
X85830000Y-124436000D01*
X85630000Y-116936000D02*
X83330000Y-116936000D01*
X79830000Y-122936000D02*
X78330000Y-122936000D01*
X71630000Y-130636000D02*
X71630000Y-115236000D01*
X90830000Y-130636000D02*
X71630000Y-130636000D01*
X79830000Y-122936000D02*
X79830000Y-119236000D01*
X85830000Y-124436000D02*
X80830000Y-124436000D01*
X80830000Y-121436000D02*
X85830000Y-121436000D01*
X75130000Y-118636000D02*
X75130000Y-120936000D01*
X83330000Y-128936000D02*
X85630000Y-128936000D01*
X79830000Y-119236000D02*
X86730000Y-119236000D01*
X90830000Y-130636000D02*
X90830000Y-124136000D01*
X80830000Y-124436000D02*
X80830000Y-121436000D01*
X78330000Y-122936000D02*
X73830000Y-125636000D01*
X85830000Y-121436000D02*
X85830000Y-124436000D01*
X83330000Y-128936000D02*
X83330000Y-124436000D01*
X83330000Y-121436000D02*
X83330000Y-116936000D01*
%TO.C,J19*%
X61976000Y-133096000D02*
X61976000Y-148336000D01*
X60706000Y-133096000D02*
X68326000Y-133096000D01*
X60706000Y-148336000D02*
X68326000Y-148336000D01*
X60706000Y-133096000D02*
X60706000Y-148336000D01*
X68326000Y-133096000D02*
X68326000Y-148336000D01*
%TO.C,SW1*%
X115954000Y-53810000D02*
X115954000Y-52870000D01*
X122934000Y-49805000D02*
X121580667Y-49805000D01*
X122934000Y-54645000D02*
X121580667Y-54645000D01*
X125854000Y-59570000D02*
X125854000Y-57950000D01*
X118874000Y-52705000D02*
X122934000Y-52705000D01*
X125854000Y-53810000D02*
X125854000Y-52870000D01*
X122934000Y-57545000D02*
X121580667Y-57545000D01*
X122934000Y-51505000D02*
X121580667Y-51505000D01*
X125854000Y-47110000D02*
X115954000Y-47110000D01*
X115954000Y-56350000D02*
X115954000Y-55410000D01*
X122934000Y-52465000D02*
X121580667Y-52465000D01*
X122934000Y-57305000D02*
X121580667Y-57305000D01*
X125854000Y-56350000D02*
X125854000Y-55410000D01*
X122934000Y-57785000D02*
X122934000Y-56515000D01*
X122934000Y-54885000D02*
X121580667Y-54885000D01*
X122934000Y-57425000D02*
X121580667Y-57425000D01*
X122934000Y-56945000D02*
X121580667Y-56945000D01*
X122934000Y-49085000D02*
X121580667Y-49085000D01*
X118874000Y-51435000D02*
X118874000Y-52705000D01*
X122934000Y-51625000D02*
X121580667Y-51625000D01*
X122934000Y-56825000D02*
X121580667Y-56825000D01*
X118874000Y-56515000D02*
X118874000Y-57785000D01*
X118874000Y-55245000D02*
X122934000Y-55245000D01*
X122934000Y-50165000D02*
X122934000Y-48895000D01*
X121580667Y-57785000D02*
X121580667Y-56515000D01*
X122934000Y-53975000D02*
X118874000Y-53975000D01*
X121580667Y-52705000D02*
X121580667Y-51435000D01*
X122934000Y-56705000D02*
X121580667Y-56705000D01*
X122934000Y-56585000D02*
X121580667Y-56585000D01*
X122934000Y-55125000D02*
X121580667Y-55125000D01*
X121580667Y-55245000D02*
X121580667Y-53975000D01*
X122934000Y-54525000D02*
X121580667Y-54525000D01*
X122934000Y-49325000D02*
X121580667Y-49325000D01*
X122934000Y-54045000D02*
X121580667Y-54045000D01*
X122934000Y-48965000D02*
X121580667Y-48965000D01*
X122934000Y-56515000D02*
X118874000Y-56515000D01*
X122934000Y-51985000D02*
X121580667Y-51985000D01*
X122934000Y-57665000D02*
X121580667Y-57665000D01*
X125854000Y-48730000D02*
X125854000Y-47110000D01*
X122934000Y-54765000D02*
X121580667Y-54765000D01*
X122934000Y-52585000D02*
X121580667Y-52585000D01*
X122934000Y-49205000D02*
X121580667Y-49205000D01*
X118874000Y-53975000D02*
X118874000Y-55245000D01*
X122934000Y-49925000D02*
X121580667Y-49925000D01*
X118874000Y-50165000D02*
X122934000Y-50165000D01*
X122934000Y-51435000D02*
X118874000Y-51435000D01*
X121580667Y-50165000D02*
X121580667Y-48895000D01*
X126094000Y-59810000D02*
X124710000Y-59810000D01*
X118874000Y-57785000D02*
X122934000Y-57785000D01*
X122934000Y-51865000D02*
X121580667Y-51865000D01*
X122934000Y-48895000D02*
X118874000Y-48895000D01*
X122934000Y-54285000D02*
X121580667Y-54285000D01*
X122934000Y-55005000D02*
X121580667Y-55005000D01*
X122934000Y-54405000D02*
X121580667Y-54405000D01*
X122934000Y-55245000D02*
X122934000Y-53975000D01*
X122934000Y-49565000D02*
X121580667Y-49565000D01*
X122934000Y-52105000D02*
X121580667Y-52105000D01*
X125854000Y-59570000D02*
X115954000Y-59570000D01*
X122934000Y-54165000D02*
X121580667Y-54165000D01*
X122934000Y-52225000D02*
X121580667Y-52225000D01*
X115954000Y-48730000D02*
X115954000Y-47110000D01*
X122934000Y-49685000D02*
X121580667Y-49685000D01*
X118874000Y-48895000D02*
X118874000Y-50165000D01*
X122934000Y-52705000D02*
X122934000Y-51435000D01*
X126094000Y-59810000D02*
X126094000Y-58427000D01*
X122934000Y-52345000D02*
X121580667Y-52345000D01*
X125854000Y-51270000D02*
X125854000Y-50330000D01*
X122934000Y-51745000D02*
X121580667Y-51745000D01*
X122934000Y-49445000D02*
X121580667Y-49445000D01*
X122934000Y-50045000D02*
X121580667Y-50045000D01*
X115954000Y-59570000D02*
X115954000Y-57950000D01*
X122934000Y-57185000D02*
X121580667Y-57185000D01*
X115954000Y-51270000D02*
X115954000Y-50330000D01*
X122934000Y-57065000D02*
X121580667Y-57065000D01*
%TO.C,Q1*%
X73861000Y-35092000D02*
X73861000Y-24852000D01*
X72351000Y-35092000D02*
X76992000Y-35092000D01*
X72351000Y-24852000D02*
X76992000Y-24852000D01*
X72351000Y-35092000D02*
X72351000Y-24852000D01*
X72351000Y-28121000D02*
X73861000Y-28121000D01*
X76992000Y-35092000D02*
X76992000Y-24852000D01*
X72351000Y-31822000D02*
X73861000Y-31822000D01*
%TO.C,L2*%
X85800000Y-80880378D02*
X85800000Y-81679622D01*
X86920000Y-80880378D02*
X86920000Y-81679622D01*
%TO.C,J22*%
X61976000Y-97536000D02*
X61976000Y-112776000D01*
X68326000Y-97536000D02*
X68326000Y-112776000D01*
X60706000Y-97536000D02*
X68326000Y-97536000D01*
X60706000Y-112776000D02*
X68326000Y-112776000D01*
X60706000Y-97536000D02*
X60706000Y-112776000D01*
%TO.C,J7*%
X60706000Y-39624000D02*
X60706000Y-49784000D01*
X61976000Y-49784000D02*
X61976000Y-39624000D01*
X68326000Y-49784000D02*
X68326000Y-39624000D01*
X60706000Y-49784000D02*
X68326000Y-49784000D01*
X68326000Y-39624000D02*
X60706000Y-39624000D01*
%TO.C,K2*%
X71630000Y-133016000D02*
X90830000Y-133016000D01*
X90830000Y-139516000D02*
X90830000Y-133016000D01*
X86730000Y-140716000D02*
X87630000Y-140716000D01*
X80830000Y-142216000D02*
X80830000Y-139216000D01*
X79830000Y-137016000D02*
X86730000Y-137016000D01*
X85830000Y-142216000D02*
X80830000Y-142216000D01*
X90830000Y-148416000D02*
X90830000Y-141916000D01*
X90830000Y-148416000D02*
X71630000Y-148416000D01*
X83330000Y-146716000D02*
X83330000Y-142216000D01*
X80830000Y-139216000D02*
X85830000Y-142216000D01*
X78330000Y-140716000D02*
X73830000Y-143416000D01*
X86730000Y-140716000D02*
X86730000Y-137016000D01*
X85830000Y-139216000D02*
X85830000Y-142216000D01*
X75130000Y-145016000D02*
X75130000Y-142716000D01*
X83330000Y-139216000D02*
X83330000Y-134716000D01*
X75130000Y-136416000D02*
X75130000Y-138716000D01*
X79830000Y-140716000D02*
X78330000Y-140716000D01*
X83330000Y-146716000D02*
X85630000Y-146716000D01*
X80830000Y-139216000D02*
X85830000Y-139216000D01*
X71630000Y-148416000D02*
X71630000Y-133016000D01*
X79830000Y-140716000D02*
X79830000Y-137016000D01*
X85630000Y-134716000D02*
X83330000Y-134716000D01*
%TO.C,IC1*%
X99830000Y-80318000D02*
X100130000Y-80318000D01*
X93210000Y-73098000D02*
X92910000Y-73098000D01*
X92910000Y-73398000D02*
X91595000Y-73398000D01*
X99830000Y-73098000D02*
X100130000Y-73098000D01*
X100130000Y-73098000D02*
X100130000Y-73398000D01*
X93210000Y-80318000D02*
X92910000Y-80318000D01*
X100130000Y-80318000D02*
X100130000Y-80018000D01*
X92910000Y-73098000D02*
X92910000Y-73398000D01*
X92910000Y-80318000D02*
X92910000Y-80018000D01*
%TO.C,J13*%
X61976000Y-38608000D02*
X61976000Y-28448000D01*
X68326000Y-38608000D02*
X68326000Y-28448000D01*
X60706000Y-28448000D02*
X60706000Y-38608000D01*
X68326000Y-28448000D02*
X60706000Y-28448000D01*
X60706000Y-38608000D02*
X68326000Y-38608000D01*
%TO.C,J6*%
X117602000Y-84328000D02*
X117602000Y-94488000D01*
X117602000Y-94488000D02*
X125222000Y-94488000D01*
X123952000Y-84328000D02*
X123952000Y-94488000D01*
X125222000Y-84328000D02*
X117602000Y-84328000D01*
X125222000Y-94488000D02*
X125222000Y-84328000D01*
%TD*%
M02*
